<svg version="1.1" width="484" height="368" viewBox="-1 -1 484 368" xmlns="http://www.w3.org/2000/svg" xmlns:xlink="http://www.w3.org/1999/xlink">
  <!-- Exported by Scratch - http://scratch.mit.edu/ -->
  <path id="ID0.24535179883241653" fill="none" stroke="#FF00BF" stroke-width="2" stroke-linecap="round" d="M 480 0 L 480 360 " transform="matrix(1.011049747467041, 0, 0, 1.011049747467041, -4.9, 1)"/>
  <path id="ID0.5574154700152576" fill="#FF0000" stroke="#FF0000" stroke-width="2" d="M 0 297 L 480 297 L 480 353 L 0 353 L 0 297 Z " transform="matrix(1, 0, 0, 0.7758620977401733, 1, 87.3)"/>
  <path id="ID0.07447049533948302" fill="#666666" stroke="#666666" stroke-width="2" d="M 12 164 L 66 164 L 66 211 L 12 211 L 12 164 Z " transform="matrix(1, 0, 0, 1, 1, 1)"/>
  <path id="ID0.5123120816424489" fill="#006666" stroke="none" d="M 125 94 L 403 94 L 403 264 L 125 264 L 125 94 Z " transform="matrix(1.1115286350250244, 0, 0, 1.1115286350250244, -45.9, -86.45)"/>
</svg>