<svg version="1.1" width="510" height="364" viewBox="-1 -1 510 364" xmlns="http://www.w3.org/2000/svg" xmlns:xlink="http://www.w3.org/1999/xlink">
  <!-- Exported by Scratch - http://scratch.mit.edu/ -->
  <path id="ID0.9949736562557518" fill="#FF0000" stroke="#FF0000" stroke-width="2" stroke-linecap="round" d="M -26 318 L 480 318 L 480 360 L 0 360 L -26 318 Z " transform="matrix(1, 0, 0, 1, 28, 1)"/>
  <path id="ID0.24535179883241653" fill="none" stroke="#FF00BF" stroke-width="2" stroke-linecap="round" d="M 480 0 L 480 360 " transform="matrix(1, 0, 0, 1, 28, 1)"/>
  <path id="ID0.27499995846301317" fill="#666666" stroke="#00FF55" stroke-width="2" d="M 19.500 83 C 24.880 83 29.755 85.185 33.285 88.715 C 36.815 92.245 39 97.120 39 102.500 C 39 107.880 36.815 112.755 33.285 116.285 C 29.755 119.815 24.880 122 19.500 122 C 14.120 122 9.245 119.815 5.715 116.285 C 2.185 112.755 0 107.880 0 102.500 C 0 97.120 2.185 92.245 5.715 88.715 C 9.245 85.185 14.120 83 19.500 83 Z " transform="matrix(1, 0, 0, 1, 40, 9)"/>
  <path id="ID0.3301815437152982" fill="#00FF55" stroke="none" d="M 200 107 C 200 107 200 112.995 200 122.680 C 200 132.365 200 145.740 200 160.500 C 200 175.260 200 188.635 200 198.320 C 200 208.005 200 214 200 214 C 200 214 200 208.005 200 198.320 C 200 188.635 200 175.260 200 160.500 C 200 145.740 200 132.365 200 122.680 C 200 112.995 200 107 200 107 Z " transform="matrix(1, 0, 0, 1, 28, 1)"/>
  <path id="ID0.6346632204949856" fill="#666666" stroke="#00FF55" stroke-width="2" d="M 141 102 L 258 102 L 258 147 L 141 147 L 141 102 Z " transform="matrix(1.638655424118042, 0, 0, 1, -50.4, 1)"/>
  <path id="ID0.19739471515640616" fill="#00FF55" stroke="none" d="M 266 147 L 296 147 L 296 147 L 266 147 L 266 147 Z " transform="matrix(1, 0, 0, 1, 28, 1)"/>
  <path id="ID0.49634111393243074" fill="#666666" stroke="none" stroke-linecap="round" d="M 75 0 L 98 0 L 98 130 L 80 130 L 75 0 Z " transform="matrix(1, 0, 0, 1, 37, 1)"/>
  <path id="ID0.313123133033514" fill="#666666" stroke="none" d="M 135 70 L 136 70 L 136 70 L 135 70 L 135 70 Z " transform="matrix(1, 0, 0, 1, 28, 1)"/>
  <path id="ID0.249128770083189" fill="none" stroke="#666666" stroke-width="2" stroke-linecap="round" d="M 103 173 L 144 175 " transform="matrix(2.0209059715270996, 0, 0, 2.0209059715270996, -82.1, -159.55)"/>
</svg>