<svg version="1.1" width="484" height="364" viewBox="-1 -1 484 364" xmlns="http://www.w3.org/2000/svg" xmlns:xlink="http://www.w3.org/1999/xlink">
  <!-- Exported by Scratch - http://scratch.mit.edu/ -->
  <path id="ID0.68498415639624" fill="none" stroke="#FF00BF" stroke-width="2" stroke-linecap="round" d="M 479 0 L 479 360 " transform="matrix(1, 0, 0, 1, 2, 1)"/>
  <path id="ID0.001329914666712284" fill="#666666" stroke="#00FF55" stroke-width="2" d="M 49 0 L 70 0 L 70 200 L 49 200 L 49 0 Z " transform="matrix(1, 0, 0, 1, -4, 1)"/>
  <path id="ID0.07622874062508345" fill="#666666" stroke="#00FF55" stroke-width="2" d="M 0 306 L 67 306 L 67 360 L 0 360 L 0 306 Z " transform="matrix(1, 0, 0, 1, 1, 1)"/>
  <path id="ID0.07622874062508345" fill="#666666" stroke="#00FF55" stroke-width="2" d="M 0 306 L 67 306 L 67 360 L 0 360 L 0 306 Z " transform="matrix(1, 0, 0, 1, 105.5, -18)"/>
  <path id="ID0.2811604868620634" fill="#FF0000" stroke="#FF0000" stroke-width="2" d="M 0 318 L 480 318 L 480 360 L 0 360 L 0 318 Z " transform="matrix(1, 0, 0, 1, 1, 1)"/>
  <path id="ID0.07622874062508345" fill="#666666" stroke="#00FF55" stroke-width="2" d="M 0 306 L 67 306 L 67 360 L 0 360 L 0 306 Z " transform="matrix(1, 0, 0, 0.8035714030265808, 221.5, 8.9)"/>
  <path id="ID0.07622874062508345" fill="#666666" stroke="#00FF55" stroke-width="2" d="M 0 306 L 67 306 L 67 360 L 0 360 L 0 306 Z " transform="matrix(1, 0, 0, 1, 344.5, -116)"/>
  <text id="ID0.6264006965793669" fill="#666666" x="72" y="27.7" text-anchor="start" font-family="Scratch" font-size="22" transform="matrix(1, 0, 0, 1, 71, 11.5)">that deja vu momentbut you just can't jump</text>
</svg>