<svg version="1.1" width="484" height="364" viewBox="-1 -1 484 364" xmlns="http://www.w3.org/2000/svg" xmlns:xlink="http://www.w3.org/1999/xlink">
  <!-- Exported by Scratch - http://scratch.mit.edu/ -->
  <path id="ID0.68498415639624" fill="none" stroke="#FF00BF" stroke-width="2" stroke-linecap="round" d="M 479 0 L 479 360 " transform="matrix(1, 0, 0, 1, 2, 1)"/>
  <path id="ID0.001329914666712284" fill="#666666" stroke="#666666" stroke-width="2" d="M 49 0 L 70 0 L 70 200 L 49 200 L 49 0 Z " transform="matrix(1, 0, 0, 1, -4, 2)"/>
  <path id="ID0.07622874062508345" fill="#666666" stroke="#666666" stroke-width="2" d="M 0 306 L 67 306 L 67 360 L 0 360 L 0 306 Z " transform="matrix(0.6521739363670349, 0, 0, 0.8571428656578064, 1.6, 52.55)"/>
  <path id="ID0.2811604868620634" fill="#FF0000" stroke="#FF0000" stroke-width="2" d="M 0 318 L 480 318 L 480 360 L 0 360 L 0 318 Z " transform="matrix(1, 0, 0, 1, 1, 1)"/>
  <path id="ID0.07622874062508345" fill="#666666" stroke="#006666" stroke-width="2" d="M 0 306 L 67 306 L 67 360 L 0 360 L 0 306 Z " transform="matrix(0.3478260934352875, 0, 0, 1, 164.45, -57)"/>
  <path id="ID0.31911624828353524" fill="#006666" stroke="none" d="M 219 176 L 268 176 L 268 224 L 219 224 L 219 176 Z " transform="matrix(1, 0, 0, 1, 1, 1)"/>
  <path id="ID0.1954797781072557" fill="#006666" stroke="none" d="M 321 140 L 369 140 L 369 189 L 321 189 L 321 140 Z " transform="matrix(1, 0, 0, 1, 1, 1)"/>
  <path id="ID0.9099814593791962" fill="#006666" stroke="none" d="M 401 202 L 450 202 L 450 252 L 401 252 L 401 202 Z " transform="matrix(1, 0, 0, 1, 1, -6)"/>
</svg>