<svg version="1.1" width="484" height="365" viewBox="-1 -1 484 365" xmlns="http://www.w3.org/2000/svg" xmlns:xlink="http://www.w3.org/1999/xlink">
  <!-- Exported by Scratch - http://scratch.mit.edu/ -->
  <path id="ID0.44994057761505246" fill="#666666" stroke="#666666" stroke-width="2" d="M 0 237 L 480 237 L 480 360 L 0 360 L 0 237 Z " transform="matrix(1, 0, 0, 1, 2, 2)"/>
  <text id="ID0.7460749852471054" fill="#00FF55" x="45" y="326.7" text-anchor="start" font-family="Scratch" font-size="22" transform="matrix(1, 0, 0, 1, 20, 323.5)">and lime makes you jump very not</text>
  <path id="ID0.24535179883241653" fill="none" stroke="#FF00BF" stroke-width="2" stroke-linecap="round" d="M 480 0 L 480 360 " transform="matrix(1, 0, 0, 1, 2, 2)"/>
  <text id="ID0.1561964275315404" fill="#FF0000" x="228" y="59.7" text-anchor="start" font-family="Scratch" font-size="22" transform="matrix(1, 0, 0, 1, 234, 5.5)">red, obviously, is very hot</text>
  <path id="ID0.05523030646145344" fill="#666666" stroke="#666666" stroke-width="2" d="M 151 164 L 238 164 L 238 272 L 151 272 L 151 164 Z " transform="matrix(1, 0, 0, 0.8545454740524292, 2, 41.7)"/>
  <path id="ID0.3604140281677246" fill="#00FF55" stroke="#00FF55" stroke-width="2" d="M 112 163 L 149 163 L 149 235 L 112 235 L 112 163 Z " transform="matrix(1, 0, 0, 0.7702702879905701, 2, 56.2)"/>
  <path id="ID0.853661245200783" fill="#00FF55" stroke="#00FF55" stroke-width="2" d="M 0 164 L 70 164 L 70 236 L 0 236 L 0 164 Z " transform="matrix(1.2222222089767456, 0, 0, 0.7702702283859253, 2, 55.45)"/>
  <path id="ID0.8355421363376081" fill="#FF0000" stroke="#FF0000" stroke-width="2" d="M 211 167 L 238 167 L 238 179 L 211 179 L 211 167 Z " transform="matrix(1, 0, 0, 1, 2, 2)"/>
  <path id="ID0.752986999694258" fill="#666666" stroke="#666666" stroke-width="2" d="M 23 0 L 37 0 L 37 115 L 23 115 L 23 0 Z " transform="matrix(1, 0, 0, 1, 21, 1)"/>
</svg>