<svg version="1.1" width="485" height="334" viewBox="-1 -1 485 334" xmlns="http://www.w3.org/2000/svg" xmlns:xlink="http://www.w3.org/1999/xlink">
  <!-- Exported by Scratch - http://scratch.mit.edu/ -->
  <g id="ID0.37467138562351465">
    <path id="ID0.3941869759000838" fill="none" stroke="#00FF55" stroke-width="2" stroke-linecap="round" d="M 0 30 L 416 86 " transform="matrix(1, 0, 0, 1, 1, -29)"/>
    <path id="ID0.3941869759000838" fill="none" stroke="#666666" stroke-width="2" stroke-linecap="round" d="M 0 30 L 416 86 " transform="matrix(1, 0, 0, 1, 3, -27)"/>
  </g>
  <g id="ID0.37467138562351465">
    <path id="ID0.3941869759000838" fill="none" stroke="#FFFF00" stroke-width="2" stroke-linecap="round" d="M 0 30 L 416 86 " transform="matrix(-1, 0, 0, 1, 482, 69)"/>
    <path id="ID0.3941869759000838" fill="none" stroke="#666666" stroke-width="2" stroke-linecap="round" d="M 0 30 L 416 86 " transform="matrix(-1, 0, 0, 1, 480, 71)"/>
  </g>
  <g id="ID0.37467138562351465" transform="matrix(-1, 0, 0, -1, 420, 478)">
    <path id="ID0.3941869759000838" fill="none" stroke="#00FF55" stroke-width="2" stroke-linecap="round" d="M 0 30 L 416 86 " transform="matrix(-1, 0, 0, -1, 419, 298)"/>
    <path id="ID0.3941869759000838" fill="none" stroke="#666666" stroke-width="2" stroke-linecap="round" d="M 0 30 L 416 86 " transform="matrix(-1, 0, 0, -1, 417, 296)"/>
  </g>
  <path id="ID0.5959346308372915" fill="none" stroke="#FFFF00" stroke-width="2" stroke-linecap="round" d="M 480 360 L 0 360 " transform="matrix(1, 0, 0, 1, 1, -31)"/>
  <path id="ID0.8179370863363147" fill="none" stroke="#FF00BF" stroke-width="2" stroke-linecap="round" d="M 0 258 L 0 360 " transform="matrix(1.201923131942749, 0, 0, 1.201923131942749, 2.2, -101.85)"/>
</svg>