<svg version="1.1" width="484" height="364" viewBox="-1 -1 484 364" xmlns="http://www.w3.org/2000/svg" xmlns:xlink="http://www.w3.org/1999/xlink">
  <!-- Exported by Scratch - http://scratch.mit.edu/ -->
  <path id="ID0.9949736562557518" fill="#666666" stroke="#666666" stroke-width="2" stroke-linecap="round" d="M 0 182 L 480 318 L 480 360 L 0 360 L 0 182 Z " transform="matrix(1, 0, 0, 1, 1, 1)"/>
  <path id="ID0.24535179883241653" fill="none" stroke="#FF00BF" stroke-width="2" stroke-linecap="round" d="M 480 0 L 480 360 " transform="matrix(1, 0, 0, 1, 1, 1)"/>
  <text id="ID0.23107117367908359" fill="#666666" x="101" y="129.25" text-anchor="start" font-family="Helvetica" font-size="22" transform="matrix(1, 0, 0, 1, 74, 9.15)">a very good place to start</text>
  <path id="ID0.17185578029602766" fill="#FF0000" stroke="#FF0000" stroke-width="2" d="M 195 217 L 268 217 L 268 360 L 195 360 L 195 217 Z " transform="matrix(1, 0, 0, 1, 1, 1)"/>
  <path id="ID0.46778652584180236" fill="none" stroke="#00FF55" stroke-width="2" stroke-linecap="round" d="M 39 191 L 183 233 " transform="matrix(1, 0, 0, 1, -17, -3)"/>
</svg>