<svg version="1.1" width="498" height="359" viewBox="-1 2 498 359" xmlns="http://www.w3.org/2000/svg" xmlns:xlink="http://www.w3.org/1999/xlink">
  <!-- Exported by Scratch - http://scratch.mit.edu/ -->
  <path id="ID0.7631645938381553" fill="#990000" stroke="#990000" stroke-width="2" d="M 0 332 L 474 332 L 474 360 L 0 360 L 0 332 Z " transform="matrix(1.042016863822937, 0, 0, 12.100001335144043, 2, -4005)"/>
  <path id="ID0.583235640078783" fill="#FF00BF" stroke="#FF00BF" stroke-width="2" d="M 409 202 C 417.553 202 425.303 205.922 430.914 212.258 C 436.526 218.594 440 227.344 440 237 C 440 246.656 436.526 255.406 430.914 261.742 C 425.303 268.078 417.553 272 409 272 C 400.447 272 392.697 268.078 387.086 261.742 C 381.474 255.406 378 246.656 378 237 C 378 227.344 381.474 218.594 387.086 212.258 C 392.697 205.922 400.447 202 409 202 Z " transform="matrix(1.359375, 0, 0, 1.359375, -136.45, -81.1)"/>
  <g id="ID0.17085466533899307" transform="matrix(2.0335135459899902, 0, 0, 2.0335135459899902, -289.5, -259.3)">
    <text id="ID0.6402531038038433" fill="#FFFFFF" x="171" y="306.25" text-anchor="start" font-family="Helvetica" font-size="22" transform="matrix(1, 0, 0, 1, 144, 129.15)">just realized</text>
    <text id="ID0.002009336370974779" fill="#FFFFFF" x="126" y="188.25" text-anchor="start" font-family="Helvetica" font-size="22" transform="matrix(1, 0, 0, 1, 143, 153.15)">we're on a trampoline</text>
    <text id="ID0.6223549032583833" fill="#FFFFFF" x="158" y="191.25" text-anchor="start" font-family="Helvetica" font-size="22" transform="matrix(1, 0, 0, 1, 148, 177.15)">jump or continue...</text>
  </g>
</svg>