<svg version="1.1" width="484" height="365" viewBox="-1 -1 484 365" xmlns="http://www.w3.org/2000/svg" xmlns:xlink="http://www.w3.org/1999/xlink">
  <!-- Exported by Scratch - http://scratch.mit.edu/ -->
  <text id="ID0.40305149741470814" fill="#006666" x="43" y="288.25" text-anchor="start" font-family="Scratch" font-size="22" transform="matrix(1, 0, 0, 1, 223, 3.1)">dark teal doubles your jump</text>
  <path id="ID0.24535179883241653" fill="none" stroke="#FF00BF" stroke-width="2" stroke-linecap="round" d="M 480 0 L 480 360 " transform="matrix(0.4917127192020416, 0, 0, 0.4917127192020416, 244.15, 0.5)"/>
  <path id="ID0.2988896807655692" fill="#666666" stroke="#666666" stroke-width="2" stroke-linecap="round" d="M 268 176 L 480 176 L 480 360 L 268 176 Z " transform="matrix(1, 0, 0, 1, 1, 1)"/>
  <path id="ID0.5574154700152576" fill="#666666" stroke="#666666" stroke-width="2" d="M 0 297 L 480 297 L 480 353 L 0 353 L 0 297 Z " transform="matrix(1, 0, 0, 0.7758620977401733, 1, 87.3)"/>
  <path id="ID0.8621099377050996" fill="#006666" stroke="#006666" stroke-width="2" d="M 221 50 L 252 50 L 252 272 L 221 272 L 221 50 Z " transform="matrix(1, 0, 0, 1.1919642686843872, 1, -7.4)"/>
</svg>