<svg version="1.1" width="484" height="364" viewBox="-1 -1 484 364" xmlns="http://www.w3.org/2000/svg" xmlns:xlink="http://www.w3.org/1999/xlink">
  <!-- Exported by Scratch - http://scratch.mit.edu/ -->
  <path id="ID0.68498415639624" fill="none" stroke="#FF00BF" stroke-width="2" stroke-linecap="round" d="M 479 0 L 479 360 " transform="matrix(1, 0, 0, 1, 2, 1)"/>
  <path id="ID0.001329914666712284" fill="#666666" stroke="#FF00BF" stroke-width="2" d="M 49 0 L 70 0 L 70 200 L 49 200 L 49 0 Z " transform="matrix(1, 0, 0, 1, -4, 1)"/>
  <path id="ID0.07622874062508345" fill="#666666" stroke="#666666" stroke-width="2" d="M 0 306 L 67 306 L 67 360 L 0 360 L 0 306 Z " transform="matrix(1, 0, 0, 1, 1, 1)"/>
  <path id="ID0.07622874062508345" fill="#666666" stroke="#666666" stroke-width="2" d="M 0 306 L 67 306 L 67 360 L 0 360 L 0 306 Z " transform="matrix(1, 0, 0, 1, 112.5, -16)"/>
  <path id="ID0.2811604868620634" fill="#FF99E5" stroke="#FF99E5" stroke-width="2" d="M 0 318 L 480 318 L 480 360 L 0 360 L 0 318 Z " transform="matrix(1, 0, 0, 1, 1, 1)"/>
  <path id="ID0.07622874062508345" fill="#666666" stroke="#666666" stroke-width="2" d="M 0 306 L 67 306 L 67 360 L 0 360 L 0 306 Z " transform="matrix(1, 0, 0, 1, 218.5, -65)"/>
  <path id="ID0.07622874062508345" fill="#666666" stroke="#666666" stroke-width="2" d="M 0 306 L 67 306 L 67 360 L 0 360 L 0 306 Z " transform="matrix(1, 0, 0, 1, 370.5, -134)"/>
  <text id="ID0.6264006965793669" fill="#FF00BF" x="72" y="27.7" text-anchor="start" font-family="Scratch" font-size="22" transform="matrix(1, 0, 0, 1, 71, 12.5)">death makes you go back to #1 here</text>
  <text id="ID0.9770716610364616" fill="#FF00BF" x="75" y="57.7" text-anchor="start" font-family="Scratch" font-size="22" transform="matrix(1, 0, 0, 1, 74, 41.5)">but you can skip here.</text>
</svg>