<svg version="1.1" width="250" height="271" viewBox="-1 -1 250 271" xmlns="http://www.w3.org/2000/svg" xmlns:xlink="http://www.w3.org/1999/xlink">
  <!-- Exported by Scratch - http://scratch.mit.edu/ -->
  <path id="ID0.27371324924752116" fill="none" stroke="#666666" stroke-width="7" d="M 242 95 L 428 95 L 428 240 L 242 240 L 242 95 Z " transform="matrix(1, 0, 0, 1, -200.5, -91.5)"/>
  <path id="ID0.7586175920441747" fill="none" stroke="#666666" stroke-width="11" d="M 86 154 L 409 154 L 409 261 L 86 261 L 86 154 Z " transform="matrix(0.4084012508392334, 0, 0, 0.4084012508392334, 33.3, 19.5)"/>
  <text id="ID0.29796491051092744" fill="#666666" x="93" y="171.7" text-anchor="start" font-family="Scratch" font-size="22" transform="matrix(0.35338345170021057, 0, 0, 0.35338345170021057, 160.75, 19.5)">that's all for now</text>
  <text id="ID0.29796491051092744" fill="#666666" x="93" y="171.7" text-anchor="start" font-family="Scratch" font-size="22" transform="matrix(0.35338345170021057, 0, 0, 0.35338345170021057, 166.5, 28)">check back later</text>
  <path id="ID0.4673073668964207" fill="#FF00BF" stroke="#FF00BF" stroke-width="2" d="M 444 332 L 466 332 L 466 353 L 444 353 L 444 332 Z " transform="matrix(0.8450473546981812, 0, 0, 0.8450473546981812, -202.05, -178.1)"/>
  <path id="ID0.7902810391969979" fill="#FFFFFF" stroke="none" d="M 221 235 L 261 235 L 261 283 L 221 283 L 221 235 Z " transform="matrix(0.524552047252655, 0, 0, 0.4084012508392334, 11.05, 21.4)"/>
  <text id="ID0.8522529574111104" fill="#666666" x="340" y="217.7" text-anchor="start" font-family="Scratch" font-size="22" transform="matrix(0.35338345170021057, 0, 0, 0.35338345170021057, 167.25, 89.8)">try WIP:</text>
  <text id="ID0.23788912873715162" fill="#666666" x="67" y="216.7" text-anchor="start" font-family="Scratch" font-size="22" transform="matrix(0.35338345170021057, 0, 0, 0.35338345170021057, 74.1, 90.5)">restart:</text>
  <path id="ID0.4673073668964207" fill="#FF99E5" stroke="#FF99E5" stroke-width="2" d="M 444 332 L 466 332 L 466 353 L 444 353 L 444 332 Z " transform="matrix(0.8450473546981812, 0, 0, 0.8450473546981812, -298.3, -178.4)"/>
  <path id="ID0.8856551782228053" fill="none" stroke="#FFCCF2" stroke-width="2" stroke-linecap="round" d="M 414 170 L 347 170 " transform="matrix(0.35338345170021057, 0, 0, 0.35338345170021057, 47.9, 19.65)"/>
  <text id="ID0.6355927190743387" fill="#666666" x="369" y="140.7" text-anchor="start" font-family="Scratch" font-size="22" transform="matrix(0.35338345170021057, 0, 0, 0.35338345170021057, 171.75, 62.55)">previous:</text>
  <g id="ID0.7382380552589893" transform="matrix(1, 0, 0, 1, 0, -1)">
    <path id="ID0.2896543093957007" fill="#666666" stroke="#666666" stroke-width="2" d="M 322 242 L 345 242 L 345 261 L 322 261 L 322 242 Z " transform="matrix(1, 0, 0, 1, -196, -93)"/>
    <path id="ID0.8813993455842137" fill="#666666" stroke="#666666" stroke-width="2" d="M 313 255 L 354 255 L 354 267 L 313 267 L 313 255 Z " transform="matrix(1, 0, 0, 1, -196, -93)"/>
  </g>
  <path id="ID0.12950998870655894" fill="#666666" stroke="#666666" stroke-width="7" d="M 201 263 L 442 263 L 442 360 L 201 360 L 201 263 Z " transform="matrix(1, 0, 0, 0.9230769276618958, -197, -66.1)"/>
  <path id="ID0.35295455483719707" fill="#6D6D6D" stroke="#6D6D6D" stroke-width="7" d="M 325 239 L 341 239 L 341 324.500 L 325 324.500 L 325 239 Z " transform="matrix(1, 0, 0, 1, -196, -90.5)"/>
  <path id="ID0.7507906467653811" fill="#6D6D6D" stroke="#6D6D6D" stroke-width="7" d="M 329 301 L 445 301 L 445 330 L 329 330 L 329 301 Z " transform="matrix(0.9756097793579102, 0, 0, 1, -189.2, -94)"/>
</svg>