<svg version="1.1" width="484" height="300" viewBox="-1 -1 484 300" xmlns="http://www.w3.org/2000/svg" xmlns:xlink="http://www.w3.org/1999/xlink">
  <!-- Exported by Scratch - http://scratch.mit.edu/ -->
  <g id="ID0.4566542091779411">
    <path id="ID0.27371324924752116" fill="none" stroke="#666666" stroke-width="7" d="M 242 95 L 428 95 L 428 240 L 242 240 L 242 95 Z " transform="matrix(0.21370968222618103, 0, 0, 0.21370968222618103, 155.1, 11.45)"/>
    <path id="ID0.7586175920441747" fill="none" stroke="#666666" stroke-width="11" d="M 86 154 L 409 154 L 409 261 L 86 261 L 86 154 Z " transform="matrix(0.0872793048620224, 0, 0, 0.0872793048620224, 205.05, 35.2)"/>
    <text id="ID0.29796491051092744" fill="#666666" x="93" y="171.7" text-anchor="start" font-family="Scratch" font-size="22" transform="matrix(0.07552146166563034, 0, 0, 0.07552146166563034, 232.3, 35.2)">that's all for now</text>
    <text id="ID0.29796491051092744" fill="#666666" x="93" y="171.7" text-anchor="start" font-family="Scratch" font-size="22" transform="matrix(0.07552146166563034, 0, 0, 0.07552146166563034, 233.5, 37)">check back later</text>
    <path id="ID0.4673073668964207" fill="#FF00BF" stroke="#FF00BF" stroke-width="2" d="M 444 332 L 466 332 L 466 353 L 444 353 L 444 332 Z " transform="matrix(0.180594801902771, 0, 0, 0.180594801902771, 154.75, -7)"/>
    <path id="ID0.7902810391969979" fill="#FFFFFF" stroke="none" d="M 221 235 L 261 235 L 261 283 L 221 283 L 221 235 Z " transform="matrix(0.11210185289382935, 0, 0, 0.0872793048620224, 200.3, 35.6)"/>
    <text id="ID0.8522529574111104" fill="#666666" x="340" y="217.7" text-anchor="start" font-family="Scratch" font-size="22" transform="matrix(0.07552146166563034, 0, 0, 0.07552146166563034, 233.65, 50.2)">try WIP:</text>
    <text id="ID0.23788912873715162" fill="#666666" x="67" y="216.7" text-anchor="start" font-family="Scratch" font-size="22" transform="matrix(0.07552146166563034, 0, 0, 0.07552146166563034, 213.75, 50.35)">restart:</text>
    <path id="ID0.4673073668964207" fill="#FF99E5" stroke="#FF99E5" stroke-width="2" d="M 444 332 L 466 332 L 466 353 L 444 353 L 444 332 Z " transform="matrix(0.180594801902771, 0, 0, 0.180594801902771, 134.2, -7.05)"/>
    <path id="ID0.8856551782228053" fill="none" stroke="#FFCCF2" stroke-width="2" stroke-linecap="round" d="M 414 170 L 347 170 " transform="matrix(0.07552146166563034, 0, 0, 0.07552146166563034, 208.15, 35.2)"/>
    <text id="ID0.6355927190743387" fill="#666666" x="369" y="140.7" text-anchor="start" font-family="Scratch" font-size="22" transform="matrix(0.07552146166563034, 0, 0, 0.07552146166563034, 234.65, 44.4)">previous:</text>
    <g id="ID0.7382380552589893">
      <path id="ID0.2896543093957007" fill="#666666" stroke="#666666" stroke-width="2" d="M 322 242 L 345 242 L 345 261 L 322 261 L 322 242 Z " transform="matrix(0.21370968222618103, 0, 0, 0.21370968222618103, 156.05, 10.95)"/>
      <path id="ID0.8813993455842137" fill="#666666" stroke="#666666" stroke-width="2" d="M 313 255 L 354 255 L 354 267 L 313 267 L 313 255 Z " transform="matrix(0.21370968222618103, 0, 0, 0.21370968222618103, 156.05, 10.95)"/>
    </g>
    <path id="ID0.12950998870655894" fill="#666666" stroke="#666666" stroke-width="7" d="M 201 263 L 442 263 L 442 360 L 201 360 L 201 263 Z " transform="matrix(0.21370968222618103, 0, 0, 0.1972704827785492, 155.85, 16.9)"/>
    <path id="ID0.35295455483719707" fill="#6D6D6D" stroke="#6D6D6D" stroke-width="7" d="M 325 239 L 341 239 L 341 324.500 L 325 324.500 L 325 239 Z " transform="matrix(0.21370968222618103, 0, 0, 0.21370968222618103, 156.05, 11.65)"/>
    <path id="ID0.7507906467653811" fill="#6D6D6D" stroke="#6D6D6D" stroke-width="7" d="M 329 301 L 445 301 L 445 330 L 329 330 L 329 301 Z " transform="matrix(0.20849725604057312, 0, 0, 0.21370968222618103, 157.5, 10.95)"/>
  </g>
  <path id="ID0.04264548281207681" fill="none" stroke="#666666" stroke-width="2" d="M 166 64 L 284 64 L 284 171 L 166 171 L 166 64 Z " transform="matrix(1, 0, 0, 1, 1, -63)"/>
  <text id="ID0.2291956632398069" fill="#666666" x="346" y="106.25" text-anchor="start" font-family="Helvetica" font-size="22" transform="matrix(3.569277048110962, 0, 0, 3.569277048110962, 210, 109.5)">hurry</text>
  <path id="ID0.8858928899280727" fill="#FF0000" stroke="#FF0000" stroke-width="2" d="M 0 339 L 480 339 L 480 360 L 0 360 L 0 339 Z " transform="matrix(1, 0, 0, 1, 1, -63)"/>
  <path id="ID0.9497872632928193" fill="none" stroke="#666666" stroke-width="2" stroke-linecap="round" d="M 7 272 L 7.300 272.300 " transform="matrix(1, 0, 0, 1, 1, -63)"/>
  <path id="ID0.7242588326334953" fill="none" stroke="#FF0000" stroke-width="2" stroke-linecap="round" d="M 222 195 C 222 195 234 195 234 195 " transform="matrix(1, 0, 0, 1, 1, -63)"/>
  <path id="ID0.6198914963752031" fill="none" stroke="#FF00BF" stroke-width="2" stroke-linecap="round" d="M 449 147 L 449.300 147.300 " transform="matrix(1, 0, 0, 1, 1, -63)"/>
</svg>