<svg version="1.1" width="484" height="362" viewBox="-1 -1 484 362" xmlns="http://www.w3.org/2000/svg" xmlns:xlink="http://www.w3.org/1999/xlink">
  <!-- Exported by Scratch - http://scratch.mit.edu/ -->
  <path id="ID0.8858928899280727" fill="#FF0000" stroke="#FF0000" stroke-width="2" d="M 0 339 L 480 339 L 480 360 L 0 360 L 0 339 Z " transform="matrix(1, 0, 0, 1, 1, 0)"/>
  <path id="ID0.9497872632928193" fill="none" stroke="#666666" stroke-width="2" stroke-linecap="round" d="M 7 272 L 7.300 272.300 " transform="matrix(1, 0, 0, 1, 1, 0)"/>
  <path id="ID0.49908124655485153" fill="#00FFFF" stroke="#00FFFF" stroke-width="1" d="M 171 224 L 250 224 L 250 281 L 171 281 L 171 224 Z " transform="matrix(1, 0, 0, 1, 1, 0)"/>
  <path id="ID0.4390715383924544" fill="#00FFFF" stroke="#00FFFF" stroke-width="1" d="M 262 168 L 308 168 L 308 223 L 262 223 L 262 168 Z " transform="matrix(1, 0, 0, 1, 1, 0)"/>
  <path id="ID0.13265112042427063" fill="#00FFFF" stroke="#00FFFF" stroke-width="1" d="M 301 113 L 347 113 L 347 158 L 301 158 L 301 113 Z " transform="matrix(1, 0, 0, 1, 1, 0)"/>
  <path id="ID0.3555962690152228" fill="#00FFFF" stroke="#00FFFF" stroke-width="1" d="M 249 76 L 296 76 L 296 117 L 249 117 L 249 76 Z " transform="matrix(1, 0, 0, 1, 1, 0)"/>
  <path id="ID0.9789681951515377" fill="#00FFFF" stroke="#00FFFF" stroke-width="1" d="M 204 38 L 247 38 L 247 97 L 204 97 L 204 38 Z " transform="matrix(1, 0, 0, 1, 1, 0)"/>
  <path id="ID0.18397563276812434" fill="#00FFFF" stroke="#00FFFF" stroke-width="1" d="M 184 45 L 201 45 L 201 77 L 184 77 L 184 45 Z " transform="matrix(1, 0, 0, 1, 1, 0)"/>
  <path id="ID0.42325632739812136" fill="#00FFFF" stroke="#00FFFF" stroke-width="1" d="M 144 9 L 181 9 L 181 57 L 144 57 L 144 9 Z " transform="matrix(1, 0, 0, 1, 1, 0)"/>
  <path id="ID0.22529893787577748" fill="none" stroke="#FF00BF" stroke-width="1" stroke-linecap="round" d="M 480 0 L 0 0 " transform="matrix(1, 0, 0, 1, 1, 1)"/>
  <text id="ID0.3388992785476148" fill="#666666" x="177" y="308.7" text-anchor="start" font-family="Scratch" font-size="22" transform="matrix(1, 0, 0, 1, 176, 291.5)">get back to level 1 fast</text>
</svg>