<svg version="1.1" width="386" height="287" viewBox="1 0 386 287" xmlns="http://www.w3.org/2000/svg" xmlns:xlink="http://www.w3.org/1999/xlink">
  <!-- Exported by Scratch - http://scratch.mit.edu/ -->
  <text id="ID0.3419886603951454" fill="#666666" x="101" y="196.7" text-anchor="start" font-family="Scratch" font-size="22" transform="matrix(1, 0, 0, 1, 0, 100.5)">this is it</text>
  <text id="ID0.27452412573620677" fill="#666666" x="181" y="246.7" text-anchor="start" font-family="Scratch" font-size="22" transform="matrix(1, 0, 0, 1, 101.5, 51.5)">flip the switch</text>
  <text id="ID0.1549143986776471" fill="#666666" x="256" y="294.7" text-anchor="start" font-family="Scratch" font-size="22" transform="matrix(1, 0, 0, 1, 224, 5.5)">save the narration</text>
  <path id="ID0.9732642965391278" fill="none" stroke="#FF0000" stroke-width="3" d="M 106.500 281 L 203 281 L 203 360 L 106.500 360 L 106.500 281 Z " transform="matrix(0.7096610069274902, 0, 0, 1.3239243030548096, -45.7, -191.25)"/>
  <path id="ID0.6646047690883279" fill="#FF00BF" stroke="#FF00BF" stroke-width="1" d="M 138 336 L 181.500 336 L 181.500 360 L 138 360 L 138 336 Z " transform="matrix(1, 0, 0, 1, -99, -79)"/>
  <path id="ID0.8757009645923972" fill="#FF00BF" stroke="#FF00BF" stroke-width="1" d="M 154.500 294.500 L 168.500 294.500 L 168.500 348 L 154.500 348 L 154.500 294.500 Z " transform="matrix(1, 0, 0, 1, -99, -79)"/>
  <path id="ID0.4225285588763654" fill="none" stroke="#FF00BF" stroke-width="3" stroke-linecap="round" d="M 468.500 0.500 L 468.800 0.800 " transform="matrix(1, 0, 0, 2.7272727489471436, -85, 3.25)"/>
</svg>