<svg version="1.1" width="484" height="364" viewBox="-1 -1 484 364" xmlns="http://www.w3.org/2000/svg" xmlns:xlink="http://www.w3.org/1999/xlink">
  <!-- Exported by Scratch - http://scratch.mit.edu/ -->
  <path id="ID0.9949736562557518" fill="#666666" stroke="#666666" stroke-width="2" stroke-linecap="round" d="M 0 182 L 480 318 L 480 360 L 0 360 L 0 182 Z " transform="matrix(1, 0, 0, 1, 1, 1)"/>
  <text id="ID0.40305149741470814" fill="#666666" x="43" y="288.25" text-anchor="start" font-family="Scratch" font-size="22" transform="matrix(1, 0, 0, 1, 160, 3.1)">gray does nothing but keep you up</text>
  <text id="ID0.7460749852471054" fill="#FF00BF" x="45" y="326.7" text-anchor="start" font-family="Scratch" font-size="22" transform="matrix(1, 0, 0, 1, 19, 322.5)">pink teleports you to the next level, yup.</text>
  <path id="ID0.24535179883241653" fill="none" stroke="#FF00BF" stroke-width="2" stroke-linecap="round" d="M 480 0 L 480 360 " transform="matrix(1, 0, 0, 1, 1, 1)"/>
  <text id="ID0.28945019375532866" fill="#666666" x="205" y="142.7" text-anchor="start" font-family="Scratch" font-size="22" transform="matrix(1, 0, 0, 1, 204, 126.5)">yay you did it</text>
  <text id="ID0.9632745869457722" fill="#666666" x="271" y="186.7" text-anchor="start" font-family="Scratch" font-size="22" transform="matrix(1, 0, 0, 1, 270, 170.5)">horray for you!</text>
  <text id="ID0.7191691170446575" fill="#666666" x="318" y="227.7" text-anchor="start" font-family="Scratch" font-size="22" transform="matrix(1, 0, 0, 1, 317, 211.5)">you're awesome</text>
  <text id="ID0.16806620126590133" fill="#FF0000" x="377" y="267.7" text-anchor="start" font-family="Scratch" font-size="22" transform="matrix(1, 0, 0, 1, 376, 247.5)">fix me too</text>
</svg>