<svg version="1.1" width="484" height="416" viewBox="-1 -1 484 416" xmlns="http://www.w3.org/2000/svg" xmlns:xlink="http://www.w3.org/1999/xlink">
  <!-- Exported by Scratch - http://scratch.mit.edu/ -->
  <path id="ID0.9949736562557518" fill="#FF0000" stroke="#FF0000" stroke-width="2" stroke-linecap="round" d="M 0 182 L 480 318 L 480 360 L 0 360 L 0 182 Z " transform="matrix(1, 0, 0, 1, 1, 54)"/>
  <path id="ID0.24535179883241653" fill="none" stroke="#FF00BF" stroke-width="2" stroke-linecap="round" d="M 480 0 L 480 360 " transform="matrix(1, 0, 0, 1, 1, 54)"/>
  <text id="ID0.8414447633549571" fill="#666666" x="137" y="115.7" text-anchor="start" font-family="Scratch" font-size="22" transform="matrix(1, 0, 0, 1, 136, 152.5)">and so they held a party</text>
  <text id="ID0.6499507934786379" fill="#666666" x="274" y="138.7" text-anchor="start" font-family="Scratch" font-size="22" transform="matrix(1, 0, 0, 1, 273, 175.5)">with all the colors</text>
  <path id="ID0.04441532678902149" fill="none" stroke="#FF0000" stroke-width="3" stroke-linecap="round" d="M 115 0 L 116 144 " transform="matrix(1, 0, 0, 1, -44, 2)"/>
  <path id="ID0.4093824583105743" fill="none" stroke="#666666" stroke-width="9" stroke-linecap="round" d="M 33 180 L 33.300 180.300 " transform="matrix(1, 0, 0, 1, 1, 54)"/>
  <path id="ID0.18500133324414492" fill="none" stroke="#666666" stroke-width="9" stroke-linecap="round" d="M 84 198 L 84.300 198.300 " transform="matrix(1, 0, 0, 1, 1, 54)"/>
  <path id="ID0.8667658409103751" fill="none" stroke="#666666" stroke-width="9" stroke-linecap="round" d="M 142 212 L 142.300 212.300 " transform="matrix(1, 0, 0, 1, -4, 59)"/>
  <path id="ID0.8907436183653772" fill="none" stroke="#666666" stroke-width="9" stroke-linecap="round" d="M 205 225 L 205.300 225.300 " transform="matrix(1, 0, 0, 1, -6, 63)"/>
  <path id="ID0.8096660519950092" fill="none" stroke="#666666" stroke-width="9" stroke-linecap="round" d="M 268 248 L 268.300 248.300 " transform="matrix(1, 0, 0, 1, -3, 60)"/>
  <path id="ID0.45433325972408056" fill="none" stroke="#666666" stroke-width="9" stroke-linecap="round" d="M 332 266 L 332.300 266.300 " transform="matrix(1, 0, 0, 1, -11, 60)"/>
  <path id="ID0.1875742319971323" fill="none" stroke="#666666" stroke-width="9" stroke-linecap="round" d="M 391 283 L 391.300 283.300 " transform="matrix(1, 0, 0, 1, -19, 55)"/>
  <path id="ID0.11800978286191821" fill="none" stroke="#666666" stroke-width="9" stroke-linecap="round" d="M 464 304 L 464.300 304.300 " transform="matrix(1, 0, 0, 1, -39, 49)"/>
  <path id="ID0.11800978286191821" fill="none" stroke="#666666" stroke-width="9" stroke-linecap="round" d="M 464 304 L 464.300 304.300 " transform="matrix(1, 0, 0, 1, 7.2, 62.2)"/>
</svg>