<svg version="1.1" width="481" height="369" viewBox="-1 -1 481 369" xmlns="http://www.w3.org/2000/svg" xmlns:xlink="http://www.w3.org/1999/xlink">
  <!-- Exported by Scratch - http://scratch.mit.edu/ -->
  <path id="ID0.24574541160836816" fill="#00FFFF" stroke="#00FFFF" stroke-width="2" d="M 0 0 L 480 0 L 480 360 L 0 360 L 0 0 Z " transform="matrix(0.9957468509674072, 0, 0, 0.9834169745445251, 1, 8.4)"/>
  <path id="ID0.24535179883241653" fill="none" stroke="#FF00BF" stroke-width="2" stroke-linecap="round" d="M 480 0 L 480 360 " transform="matrix(0.4917127192020416, 0, 0, -0.4917127192020416, 240.25, 367.7)"/>
  <path id="ID0.2988896807655692" fill="#666666" stroke="#666666" stroke-width="2" stroke-linecap="round" d="M 268 176 L 480 176 L 480 360 L 268 176 Z " transform="matrix(1, 0, 0, -1, -3, 367.2)"/>
  <path id="ID0.5574154700152576" fill="#666666" stroke="#666666" stroke-width="2" d="M 0 297 L 480 297 L 480 353 L 0 353 L 0 297 Z " transform="matrix(0.8921161890029907, 0, 0, -0.7758620977401733, 49.85, 274.95)"/>
  <text id="ID0.40305149741470814" fill="#00FFFF" x="43" y="288.25" text-anchor="start" font-family="Scratch" font-size="22" transform="matrix(1, 0, 0, 1, 133, 14.75)">teal simulates anti-gravity</text>
  <path id="ID0.7068250584416091" fill="#006666" stroke="#006666" stroke-width="2" d="M 212 40 L 256 40 L 256 245 L 212 245 L 212 40 Z " transform="matrix(0.15217390656471252, 0, 0, 1.2463767528533936, 215.05, -4.6)"/>
</svg>