<svg version="1.1" width="484" height="361" viewBox="-1 2 484 361" xmlns="http://www.w3.org/2000/svg" xmlns:xlink="http://www.w3.org/1999/xlink">
  <!-- Exported by Scratch - http://scratch.mit.edu/ -->
  <path id="ID0.9949736562557518" fill="#666666" stroke="#666666" stroke-width="2" stroke-linecap="round" d="M 0 182 L 480 318 L 480 360 L 0 360 L 0 182 Z " transform="matrix(1, 0, 0, 1, 1, 0)"/>
  <path id="ID0.24535179883241653" fill="none" stroke="#FF00BF" stroke-width="2" stroke-linecap="round" d="M 480 0 L 480 360 " transform="matrix(0.1270718276500702, 0, 0, 0.1270718276500702, 419.6, 317.6)"/>
  <text id="ID0.704382530413568" fill="#99B2FF" x="144" y="19.7" text-anchor="start" font-family="Scratch" font-size="22" transform="matrix(1, 0, 0, 1, 244, 0.5)">hmm... that is suspicious.</text>
  <path id="ID0.118229690939188" fill="none" stroke="#99B2FF" stroke-width="15" stroke-linecap="round" d="M 472 347 L 453 334 L 432 344 L 406 316 L 384 346 L 218 344 L 231 306 L 349 327 L 376 309 L 219 276 L 172 344 L 141 321 L 97 346 L 41 311 L 152 297 L 38 273 L 41 195 " transform="matrix(1, 0, 0, 1, 1, -1)"/>
</svg>