<svg version="1.1" width="496" height="239" viewBox="-1 -1 496 239" xmlns="http://www.w3.org/2000/svg" xmlns:xlink="http://www.w3.org/1999/xlink">
  <!-- Exported by Scratch - http://scratch.mit.edu/ -->
  <path id="ID0.9949736562557518" fill="#666666" stroke="#666666" stroke-width="2" stroke-linecap="round" d="M 0 182 L 480 318 L 480 360 L 0 360 L 0 182 Z " transform="matrix(1, 0, 0, 1, 8, -127)"/>
  <path id="ID0.24535179883241653" fill="none" stroke="#FF00BF" stroke-width="2" stroke-linecap="round" d="M 480 0 L 480 360 " transform="matrix(0.1270718276500702, 0, 0, 0.1270718276500702, 426.6, 190.6)"/>
  <path id="ID0.5087097832001746" fill="none" stroke="#99B2FF" stroke-width="15" stroke-linecap="round" d="M 199 239 L 197 314 " transform="matrix(1, 0, 0, 1, 8, -127)"/>
  <path id="ID0.8976245038211346" fill="none" stroke="#99B2FF" stroke-width="15" stroke-linecap="round" d="M 376 349 L 473 352 " transform="matrix(1, 0, 0, 1, 8, -127)"/>
  <path id="ID0.012215732131153345" fill="#99B2FF" stroke="#99B2FF" stroke-width="15" d="M 56 311 L 370 311 L 370 349 L 56 349 L 56 311 Z " transform="matrix(1, 0, 0, 1, 8, -127)"/>
  <path id="ID0.8314267797395587" fill="none" stroke="#FF0000" stroke-width="15" stroke-linecap="round" d="M 226 357 L 265 357 " transform="matrix(1, 0, 0, 1, 8, -127)"/>
  <path id="ID0.2612177385017276" fill="none" stroke="#FFFF00" stroke-width="15" stroke-linecap="round" d="M 403 291 L 236 243 " transform="matrix(1, 0, 0, 1, 8, -127)"/>
  <path id="ID0.21969317318871617" fill="none" stroke="#666666" stroke-width="15" stroke-linecap="round" d="M 0 135 L 411 135 " transform="matrix(1, 0, 0, 1, 8, -127)"/>
  <path id="ID0.6848255884833634" fill="none" stroke="#FF0000" stroke-width="15" stroke-linecap="round" d="M 415 300 L 479 319 " transform="matrix(1, 0, 0, 1, 8, -127)"/>
  <path id="ID0.6767701185308397" fill="none" stroke="#666666" stroke-width="3" stroke-linecap="round" d="M 79 333 L 210 330 L 215 299 " transform="matrix(1, 0, 0, 1, 8, -127)"/>
  <path id="ID0.80697748856619" fill="none" stroke="#FFFF00" stroke-width="3" stroke-linecap="round" d="M 202 327 L 85 330 " transform="matrix(1, 0, 0, 1, 8, -130)"/>
</svg>