<svg version="1.1" width="490" height="364" viewBox="-1 -1 490 364" xmlns="http://www.w3.org/2000/svg" xmlns:xlink="http://www.w3.org/1999/xlink">
  <!-- Exported by Scratch - http://scratch.mit.edu/ -->
  <path id="ID0.9949736562557518" fill="#666666" stroke="#666666" stroke-width="2" stroke-linecap="round" d="M 0 182 L 480 318 L 480 360 L 0 360 L 0 182 Z " transform="matrix(1, 0, 0, 1, 8, 1)"/>
  <path id="ID0.24535179883241653" fill="none" stroke="#FF00BF" stroke-width="2" stroke-linecap="round" d="M 480 0 L 480 360 " transform="matrix(1, 0, 0, 1, 8, 1)"/>
  <text id="ID0.5928851733915508" fill="#FF0000" x="52" y="261.25" text-anchor="start" font-family="Helvetica" font-size="22" transform="matrix(2.133207082748413, 0, 0, 2.3133444786071777, 46, 3.25)">I'm now on GitHub!</text>
  <path id="ID0.9320525843650103" fill="#FF0000" stroke="#FF0000" stroke-width="15" d="M 117.500 200 C 119.845 200 121.970 200.952 123.509 202.491 C 125.048 204.030 126 206.155 126 208.500 C 126 210.845 125.048 212.970 123.509 214.509 C 121.970 216.048 119.845 217 117.500 217 C 115.155 217 113.030 216.048 111.491 214.509 C 109.952 212.970 109 210.845 109 208.500 C 109 206.155 109.952 204.030 111.491 202.491 C 113.030 200.952 115.155 200 117.500 200 Z " transform="matrix(1, 0, 0, 1, 174, 4)"/>
  <path id="ID0.9320525843650103" fill="#FF0000" stroke="#FF0000" stroke-width="15" d="M 117.500 200 C 119.845 200 121.970 200.952 123.509 202.491 C 125.048 204.030 126 206.155 126 208.500 C 126 210.845 125.048 212.970 123.509 214.509 C 121.970 216.048 119.845 217 117.500 217 C 115.155 217 113.030 216.048 111.491 214.509 C 109.952 212.970 109 210.845 109 208.500 C 109 206.155 109.952 204.030 111.491 202.491 C 113.030 200.952 115.155 200 117.500 200 Z " transform="matrix(1, 0, 0, 1, 191.5, -123.5)"/>
  <path id="ID0.9320525843650103" fill="#FF0000" stroke="#FF0000" stroke-width="15" d="M 117.500 200 C 119.845 200 121.970 200.952 123.509 202.491 C 125.048 204.030 126 206.155 126 208.500 C 126 210.845 125.048 212.970 123.509 214.509 C 121.970 216.048 119.845 217 117.500 217 C 115.155 217 113.030 216.048 111.491 214.509 C 109.952 212.970 109 210.845 109 208.500 C 109 206.155 109.952 204.030 111.491 202.491 C 113.030 200.952 115.155 200 117.500 200 Z " transform="matrix(1, 0, 0, 1, 229, -72)"/>
  <path id="ID0.9320525843650103" fill="#FF0000" stroke="#FF0000" stroke-width="15" d="M 117.500 200 C 119.845 200 121.970 200.952 123.509 202.491 C 125.048 204.030 126 206.155 126 208.500 C 126 210.845 125.048 212.970 123.509 214.509 C 121.970 216.048 119.845 217 117.500 217 C 115.155 217 113.030 216.048 111.491 214.509 C 109.952 212.970 109 210.845 109 208.500 C 109 206.155 109.952 204.030 111.491 202.491 C 113.030 200.952 115.155 200 117.500 200 Z " transform="matrix(1, 0, 0, 1, 87.5, 10.5)"/>
  <path id="ID0.9320525843650103" fill="#FF0000" stroke="#FF0000" stroke-width="15" d="M 117.500 200 C 119.845 200 121.970 200.952 123.509 202.491 C 125.048 204.030 126 206.155 126 208.500 C 126 210.845 125.048 212.970 123.509 214.509 C 121.970 216.048 119.845 217 117.500 217 C 115.155 217 113.030 216.048 111.491 214.509 C 109.952 212.970 109 210.845 109 208.500 C 109 206.155 109.952 204.030 111.491 202.491 C 113.030 200.952 115.155 200 117.500 200 Z " transform="matrix(1, 0, 0, 1, 26.5, -65.5)"/>
  <path id="ID0.9320525843650103" fill="#FF0000" stroke="#FF0000" stroke-width="15" d="M 117.500 200 C 119.845 200 121.970 200.952 123.509 202.491 C 125.048 204.030 126 206.155 126 208.500 C 126 210.845 125.048 212.970 123.509 214.509 C 121.970 216.048 119.845 217 117.500 217 C 115.155 217 113.030 216.048 111.491 214.509 C 109.952 212.970 109 210.845 109 208.500 C 109 206.155 109.952 204.030 111.491 202.491 C 113.030 200.952 115.155 200 117.500 200 Z " transform="matrix(1, 0, 0, 1, 66, -130)"/>
  <path id="ID0.9320525843650103" fill="#FF0000" stroke="#FF0000" stroke-width="15" d="M 117.500 200 C 119.845 200 121.970 200.952 123.509 202.491 C 125.048 204.030 126 206.155 126 208.500 C 126 210.845 125.048 212.970 123.509 214.509 C 121.970 216.048 119.845 217 117.500 217 C 115.155 217 113.030 216.048 111.491 214.509 C 109.952 212.970 109 210.845 109 208.500 C 109 206.155 109.952 204.030 111.491 202.491 C 113.030 200.952 115.155 200 117.500 200 Z " transform="matrix(1, 0, 0, 1, 160.5, -48.5)"/>
  <path id="ID0.9320525843650103" fill="#FF0000" stroke="#FF0000" stroke-width="15" d="M 117.500 200 C 119.845 200 121.970 200.952 123.509 202.491 C 125.048 204.030 126 206.155 126 208.500 C 126 210.845 125.048 212.970 123.509 214.509 C 121.970 216.048 119.845 217 117.500 217 C 115.155 217 113.030 216.048 111.491 214.509 C 109.952 212.970 109 210.845 109 208.500 C 109 206.155 109.952 204.030 111.491 202.491 C 113.030 200.952 115.155 200 117.500 200 Z " transform="matrix(1, 0, 0, 1, 260.5, -114.5)"/>
  <path id="ID0.9320525843650103" fill="#FF0000" stroke="#FF0000" stroke-width="15" d="M 117.500 200 C 119.845 200 121.970 200.952 123.509 202.491 C 125.048 204.030 126 206.155 126 208.500 C 126 210.845 125.048 212.970 123.509 214.509 C 121.970 216.048 119.845 217 117.500 217 C 115.155 217 113.030 216.048 111.491 214.509 C 109.952 212.970 109 210.845 109 208.500 C 109 206.155 109.952 204.030 111.491 202.491 C 113.030 200.952 115.155 200 117.500 200 Z " transform="matrix(1, 0, 0, 1, 310, -69)"/>
  <path id="ID0.9320525843650103" fill="#FF0000" stroke="#FF0000" stroke-width="15" d="M 117.500 200 C 119.845 200 121.970 200.952 123.509 202.491 C 125.048 204.030 126 206.155 126 208.500 C 126 210.845 125.048 212.970 123.509 214.509 C 121.970 216.048 119.845 217 117.500 217 C 115.155 217 113.030 216.048 111.491 214.509 C 109.952 212.970 109 210.845 109 208.500 C 109 206.155 109.952 204.030 111.491 202.491 C 113.030 200.952 115.155 200 117.500 200 Z " transform="matrix(1, 0, 0, 1, 344, -132)"/>
  <path id="ID0.9320525843650103" fill="#FF0000" stroke="#FF0000" stroke-width="15" d="M 117.500 200 C 119.845 200 121.970 200.952 123.509 202.491 C 125.048 204.030 126 206.155 126 208.500 C 126 210.845 125.048 212.970 123.509 214.509 C 121.970 216.048 119.845 217 117.500 217 C 115.155 217 113.030 216.048 111.491 214.509 C 109.952 212.970 109 210.845 109 208.500 C 109 206.155 109.952 204.030 111.491 202.491 C 113.030 200.952 115.155 200 117.500 200 Z " transform="matrix(1, 0, 0, 1, 345.5, -20.5)"/>
  <path id="ID0.9320525843650103" fill="#FF0000" stroke="#FF0000" stroke-width="15" d="M 117.500 200 C 119.845 200 121.970 200.952 123.509 202.491 C 125.048 204.030 126 206.155 126 208.500 C 126 210.845 125.048 212.970 123.509 214.509 C 121.970 216.048 119.845 217 117.500 217 C 115.155 217 113.030 216.048 111.491 214.509 C 109.952 212.970 109 210.845 109 208.500 C 109 206.155 109.952 204.030 111.491 202.491 C 113.030 200.952 115.155 200 117.500 200 Z " transform="matrix(1, 0, 0, 1, 222.5, -11.5)"/>
  <path id="ID0.9320525843650103" fill="#FF0000" stroke="#FF0000" stroke-width="15" d="M 117.500 200 C 119.845 200 121.970 200.952 123.509 202.491 C 125.048 204.030 126 206.155 126 208.500 C 126 210.845 125.048 212.970 123.509 214.509 C 121.970 216.048 119.845 217 117.500 217 C 115.155 217 113.030 216.048 111.491 214.509 C 109.952 212.970 109 210.845 109 208.500 C 109 206.155 109.952 204.030 111.491 202.491 C 113.030 200.952 115.155 200 117.500 200 Z " transform="matrix(1, 0, 0, 1, 294, 72)"/>
  <path id="ID0.9320525843650103" fill="#FF0000" stroke="#FF0000" stroke-width="15" d="M 117.500 200 C 119.845 200 121.970 200.952 123.509 202.491 C 125.048 204.030 126 206.155 126 208.500 C 126 210.845 125.048 212.970 123.509 214.509 C 121.970 216.048 119.845 217 117.500 217 C 115.155 217 113.030 216.048 111.491 214.509 C 109.952 212.970 109 210.845 109 208.500 C 109 206.155 109.952 204.030 111.491 202.491 C 113.030 200.952 115.155 200 117.500 200 Z " transform="matrix(1, 0, 0, 1, 130.5, -113.5)"/>
  <path id="ID0.9320525843650103" fill="#FF0000" stroke="#FF0000" stroke-width="15" d="M 117.500 200 C 119.845 200 121.970 200.952 123.509 202.491 C 125.048 204.030 126 206.155 126 208.500 C 126 210.845 125.048 212.970 123.509 214.509 C 121.970 216.048 119.845 217 117.500 217 C 115.155 217 113.030 216.048 111.491 214.509 C 109.952 212.970 109 210.845 109 208.500 C 109 206.155 109.952 204.030 111.491 202.491 C 113.030 200.952 115.155 200 117.500 200 Z " transform="matrix(1, 0, 0, 1, 4.5, -114.5)"/>
  <path id="ID0.9320525843650103" fill="#FF0000" stroke="#FF0000" stroke-width="15" d="M 117.500 200 C 119.845 200 121.970 200.952 123.509 202.491 C 125.048 204.030 126 206.155 126 208.500 C 126 210.845 125.048 212.970 123.509 214.509 C 121.970 216.048 119.845 217 117.500 217 C 115.155 217 113.030 216.048 111.491 214.509 C 109.952 212.970 109 210.845 109 208.500 C 109 206.155 109.952 204.030 111.491 202.491 C 113.030 200.952 115.155 200 117.500 200 Z " transform="matrix(1, 0, 0, 1, -55, -54)"/>
  <path id="ID0.8994473209604621" fill="none" stroke="#FF0000" stroke-width="15" stroke-linecap="round" d="M 0 179 L 46 191 " transform="matrix(1, 0, 0, 1, 8, 1)"/>
  <path id="ID0.45728146145120263" fill="none" stroke="#FF0000" stroke-width="15" stroke-linecap="round" d="M 59 151 L 50 150 Z " transform="matrix(1, 0, 0, 1, 8, 1)"/>
</svg>