<svg version="1.1" width="83" height="98" viewBox="-1 -1 83 98" xmlns="http://www.w3.org/2000/svg" xmlns:xlink="http://www.w3.org/1999/xlink">
  <!-- Exported by Scratch - http://scratch.mit.edu/ -->
  <g id="ID0.7479679696261883">
    <path id="ID0.30105241015553474_3_" fill="#FAA51F" stroke="#8E5322" stroke-width="1.4" stroke-linecap="round" stroke-linejoin="round" d="M 47.563 70.646 C 47.980 70.506 54.433 71.713 54.775 71.504 C 59.488 68.637 57.264 59.650 53.311 55.584 L 49.105 54.921 " transform="matrix(1, 0, 0, 1, 0, 1)"/>
    <path id="ID0.1790580078959465_42_" fill="#FAA51F" stroke="#8E5322" stroke-width="1.4" stroke-linecap="round" stroke-linejoin="round" d="M 49.427 67.624 C 45.370 71.884 46.359 76.481 47.932 77.131 C 51.620 78.692 55.244 75.330 57.230 66.851 " transform="matrix(1, 0, 0, 1, 0, 1)"/>
    <path id="ID0.8535828334279358_16_" fill="#FAA51F" d="M 27 70.501 C 24.700 69.501 22.100 68.001 20.200 65.200 C 16 59.001 16.200 50.501 11.900 51.700 C 7.600 52.900 4.600 66.101 15.600 72.900 C 19.401 75.300 23.201 76.200 26.201 76.800 C 27.001 77 34.001 77.900 37.100 75 C 40.201 72.100 38.800 70.899 38.100 70.199 C 37.400 69.601 30.200 72.001 27 70.501 Z " transform="matrix(1, 0, 0, 1, 0, 1)"/>
    <path id="ID0.914295740891248_16_" fill="#FFFFFF" d="M 12.100 51.601 C 10 51.801 7.701 56.301 7.800 60.001 C 8 63.700 9.400 66.301 10.300 67.900 C 11.600 69.300 10.300 64.800 12.800 63.501 C 15.300 62.200 19.200 63.801 19.200 63.801 C 19.200 63.801 17.099 58.801 16 56.001 C 15.100 53.400 14.300 51.601 12.100 51.601 Z " transform="matrix(1, 0, 0, 1, 0, 1)"/>
    <path id="ID0.40227043256163597_16_" fill="none" stroke="#8E5322" stroke-width="1.4" stroke-linecap="round" stroke-linejoin="round" d="M 27 70.501 C 24.700 69.501 22.100 68.001 20.200 65.200 C 16 59.001 16.200 50.501 11.900 51.700 C 7.600 52.900 4.600 66.101 15.600 72.900 C 19.401 75.300 23.201 76.200 26.201 76.800 C 27.001 77 34.001 77.900 37.100 75 C 40.201 72.100 38.800 70.899 38.100 70.199 C 37.400 69.601 30.200 72.001 27 70.501 Z " transform="matrix(1, 0, 0, 1, 0, 1)"/>
    <path id="ID0.007584026083350182_16_" fill="#FAA51F" stroke="#8E5322" stroke-width="1.4" stroke-linecap="round" stroke-linejoin="round" d="M 51.400 72.700 C 51.400 72.700 49.700 78.200 50.500 87.001 C 50.800 90.801 57.900 86.501 57.400 93.900 C 57.200 96.001 48 95.800 45.900 95.001 C 44 94.301 43.500 93.601 43.799 91.601 C 44.900 84.301 41.199 75.901 41.199 75.901 " transform="matrix(1, 0, 0, 1, 0, 1)"/>
    <path id="ID0.31672530295327306_16_" fill="#FAA51F" stroke="#8E5322" stroke-width="1.4" stroke-linecap="round" stroke-linejoin="round" d="M 52.500 88.801 C 52.500 88.801 51.200 88.601 49.700 88.901 " transform="matrix(1, 0, 0, 1, 0, 1)"/>
    <path id="ID0.46792364912107587_16_" fill="#FAA51F" stroke="#8E5322" stroke-width="1.4" stroke-linecap="round" stroke-linejoin="round" d="M 52.200 61.801 C 52.200 68.501 53.900 78.301 42 78.301 C 30.100 78.301 31.200 69.301 31.200 62.601 C 31.200 55.901 35.300 54.101 42 54.101 C 48.700 54.101 52.200 55.101 52.200 61.801 Z " transform="matrix(1, 0, 0, 1, 0, 1)"/>
    <path id="ID0.38032895559445024_22_" fill="#FFFFFF" d="M 49.600 64.700 C 49.600 68.900 50.500 75.200 44.100 75.200 C 37.701 75.200 38.201 69.501 38.201 65.301 C 38.201 61.101 40.401 59.901 44.100 59.901 C 47.800 59.900 49.600 60.501 49.600 64.700 Z " transform="matrix(1, 0, 0, 1, 0, 1)"/>
    <path id="ID0.527006761636585_19_" fill="#FAA51F" stroke="#8E5322" stroke-width="1.4" stroke-linecap="round" stroke-linejoin="round" d="M 32 72.700 C 32 72.700 34.600 78.200 33.300 86.900 C 32.700 90.700 27.100 86.001 27.500 93.600 C 27.600 96.100 35.200 95.900 37.400 95.500 C 39.500 95.100 40.299 94 40.099 91.899 C 39.799 87.699 41.299 78.599 41.299 78.599 " transform="matrix(1, 0, 0, 1, 0, 1)"/>
    <path id="ID0.8937406223267317_26_" fill="#FAA51F" stroke="#8E5322" stroke-width="1.4" stroke-linecap="round" stroke-linejoin="round" d="M 30.900 88.700 C 30.900 88.700 32.500 88.501 33.900 88.900 " transform="matrix(1, 0, 0, 1, 0, 1)"/>
    <path id="ID0.15909873321652412_36_" fill="#FAA51F" stroke="#8E5322" stroke-width="1.4" stroke-linecap="round" stroke-linejoin="round" d="M 32.950 69.851 C 32.784 69.758 25.181 71.801 25.040 71.681 C 21.705 68.842 25.375 58.783 31.900 53.601 L 39.799 55.001 " transform="matrix(1, 0, 0, 1, 0, 1)"/>
    <path id="ID0.8143284288235009_1_" fill="#FAA51F" stroke="#8E5322" stroke-width="1.4" stroke-linecap="round" stroke-linejoin="round" d="M 34.300 61.400 C 33.135 64.535 31.218 68.335 31.218 68.335 " transform="matrix(1, 0, 0, 1, 0, 1)"/>
    <path id="ID0.6682511982508004_3_" fill="none" stroke="#8E5322" stroke-width="1.4" stroke-linecap="round" stroke-linejoin="round" d="M 31.563 68.501 L 30.364 68.200 " transform="matrix(1, 0, 0, 1, 0, 1)"/>
    <path id="ID0.2591130444779992_16_" fill="#FAA51F" d="M 42.200 8.900 C 40.700 8.800 37.599 8.600 35.900 8.700 C 31.299 8.900 27 10.600 27 10.600 L 14.400 2.400 L 16.600 20.700 C 17.201 19.900 6.401 33.100 13.201 44.100 C 20.100 55.200 34.701 60.100 52.901 56.500 C 71.100 52.900 75.400 42.400 74.200 36.900 C 73 31.400 66.099 29.300 66.099 29.300 C 66.099 29.300 66 25.001 62.900 19.700 C 61 16.501 54.800 11.900 54.800 11.900 L 52 0.700 L 44.800 7.700 L 42.200 8.900 Z " transform="matrix(1, 0, 0, 1, 0, 1)"/>
    <path id="ID0.3588979784399271_16_" fill="#FFFFFF" d="M 65.200 29.200 L 62.800 27.200 L 54 29.801 C 54 29.801 54 33.101 49.800 34.001 C 45.600 34.900 38.500 33.301 38.500 33.301 L 31.400 35.101 C 31.400 35.101 23.299 34.601 22.900 41.001 C 22.200 52.101 31.500 57.400 40 57.301 C 45.500 57.301 49 56.601 52.900 55.901 C 70.099 52.801 75 42.401 73.500 36.901 C 72.300 31.401 65.700 29.801 65.700 29.801 L 65.200 29.200 Z " transform="matrix(1, 0, 0, 1, 0, 1)"/>
    <path id="ID0.2727069961838424_16_" fill="none" stroke="#8E5322" stroke-width="1.4" stroke-linecap="round" stroke-linejoin="round" d="M 70.200 34.601 C 70.200 34.601 74.599 33.901 76.800 33.101 C 79.401 32.201 81.200 30.601 81.200 30.601 " transform="matrix(1, 0, 0, 1, 0, 1)"/>
    <path id="ID0.5861211125738919_16_" fill="none" stroke="#8E5322" stroke-width="1.4" stroke-linecap="round" stroke-linejoin="round" d="M 70.700 40.400 C 70.700 40.400 73.300 41.501 76.099 41.700 C 78.799 42.001 80.599 41.801 80.599 41.801 " transform="matrix(1, 0, 0, 1, 0, 1)"/>
    <path id="ID0.4793355236761272_16_" fill="none" stroke="#8E5322" stroke-width="1.4" stroke-linecap="round" stroke-linejoin="round" d="M 24.700 9.101 L 29.900 12.701 " transform="matrix(1, 0, 0, 1, 0, 1)"/>
    <path id="ID0.48413723474368453_16_" fill="none" stroke="#8E5322" stroke-width="1.4" stroke-linecap="round" stroke-linejoin="round" d="M 42.200 8.900 C 40.700 8.800 37.599 8.600 35.900 8.700 C 31.299 8.900 27 10.600 27 10.600 L 14.400 2.400 L 16.600 20.700 C 17.201 19.900 6.401 33.100 13.201 44.100 C 20.100 55.200 34.701 60.100 52.901 56.500 C 71.100 52.900 75.400 42.400 74.200 36.900 C 73 31.400 66.099 29.300 66.099 29.300 C 66.099 29.300 66 25.001 62.900 19.700 C 61 16.501 54.800 11.900 54.800 11.900 L 52 0.700 L 44.800 7.700 L 42.200 8.900 Z " transform="matrix(1, 0, 0, 1, 0, 1)"/>
    <path id="ID0.9024141579866409_16_" fill="none" stroke="#8E5322" stroke-width="1.4" stroke-linecap="round" stroke-linejoin="round" d="M 1.500 39.900 C 1.500 39.900 5.500 40.300 7.300 40.200 C 9.100 40.100 12.600 39.600 12.600 39.600 " transform="matrix(1, 0, 0, 1, 0, 1)"/>
    <path id="ID0.16030752705410123_16_" fill="none" stroke="#8E5322" stroke-width="1.4" stroke-linecap="round" stroke-linejoin="round" d="M 12.800 35.801 C 12.800 35.801 10.500 34.101 6.901 32.501 C 2.901 30.700 0.701 30.301 0.701 30.301 " transform="matrix(1, 0, 0, 1, 0, 1)"/>
    <path id="ID0.40023312577977777_16_" fill="#FFFFFF" stroke="#8E5322" stroke-width="1.4" stroke-linecap="round" stroke-linejoin="round" d="M 60.700 19.801 C 63.500 24.101 63.599 29.101 60.900 30.801 C 58.200 32.601 53.700 30.501 50.900 26.101 C 48.099 21.801 48 16.801 50.700 15.101 C 53.400 13.401 57.900 15.501 60.700 19.801 Z " transform="matrix(1, 0, 0, 1, 0, 1)"/>
    <path id="ID0.43813491938635707_16_" fill="#414142" d="M 60.600 23.400 C 60.901 24.400 60.401 25.400 59.401 25.700 C 58.501 26.001 57.501 25.400 57.201 24.301 C 56.901 23.301 57.401 22.301 58.401 22.001 C 59.400 21.801 60.300 22.400 60.600 23.400 " transform="matrix(1, 0, 0, 1, 0, 1)"/>
    <path id="ID0.4253597157076001_16_" fill="#FFFFFF" stroke="#8E5322" stroke-width="1.4" stroke-linecap="round" stroke-linejoin="round" d="M 37.500 22.900 C 40.300 27.200 40 32.400 36.800 34.501 C 33.600 36.601 28.700 34.801 25.901 30.400 C 23.100 26.100 23.401 20.900 26.600 18.800 C 29.800 16.801 34.700 18.601 37.500 22.900 Z " transform="matrix(1, 0, 0, 1, 0, 1)"/>
    <path id="ID0.814307457767427_16_" fill="#414142" d="M 37.200 26.801 C 37.200 27.801 36.400 28.700 35.500 28.700 C 34.500 28.700 33.800 27.900 33.800 26.801 C 33.800 25.801 34.600 24.901 35.500 24.901 C 36.400 24.901 37.200 25.700 37.200 26.801 " transform="matrix(1, 0, 0, 1, 0, 1)"/>
    <path id="ID0.5240494590252638_16_" fill="#5F4B43" stroke="#8E5322" stroke-width="1.4" stroke-linecap="round" stroke-linejoin="round" d="M 48.500 32.801 C 50.200 32.601 52.500 31.301 52.800 33.200 C 52.800 34.001 51.200 37.301 49.401 37.400 C 47.401 37.501 43.901 35.001 44.001 33.501 C 44.101 32.001 47 33.001 48.500 32.801 Z " transform="matrix(1, 0, 0, 1, 0, 1)"/>
    <path id="ID0.046259244438260794_16_" fill="#FFFFFF" stroke="#8E5322" stroke-width="1.4" stroke-linecap="round" stroke-linejoin="round" d="M 39.400 48.200 C 39.400 48.200 41.900 50.501 47.299 49.400 " transform="matrix(1, 0, 0, 1, 0, 1)"/>
    <path id="ID0.1790580078959465_41_" fill="#FAA51F" stroke="#8E5322" stroke-width="1.4" stroke-linecap="round" stroke-linejoin="round" d="M 32.332 69.025 C 37.491 71.850 37.305 76.161 36.003 77.257 C 32.962 79.864 28.490 77.764 24.021 70.288 " transform="matrix(1, 0, 0, 1, 0, 1)"/>
  </g>
</svg>