<svg version="1.1" width="425" height="332" viewBox="-1 1 425 332" xmlns="http://www.w3.org/2000/svg" xmlns:xlink="http://www.w3.org/1999/xlink">
  <!-- Exported by Scratch - http://scratch.mit.edu/ -->
  <path id="ID0.7586175920441747" fill="none" stroke="#666666" stroke-width="11" d="M 86 154 L 409 154 L 409 261 L 86 261 L 86 154 Z " transform="matrix(1.1556886434555054, 0, 0, 1.1556886434555054, -92.4, 0.5)"/>
  <text id="ID0.29796491051092744" fill="#666666" x="93" y="171.7" text-anchor="start" font-family="Scratch" font-size="22" transform="matrix(1, 0, 0, 1, 268, 0.5)">that's all for now</text>
  <text id="ID0.29796491051092744" fill="#666666" x="93" y="171.7" text-anchor="start" font-family="Scratch" font-size="22" transform="matrix(1, 0, 0, 1, 283.75, 24.75)">check back later</text>
  <path id="ID0.4673073668964207" fill="#FF00BF" stroke="#FF00BF" stroke-width="2" d="M 444 332 L 466 332 L 466 353 L 444 353 L 444 332 Z " transform="matrix(2.3913042545318604, 0, 0, 2.3913042545318604, -763.3, -558.5)"/>
  <path id="ID0.7902810391969979" fill="#FFFFFF" stroke="none" d="M 221 235 L 261 235 L 261 283 L 221 283 L 221 235 Z " transform="matrix(1.1556886434555054, 0, 0, 1.1556886434555054, -83.15, 5.95)"/>
  <text id="ID0.8522529574111104" fill="#666666" x="340" y="217.7" text-anchor="start" font-family="Scratch" font-size="22" transform="matrix(1, 0, 0, 1, 286, 199.5)">try WIP:</text>
  <text id="ID0.23788912873715162" fill="#666666" x="67" y="216.7" text-anchor="start" font-family="Scratch" font-size="22" transform="matrix(1, 0, 0, 1, 23, 201.5)">restart:</text>
  <path id="ID0.4673073668964207" fill="#FF99E5" stroke="#FF99E5" stroke-width="2" d="M 444 332 L 466 332 L 466 353 L 444 353 L 444 332 Z " transform="matrix(2.3913042545318604, 0, 0, 2.3913042545318604, -1035.3, -559.5)"/>
  <path id="ID0.8856551782228053" fill="none" stroke="#FFCCF2" stroke-width="2" stroke-linecap="round" d="M 414 170 L 347 170 " transform="matrix(1, 0, 0, 1, -52, 1)"/>
  <text id="ID0.6355927190743387" fill="#666666" x="369" y="140.7" text-anchor="start" font-family="Scratch" font-size="22" transform="matrix(1, 0, 0, 1, 299, 122.5)">previous:</text>
</svg>