<svg version="1.1" x="0px" y="0px" width="128px" height="128px" viewBox="-29.372 -20.524 128 128" enable-background="new -29.372 -20.524 128 128" xml:space="preserve" xmlns="http://www.w3.org/2000/svg" xmlns:xlink="http://www.w3.org/1999/xlink" xmlns:a="http://ns.adobe.com/AdobeSVGViewerExtensions/3.0/">
  <defs/>
  <g>
    <path id="ID0.15909873321652412_13_" fill="#FAA51F" stroke="#8E5322" stroke-width="1.4" stroke-linecap="round" stroke-linejoin="round" d="&#xD;&#xA;&#x9;M19.809,61.938c-2.118-6.789-3.041-4.325-1.871-6.936c3.902-3.349,12.7-2.536,18.258,0.111l2.215,7.712"/>
    <path id="ID0.8143284288235009_13_" fill="#FAA51F" stroke="#8E5322" stroke-width="1.4" stroke-linecap="round" stroke-linejoin="round" d="&#xD;&#xA;&#x9;M24.625,60.397l5.619,0.299"/>
    <path id="ID0.6682511982508004_12_" fill="none" stroke="#8E5322" stroke-width="1.4" stroke-linecap="round" stroke-linejoin="round" d="&#xD;&#xA;&#x9;M23.802,60.623l-0.26-1.864"/>
    <path id="ID0.1790580078959465_17_" fill="#FAA51F" stroke="#8E5322" stroke-width="1.4" stroke-linecap="round" stroke-linejoin="round" d="&#xD;&#xA;&#x9;M23.656,61.071c0.805,5.827-2.77,8.245-4.425,7.854c-3.906-0.89-4.882-5.733-1.541-13.775"/>
    <path id="ID0.8535828334279358_16_" fill="#FAA51F" d="M19.974,74.044c-2.325-0.939-4.964-2.369-6.939-5.117&#xD;&#xA;&#x9;c-4.366-6.08-4.396-14.584-8.661-13.27c-4.268,1.316-6.908,14.594,4.271,21.092c3.863,2.299,7.686,3.096,10.701,3.615&#xD;&#xA;&#x9;c0.804,0.178,7.826,0.887,10.847-2.094c3.021-2.984,1.588-4.146,0.87-4.826C30.347,72.862,23.214,75.456,19.974,74.044z"/>
    <path id="ID0.914295740891248_16_" fill="#FFFFFF" d="M4.57,55.552c-2.095,0.258-4.271,4.82-4.072,8.516&#xD;&#xA;&#x9;c0.301,3.691,1.77,6.252,2.713,7.828c1.338,1.365-0.084-3.1,2.379-4.465c2.464-1.369,6.406,0.125,6.406,0.125&#xD;&#xA;&#x9;s-2.232-4.941-3.408-7.709C7.617,57.271,6.77,55.491,4.57,55.552z"/>
    <path id="ID0.40227043256163597_16_" fill="none" stroke="#8E5322" stroke-width="1.4" stroke-linecap="round" stroke-linejoin="round" d="&#xD;&#xA;&#x9;M19.974,74.044c-2.325-0.939-4.964-2.369-6.939-5.117c-4.366-6.08-4.396-14.584-8.661-13.27c-4.268,1.316-6.908,14.594,4.271,21.092&#xD;&#xA;&#x9;c3.863,2.299,7.686,3.096,10.701,3.615c0.804,0.178,7.826,0.887,10.847-2.094c3.021-2.984,1.588-4.146,0.87-4.826&#xD;&#xA;&#x9;C30.347,72.862,23.214,75.456,19.974,74.044z"/>
    <path id="ID0.007584026083350182_16_" fill="#FAA51F" stroke="#8E5322" stroke-width="1.4" stroke-linecap="round" stroke-linejoin="round" d="&#xD;&#xA;&#x9;M41.836,73.276c0,0-0.733,5.084,2.328,13.373c1.279,3.592,7.016-2.408,8.459,4.867c0.355,2.08-8.581,4.281-10.817,4.055&#xD;&#xA;&#x9;c-2.018-0.182-2.681-0.727-2.913-2.736c-0.838-7.334-9.546-17.145-9.546-17.145"/>
    <path id="ID0.31672530295327306_16_" fill="#FAA51F" stroke="#8E5322" stroke-width="1.4" stroke-linecap="round" stroke-linejoin="round" d="&#xD;&#xA;&#x9;M46.565,87.868c0,0-1.309,0.146-2.677,0.824"/>
    <path id="ID0.46792364912107587_16_" fill="#FAA51F" stroke="#8E5322" stroke-width="1.4" stroke-linecap="round" stroke-linejoin="round" d="&#xD;&#xA;&#x9;M46.037,65.323c-1.887,6.428-3.016,16.311-14.435,12.959c-11.419-3.35-7.827-11.678-5.94-18.105&#xD;&#xA;&#x9;c1.886-6.43,6.325-7.002,12.756-5.115C44.847,56.948,47.924,58.894,46.037,65.323z"/>
    <path id="ID0.38032895559445024_22_" fill="#FFFFFF" d="M43.726,67.372c-1.184,4.031-2.094,10.328-8.236,8.525&#xD;&#xA;&#x9;c-6.141-1.801-4.055-7.129-2.873-11.16c1.184-4.029,3.633-4.561,7.183-3.52C43.351,62.259,44.907,63.343,43.726,67.372z"/>
    <path id="ID0.527006761636585_19_" fill="#FAA51F" stroke="#8E5322" stroke-width="1.4" stroke-linecap="round" stroke-linejoin="round" d="&#xD;&#xA;&#x9;M26.123,72.091c0,0-3.864,4.252-5.124,4.949c-6.803-3.09-6.187-4.342-9.155-0.73c-1.363,1.658-4.437,5.402-2.75,7.25&#xD;&#xA;&#x9;c5.877,5.57,3.625-5.781,11.813,0.832c2.186,0.855,4.645-4.693,14.188-5.77"/>
    <path id="ID0.8937406223267317_26_" fill="#FAA51F" stroke="#8E5322" stroke-width="1.4" stroke-linecap="round" stroke-linejoin="round" d="&#xD;&#xA;&#x9;M17.512,82.21c-0.454-0.365-2.022-0.941-2.501-1.357"/>
    <path id="ID0.2591130444779992_16_" fill="#FAA51F" d="M51.969,10.548c-1.477-0.281-4.528-0.859-6.228-0.967&#xD;&#xA;&#x9;c-4.591-0.365-9.066,0.797-9.066,0.797L25.172,0.7l-0.053,18.432c0.693-0.721-11.639,11.061-6.232,22.811&#xD;&#xA;&#x9;c5.491,11.859,19.383,18.506,37.887,17.156s24.055-11.244,23.535-16.85s-7.111-8.533-7.111-8.533s0.426-4.281-2.002-9.918&#xD;&#xA;&#x9;c-1.494-3.41-7.086-8.732-7.086-8.732L62.697,3.606l-8,6.068L51.969,10.548z"/>
    <path id="ID0.3588979784399271_16_" fill="#FFFFFF" d="M72.318,33.507l-2.139-2.279l-9.053,1.506c0,0-0.402,3.275-4.68,3.656&#xD;&#xA;&#x9;c-4.279,0.379-11.132-2.076-11.132-2.076l-7.267,0.92c0,0-7.979-1.486-9.159,4.816c-2.049,10.932,6.533,17.328,14.982,18.268&#xD;&#xA;&#x9;c5.459,0.672,9.019,0.404,12.976,0.188c17.449-0.977,23.582-10.699,22.766-16.342c-0.52-5.605-6.873-8-6.873-8L72.318,33.507z"/>
    <path id="ID0.2727069961838424_16_" fill="none" stroke="#8E5322" stroke-width="1.4" stroke-linecap="round" stroke-linejoin="round" d="&#xD;&#xA;&#x9;M76.619,39.478c0,0,4.432-0.457,6.672-1.133c2.646-0.756,4.533-2.251,4.533-2.251"/>
    <path id="ID0.5861211125738919_16_" fill="none" stroke="#8E5322" stroke-width="1.4" stroke-linecap="round" stroke-linejoin="round" d="&#xD;&#xA;&#x9;M76.408,45.294c0,0,2.576,1.155,5.373,1.412c2.693,0.353,4.494,0.191,4.494,0.191"/>
    <path id="ID0.4793355236761272_16_" fill="none" stroke="#8E5322" stroke-width="1.4" stroke-linecap="round" stroke-linejoin="round" d="&#xD;&#xA;&#x9;M34.575,8.608l4.722,4.209"/>
    <path id="ID0.48413723474368453_16_" fill="none" stroke="#8E5322" stroke-width="1.4" stroke-linecap="round" stroke-linejoin="round" d="&#xD;&#xA;&#x9;M51.969,10.548c-1.477-0.281-4.528-0.859-6.228-0.967c-4.591-0.365-9.066,0.797-9.066,0.797L25.172,0.7l-0.053,18.432&#xD;&#xA;&#x9;c0.693-0.721-11.639,11.061-6.232,22.811c5.491,11.859,19.383,18.506,37.887,17.156s24.055-11.244,23.535-16.85&#xD;&#xA;&#x9;s-7.111-8.533-7.111-8.533s0.426-4.281-2.002-9.918c-1.494-3.41-7.086-8.732-7.086-8.732L62.697,3.606l-8,6.068L51.969,10.548z"/>
    <path id="ID0.9024141579866409_16_" fill="none" stroke="#8E5322" stroke-width="1.4" stroke-linecap="round" stroke-linejoin="round" d="&#xD;&#xA;&#x9;M7.865,35.778c0,0,3.859,1.12,5.648,1.344c1.791,0.229,5.321,0.371,5.321,0.371"/>
    <path id="ID0.16030752705410123_16_" fill="none" stroke="#8E5322" stroke-width="1.4" stroke-linecap="round" stroke-linejoin="round" d="&#xD;&#xA;&#x9;M19.502,33.655c0,0-1.874-2.161-5.04-4.508c-3.513-2.624-5.573-3.492-5.573-3.492"/>
    <path id="ID0.40023312577977777_16_" fill="#FFFFFF" stroke="#8E5322" stroke-width="1.4" stroke-linecap="round" stroke-linejoin="round" d="&#xD;&#xA;&#x9;M69,23.628c2.252,4.609,1.74,9.584-1.145,10.941c-2.9,1.457-7.109-1.178-9.352-5.887c-2.254-4.609-1.742-9.586,1.145-10.943&#xD;&#xA;&#x9;C62.539,16.384,66.746,19.017,69,23.628z"/>
    <path id="ID0.43813491938635707_16_" fill="#414142" d="M68.459,27.188c0.178,1.029-0.441,1.961-1.471,2.135&#xD;&#xA;&#x9;c-0.93,0.189-1.85-0.529-2.012-1.658c-0.176-1.027,0.441-1.959,1.471-2.135C67.465,25.454,68.283,26.159,68.459,27.188"/>
    <path id="ID0.4253597157076001_16_" fill="#FFFFFF" stroke="#8E5322" stroke-width="1.4" stroke-linecap="round" stroke-linejoin="round" d="&#xD;&#xA;&#x9;M45.595,23.868c2.254,4.611,1.319,9.734-2.112,11.43c-3.434,1.691-8.077-0.693-10.319-5.402c-2.252-4.609-1.32-9.734,2.111-11.426&#xD;&#xA;&#x9;C38.696,16.874,43.34,19.259,45.595,23.868z"/>
    <path id="ID0.814307457767427_16_" fill="#414142" d="M44.819,27.704c-0.121,0.992-1.026,1.787-1.919,1.678&#xD;&#xA;&#x9;c-0.992-0.123-1.59-1.002-1.455-2.094c0.121-0.992,1.026-1.789,1.919-1.678C44.258,25.72,44.954,26.612,44.819,27.704"/>
    <path id="ID0.5240494590252638_16_" fill="#5F4B43" stroke="#8E5322" stroke-width="1.4" stroke-linecap="round" stroke-linejoin="round" d="&#xD;&#xA;&#x9;M55.303,35.04c1.713,0.008,4.154-1,4.219,0.922c-0.098,0.793-2.09,3.875-3.887,3.752c-1.998-0.145-5.166-3.053-4.885-4.529&#xD;&#xA;&#x9;C51.032,33.708,53.789,35.056,55.303,35.04z"/>
    <path id="ID0.046259244438260794_16_" fill="#FFFFFF" stroke="#8E5322" stroke-width="1.4" stroke-linecap="round" stroke-linejoin="round" d="&#xD;&#xA;&#x9;M44.388,49.212c0,0,2.2,2.588,7.694,2.156"/>
    <path id="ID0.15909873321652412_12_" fill="#FAA51F" stroke="#8E5322" stroke-width="1.4" stroke-linecap="round" stroke-linejoin="round" d="&#xD;&#xA;&#x9;M39.572,59.108c-0.13,0.235,11.881,10.05,11.627,10.104c-1.957,0.421-4.36,1.788-5.265,1.682c-4.13-0.488-9.372-3.425-12.688-7.522&#xD;&#xA;&#x9;l-0.64-1.262"/>
    <path id="ID0.8143284288235009_12_" fill="#FAA51F" stroke="#8E5322" stroke-width="1.4" stroke-linecap="round" stroke-linejoin="round" d="&#xD;&#xA;&#x9;M45.15,63.56l-4.128-2.661"/>
    <path id="ID0.1790580078959465_16_" fill="#FAA51F" stroke="#8E5322" stroke-width="1.4" stroke-linecap="round" stroke-linejoin="round" d="&#xD;&#xA;&#x9;M42.376,61.642c-1.045-0.5,2.129,2.354,3.04,2.203c0.824-0.14,2.458-0.815,3.097-1.426c3.814-3.642,7.712-2.122,8.36-0.634&#xD;&#xA;&#x9;c1.63,3.657-2.383,6.947-10.732,9.076"/>
  </g>
</svg>