<svg version="1.1" x="0px" y="0px" width="128px" height="128px" viewBox="-29.162 -18.62 128 128" enable-background="new -29.162 -18.62 128 128" xml:space="preserve" xmlns="http://www.w3.org/2000/svg" xmlns:xlink="http://www.w3.org/1999/xlink" xmlns:a="http://ns.adobe.com/AdobeSVGViewerExtensions/3.0/">
  <defs/>
  <g>
    <path id="ID0.15909873321652412_13_" fill="#FAA51F" stroke="#8E5322" stroke-width="1.4" stroke-linecap="round" stroke-linejoin="round" d="&#xD;&#xA;&#x9;M32.953,62.251c0.037-0.266-15.08-6.098-14.861-6.239c1.678-1.09,3.835-2.284,4.719-2.507c4.032-1.016,9.977-0.139,14.536,2.51&#xD;&#xA;&#x9;l2.091,1.901"/>
    <path id="ID0.8143284288235009_13_" fill="#FAA51F" stroke="#8E5322" stroke-width="1.4" stroke-linecap="round" stroke-linejoin="round" d="&#xD;&#xA;&#x9;M26.154,60.078l4.806,1.017"/>
    <path id="ID0.1790580078959465_17_" fill="#FAA51F" stroke="#8E5322" stroke-width="1.4" stroke-linecap="round" stroke-linejoin="round" d="&#xD;&#xA;&#x9;M30.19,60.714c1.396,0.395-6.214-1.106-8.278,1.514c-3.265,4.143-7.238,3.406-8.131,2.05c-2.229-3.325,1.165-7.251,9.029-10.772"/>
    <path id="ID0.8535828334279358_16_" fill="#FAA51F" d="M23.455,72.015c-2.508-0.002-5.49-0.342-8.348-2.154&#xD;&#xA;&#x9;c-6.322-4.014-9.523-11.889-12.99-9.076S1.158,76.901,13.955,78.757c4.441,0.689,8.285-0.002,11.277-0.645&#xD;&#xA;&#x9;c0.813-0.137,7.592-2.1,9.279-5.994c1.689-3.895-0.074-4.438-0.994-4.801C32.637,67.048,26.988,72.114,23.455,72.015z"/>
    <path id="ID0.914295740891248_16_" fill="#FFFFFF" d="M2.26,60.614c-1.846,1.02-2.162,6.063-0.598,9.416&#xD;&#xA;&#x9;c1.658,3.314,3.977,5.143,5.439,6.252c1.752,0.764-1.234-2.844,0.541-5.031c1.773-2.191,5.988-2.275,5.988-2.275&#xD;&#xA;&#x9;s-3.916-3.748-6.039-5.881C5.729,61.069,4.277,59.737,2.26,60.614z"/>
    <path id="ID0.40227043256163597_16_" fill="none" stroke="#8E5322" stroke-width="1.4" stroke-linecap="round" stroke-linejoin="round" d="&#xD;&#xA;&#x9;M23.455,72.015c-2.508-0.002-5.49-0.342-8.348-2.154c-6.322-4.014-9.523-11.889-12.99-9.076S1.158,76.901,13.955,78.757&#xD;&#xA;&#x9;c4.441,0.689,8.285-0.002,11.277-0.645c0.813-0.137,7.592-2.1,9.279-5.994c1.689-3.895-0.074-4.438-0.994-4.801&#xD;&#xA;&#x9;C32.637,67.048,26.988,72.114,23.455,72.015z"/>
    <path id="ID0.007584026083350182_16_" fill="#FAA51F" stroke="#8E5322" stroke-width="1.4" stroke-linecap="round" stroke-linejoin="round" d="&#xD;&#xA;&#x9;M45.107,69.948c0,0,3.277,6.289,9.596,12.465c2.695,2.697,5.307-5.184,9.729,0.771c1.213,1.727-5.918,7.545-8.035,8.301&#xD;&#xA;&#x9;c-1.9,0.699-2.734,0.492-3.805-1.225c-3.9-6.268-15.166-12.258-15.166-12.258"/>
    <path id="ID0.31672530295327306_16_" fill="#FAA51F" stroke="#8E5322" stroke-width="1.4" stroke-linecap="round" stroke-linejoin="round" d="&#xD;&#xA;&#x9;M57.395,82.485c0,0-1.119,0.691-2.064,1.893"/>
    <path id="ID0.46792364912107587_16_" fill="#FAA51F" stroke="#8E5322" stroke-width="1.4" stroke-linecap="round" stroke-linejoin="round" d="&#xD;&#xA;&#x9;M47.453,64.321c-1.887,6.43-3.016,16.313-14.436,12.961c-11.418-3.352-7.826-11.678-5.939-18.107s6.326-7.002,12.756-5.115&#xD;&#xA;&#x9;C46.262,55.948,49.34,57.894,47.453,64.321z"/>
    <path id="ID0.38032895559445024_22_" fill="#FFFFFF" d="M44.141,66.37c-1.184,4.031-2.094,10.33-8.234,8.527&#xD;&#xA;&#x9;c-6.141-1.801-4.057-7.129-2.873-11.16c0.339-1.152,2.273-1.686,2.814-2.312c1.352-1.562,3.157-1.572,4.367-1.208&#xD;&#xA;&#x9;C43.758,61.284,45.322,62.343,44.141,66.37z"/>
    <path id="ID0.527006761636585_19_" fill="#FAA51F" stroke="#8E5322" stroke-width="1.4" stroke-linecap="round" stroke-linejoin="round" d="&#xD;&#xA;&#x9;M26.723,69.755c0,0-7.025,4.742-8.377,5.246c-1.074-1.814-2.371-2.232-4.305-1.32c-2.012,0.973-8.273,5.285-6.881,7.361&#xD;&#xA;&#x9;c4.15,6.381,7.143-1.406,9.865,1.313c1.965,1.105,10.197-5.297,18.822-5.111"/>
    <path id="ID0.8937406223267317_26_" fill="#FAA51F" stroke="#8E5322" stroke-width="1.4" stroke-linecap="round" stroke-linejoin="round" d="&#xD;&#xA;&#x9;M16.85,82.257c-1.057-1.006-1.695-2.486-1.695-2.486"/>
    <path id="ID0.2591130444779992_16_" fill="#FAA51F" d="M53.385,10.548c-1.477-0.283-4.529-0.861-6.229-0.969&#xD;&#xA;&#x9;c-4.59-0.363-9.064,0.799-9.064,0.799L26.588,0.7l-0.053,18.432c0.693-0.723-11.639,11.061-6.232,22.809&#xD;&#xA;&#x9;c5.49,11.859,19.383,18.508,37.885,17.158c18.504-1.35,24.055-11.244,23.537-16.85c-0.52-5.605-7.111-8.535-7.111-8.535&#xD;&#xA;&#x9;s0.426-4.279-2.004-9.918c-1.494-3.408-7.086-8.732-7.086-8.732l-1.41-11.457l-8.002,6.068L53.385,10.548z"/>
    <path id="ID0.3588979784399271_16_" fill="#FFFFFF" d="M73.732,33.505l-2.137-2.277l-9.053,1.506c0,0-0.402,3.275-4.682,3.656&#xD;&#xA;&#x9;c-4.279,0.379-11.131-2.076-11.131-2.076l-7.266,0.918c0,0-7.979-1.486-9.158,4.818c-2.051,10.93,6.533,17.328,14.98,18.266&#xD;&#xA;&#x9;c5.459,0.674,9.02,0.406,12.975,0.188c17.451-0.975,23.584-10.697,22.768-16.342c-0.521-5.604-6.873-8-6.873-8L73.732,33.505z"/>
    <path id="ID0.2727069961838424_16_" fill="none" stroke="#8E5322" stroke-width="1.4" stroke-linecap="round" stroke-linejoin="round" d="&#xD;&#xA;&#x9;M78.035,39.476c0,0,4.451-0.156,6.732-0.682c2.691-0.574,4.676-1.943,4.676-1.943"/>
    <path id="ID0.5861211125738919_16_" fill="none" stroke="#8E5322" stroke-width="1.4" stroke-linecap="round" stroke-linejoin="round" d="&#xD;&#xA;&#x9;M77.822,45.294c0,0,2.445,1.41,5.201,1.951c2.643,0.627,4.453,0.648,4.453,0.648"/>
    <path id="ID0.4793355236761272_16_" fill="none" stroke="#8E5322" stroke-width="1.4" stroke-linecap="round" stroke-linejoin="round" d="&#xD;&#xA;&#x9;M35.992,8.608l4.721,4.209"/>
    <path id="ID0.48413723474368453_16_" fill="none" stroke="#8E5322" stroke-width="1.4" stroke-linecap="round" stroke-linejoin="round" d="&#xD;&#xA;&#x9;M53.385,10.548c-1.477-0.283-4.529-0.861-6.229-0.969c-4.59-0.363-9.064,0.799-9.064,0.799L26.588,0.7l-0.053,18.432&#xD;&#xA;&#x9;c0.693-0.723-11.639,11.061-6.232,22.809c5.49,11.859,19.383,18.508,37.885,17.158c18.504-1.35,24.055-11.244,23.537-16.85&#xD;&#xA;&#x9;c-0.52-5.605-7.111-8.535-7.111-8.535s0.426-4.279-2.004-9.918c-1.494-3.408-7.086-8.732-7.086-8.732l-1.41-11.457l-8.002,6.068&#xD;&#xA;&#x9;L53.385,10.548z"/>
    <path id="ID0.9024141579866409_16_" fill="none" stroke="#8E5322" stroke-width="1.4" stroke-linecap="round" stroke-linejoin="round" d="&#xD;&#xA;&#x9;M9.203,36.343c0,0,3.92,0.887,5.719,1.006c1.801,0.121,5.334,0.053,5.334,0.053"/>
    <path id="ID0.16030752705410123_16_" fill="none" stroke="#8E5322" stroke-width="1.4" stroke-linecap="round" stroke-linejoin="round" d="&#xD;&#xA;&#x9;M20.918,33.655c0,0-2.074-1.969-5.453-3.998c-3.748-2.275-5.883-2.941-5.883-2.941"/>
    <path id="ID0.40023312577977777_16_" fill="#FFFFFF" stroke="#8E5322" stroke-width="1.4" stroke-linecap="round" stroke-linejoin="round" d="&#xD;&#xA;&#x9;M70.416,23.626c2.252,4.609,1.74,9.584-1.146,10.943c-2.9,1.455-7.109-1.18-9.352-5.887c-2.254-4.609-1.74-9.586,1.146-10.943&#xD;&#xA;&#x9;C63.953,16.382,68.162,19.017,70.416,23.626z"/>
    <path id="ID0.43813491938635707_16_" fill="#414142" d="M69.875,27.187c0.176,1.029-0.441,1.961-1.471,2.137&#xD;&#xA;&#x9;c-0.932,0.188-1.85-0.531-2.012-1.658c-0.178-1.029,0.441-1.961,1.469-2.137C68.881,25.452,69.699,26.157,69.875,27.187"/>
    <path id="ID0.4253597157076001_16_" fill="#FFFFFF" stroke="#8E5322" stroke-width="1.4" stroke-linecap="round" stroke-linejoin="round" d="&#xD;&#xA;&#x9;M47.01,23.868c2.254,4.611,1.32,9.734-2.111,11.428c-3.434,1.693-8.076-0.691-10.318-5.4c-2.254-4.611-1.32-9.734,2.111-11.428&#xD;&#xA;&#x9;C40.111,16.872,44.756,19.259,47.01,23.868z"/>
    <path id="ID0.814307457767427_16_" fill="#414142" d="M46.234,27.702c-0.121,0.994-1.025,1.789-1.918,1.678&#xD;&#xA;&#x9;c-0.992-0.121-1.59-1.002-1.455-2.092c0.121-0.994,1.025-1.789,1.918-1.68C45.674,25.718,46.369,26.612,46.234,27.702"/>
    <path id="ID0.5240494590252638_16_" fill="#5F4B43" stroke="#8E5322" stroke-width="1.4" stroke-linecap="round" stroke-linejoin="round" d="&#xD;&#xA;&#x9;M56.717,35.038c1.713,0.01,4.156-1,4.219,0.924c-0.098,0.793-2.088,3.873-3.887,3.752c-1.998-0.145-5.164-3.055-4.883-4.531&#xD;&#xA;&#x9;S55.203,35.054,56.717,35.038z"/>
    <path id="ID0.046259244438260794_16_" fill="#FFFFFF" stroke="#8E5322" stroke-width="1.4" stroke-linecap="round" stroke-linejoin="round" d="&#xD;&#xA;&#x9;M45.803,49.212c0,0,2.201,2.586,7.695,2.156"/>
    <path id="ID0.15909873321652412_12_" fill="#FAA51F" stroke="#8E5322" stroke-width="1.4" stroke-linecap="round" stroke-linejoin="round" d="&#xD;&#xA;&#x9;M39.525,58.255c-0.076,0.258,13.992,8.297,13.754,8.404c-1.822,0.825-4.135,1.682-5.042,1.769&#xD;&#xA;&#x9;c-4.139,0.396-9.884-1.364-13.993-4.668l-0.892-1.099"/>
    <path id="ID0.8143284288235009_12_" fill="#FAA51F" stroke="#8E5322" stroke-width="1.4" stroke-linecap="round" stroke-linejoin="round" d="&#xD;&#xA;&#x9;M45.92,61.426l-4.598-1.728"/>
    <path id="ID0.1790580078959465_16_" fill="#FAA51F" stroke="#8E5322" stroke-width="1.4" stroke-linecap="round" stroke-linejoin="round" d="&#xD;&#xA;&#x9;M42.025,60.19c-1.055-0.479,4.438,1.406,5.344,1.235c0.823-0.155,2.442-0.864,3.068-1.486c3.74-3.72,7.668-2.279,8.347-0.804&#xD;&#xA;&#x9;c1.704,3.623-2.242,6.994-10.547,9.292"/>
  </g>
</svg>