<svg version="1.1" width="481" height="371" viewBox="-1 -1 481 371" xmlns="http://www.w3.org/2000/svg" xmlns:xlink="http://www.w3.org/1999/xlink">
  <!-- Exported by Scratch - http://scratch.mit.edu/ -->
  <path id="ID0.8810975844971836" fill="#FFFF00" stroke="#FFFF00" stroke-width="2" d="M 0 173 L 480 173 L 480 360 L 0 360 L 0 173 Z " transform="matrix(0.9835062026977539, 0, 0, 1.4021164178848267, 1.85, -146.15)"/>
  <path id="ID0.06072556460276246" fill="#FF00BF" stroke="#FF00BF" stroke-width="2" d="M 76 0 L 167 0 L 167 91 L 76 91 L 76 0 Z " transform="matrix(1, 0, 0, 1, -2, 1)"/>
  <path id="ID0.5206281039863825" fill="none" stroke="#666666" stroke-width="2" stroke-linecap="round" d="M 74 0 L 74 93 L 439 93 " transform="matrix(1, 0, 0, 1, -2, 1)"/>
  <path id="ID0.9117856617085636" fill="#666666" stroke="#666666" stroke-width="2" stroke-linecap="round" d="M 296 360 L 480 119 L 480 360 L 296 360 Z " transform="matrix(1.0910539627075195, 0, 0, 0.9788056015968323, -44.75, 15.65)"/>
  <text id="ID0.5959929209202528" fill="#FFFF00" x="359" y="283.25" text-anchor="start" font-family="Scratch" font-size="22" transform="matrix(1.1818181276321411, 0, 0, 1.1818181276321411, 406.05, 217.15)">yellowmakesyouhaveto goright</text>
  <path id="ID0.500338920392096" fill="#FFFF00" stroke="#FFFF00" stroke-width="2" d="M 457 3 L 478 3 L 478 130 L 457 130 L 457 3 Z " transform="matrix(0.21521739661693573, 0, 0, 1, 373.2, 1)"/>
  <path id="ID0.16443339735269547" fill="none" stroke="#666666" stroke-width="2" stroke-linecap="round" d="M 479 0 L 479 164 " transform="matrix(1, 0, 0, 1, -2, 1)"/>
</svg>