<svg version="1.1" x="0px" y="0px" width="128px" height="128px" viewBox="-28.255 -20.923 128 128" enable-background="new -28.255 -20.923 128 128" xml:space="preserve" xmlns="http://www.w3.org/2000/svg" xmlns:xlink="http://www.w3.org/1999/xlink" xmlns:a="http://ns.adobe.com/AdobeSVGViewerExtensions/3.0/">
  <defs/>
  <g>
    <path id="ID0.15909873321652412_13_" fill="#FAA51F" stroke="#8E5322" stroke-width="1.4" stroke-linecap="round" stroke-linejoin="round" d="&#xD;&#xA;&#x9;M21.492,62.46c-2.646-6.601-3.373-4.072-2.412-6.767c3.626-3.646,12.461-3.528,18.21-1.327l2.815,7.514"/>
    <path id="ID0.8143284288235009_12_" fill="#FAA51F" stroke="#8E5322" stroke-width="1.4" stroke-linecap="round" stroke-linejoin="round" d="&#xD;&#xA;&#x9;M26.172,60.545l5.625-0.146"/>
    <path id="ID0.6682511982508004_12_" fill="none" stroke="#8E5322" stroke-width="1.4" stroke-linecap="round" stroke-linejoin="round" d="&#xD;&#xA;&#x9;M25.369,60.834l-0.406-1.838"/>
    <path id="ID0.1790580078959465_17_" fill="#FAA51F" stroke="#8E5322" stroke-width="1.4" stroke-linecap="round" stroke-linejoin="round" d="&#xD;&#xA;&#x9;M25.259,61.293c1.262,5.745-2.111,8.438-3.792,8.178c-3.964-0.579-5.318-5.331-2.621-13.611"/>
    <path id="ID0.8535828334279358_16_" fill="#FAA51F" d="M20.485,74.101c-2.368-0.824-5.075-2.121-7.185-4.77&#xD;&#xA;&#x9;c-4.66-5.855-5.109-14.348-9.306-12.824c-4.196,1.525-6.179,14.917,5.309,20.855c3.972,2.105,7.828,2.712,10.867,3.082&#xD;&#xA;&#x9;c0.812,0.138,7.859,0.499,10.729-2.627c2.869-3.131,1.381-4.22,0.631-4.863C30.787,72.407,23.791,75.351,20.485,74.101z"/>
    <path id="ID0.914295740891248_16_" fill="#FFFFFF" d="M4.188,56.392c-2.079,0.361-4.028,5.025-3.646,8.705&#xD;&#xA;&#x9;c0.482,3.674,2.076,6.158,3.096,7.686C5.04,74.079,3.4,69.69,5.793,68.205c2.394-1.489,6.404-0.191,6.404-0.191&#xD;&#xA;&#x9;s-2.475-4.825-3.785-7.53C7.315,57.958,6.381,56.222,4.188,56.392z"/>
    <path id="ID0.40227043256163597_16_" fill="none" stroke="#8E5322" stroke-width="1.4" stroke-linecap="round" stroke-linejoin="round" d="&#xD;&#xA;&#x9;M20.485,74.101c-2.368-0.824-5.075-2.121-7.185-4.77c-4.66-5.855-5.109-14.348-9.306-12.824c-4.196,1.525-6.179,14.917,5.309,20.855&#xD;&#xA;&#x9;c3.972,2.105,7.828,2.712,10.867,3.082c0.812,0.138,7.859,0.499,10.729-2.627c2.869-3.131,1.381-4.22,0.631-4.863&#xD;&#xA;&#x9;C30.787,72.407,23.791,75.351,20.485,74.101z"/>
    <path id="ID0.007584026083350182_16_" fill="#FAA51F" stroke="#8E5322" stroke-width="1.4" stroke-linecap="round" stroke-linejoin="round" d="&#xD;&#xA;&#x9;M42.436,74.015c0,0-2.446,4.517-2.442,13.353c-0.042,3.813,7.416-0.832,6.253,6.493c-0.386,2.075-9.532,2.048-11.552,1.062&#xD;&#xA;&#x9;c-1.83-0.868-2.264-1.609-1.787-3.574c1.751-7.172-3.024-19.389-3.024-19.389"/>
    <path id="ID0.31672530295327306_16_" fill="#FAA51F" stroke="#8E5322" stroke-width="1.4" stroke-linecap="round" stroke-linejoin="round" d="&#xD;&#xA;&#x9;M41.541,88.967c0,0-0.991-0.271-2.571-0.519"/>
    <path id="ID0.46792364912107587_16_" fill="#FAA51F" stroke="#8E5322" stroke-width="1.4" stroke-linecap="round" stroke-linejoin="round" d="&#xD;&#xA;&#x9;M46.618,64.915c-1.887,6.428-3.016,16.311-14.435,12.959c-11.419-3.35-7.827-11.678-5.94-18.105&#xD;&#xA;&#x9;c1.886-6.43,6.325-7.002,12.756-5.115C45.428,56.54,48.505,58.485,46.618,64.915z"/>
    <path id="ID0.38032895559445024_22_" fill="#FFFFFF" d="M44.307,66.964c-1.184,4.031-2.094,10.328-8.236,8.525&#xD;&#xA;&#x9;c-6.141-1.801-4.055-7.129-2.873-11.16c1.184-4.029,3.633-4.561,7.183-3.52C43.932,61.851,45.488,62.935,44.307,66.964z"/>
    <path id="ID0.527006761636585_19_" fill="#FAA51F" stroke="#8E5322" stroke-width="1.4" stroke-linecap="round" stroke-linejoin="round" d="&#xD;&#xA;&#x9;M24.685,71.735c0,0,0.217,5.7-0.205,7.043c-1.609-2.627-2.109-3.873-4.966-1.525c-1.657,1.362-5.34,4.508-4.021,6.628&#xD;&#xA;&#x9;c4.768,6.547,3.729-2.764,12.034,3.207c2.5,1.577,6.956,1.879,6.474-9.194"/>
    <path id="ID0.8937406223267317_35_" fill="#FAA51F" stroke="#8E5322" stroke-width="1.4" stroke-linecap="round" stroke-linejoin="round" d="&#xD;&#xA;&#x9;M25.602,86.073c-0.846-0.751-2.58-1.635-3.763-2.407"/>
    <path id="ID0.8937406223267317_26_" fill="#FAA51F" stroke="#8E5322" stroke-width="1.4" stroke-linecap="round" stroke-linejoin="round" d="&#xD;&#xA;&#x9;M25.809,81.247c-0.382-0.443-0.802-2.76-1.246-4.044"/>
    <path id="ID0.2591130444779992_16_" fill="#FAA51F" d="M52.396,10.548c-1.477-0.281-4.528-0.859-6.228-0.967&#xD;&#xA;&#x9;c-4.591-0.365-9.066,0.797-9.066,0.797L25.6,0.7l-0.053,18.432c0.693-0.721-11.639,11.061-6.232,22.811&#xD;&#xA;&#x9;c5.491,11.859,19.383,18.506,37.887,17.156s24.055-11.244,23.535-16.85s-7.111-8.533-7.111-8.533s0.426-4.281-2.002-9.918&#xD;&#xA;&#x9;c-1.494-3.41-7.086-8.732-7.086-8.732L63.125,3.606l-8,6.068L52.396,10.548z"/>
    <path id="ID0.3588979784399271_16_" fill="#FFFFFF" d="M72.746,33.507l-2.139-2.279l-9.053,1.506c0,0-0.402,3.275-4.68,3.656&#xD;&#xA;&#x9;c-4.279,0.379-11.132-2.076-11.132-2.076l-7.267,0.92c0,0-7.979-1.486-9.159,4.816C27.269,50.981,35.851,57.378,44.3,58.317&#xD;&#xA;&#x9;c5.459,0.672,9.019,0.404,12.976,0.188c17.449-0.977,23.582-10.699,22.766-16.342c-0.52-5.605-6.873-8-6.873-8L72.746,33.507z"/>
    <path id="ID0.2727069961838424_16_" fill="none" stroke="#8E5322" stroke-width="1.4" stroke-linecap="round" stroke-linejoin="round" d="&#xD;&#xA;&#x9;M77.047,39.478c0,0,4.432-0.457,6.672-1.133c2.646-0.756,4.533-2.251,4.533-2.251"/>
    <path id="ID0.5861211125738919_16_" fill="none" stroke="#8E5322" stroke-width="1.4" stroke-linecap="round" stroke-linejoin="round" d="&#xD;&#xA;&#x9;M76.836,45.294c0,0,2.576,1.155,5.373,1.412c2.693,0.353,4.494,0.191,4.494,0.191"/>
    <path id="ID0.4793355236761272_16_" fill="none" stroke="#8E5322" stroke-width="1.4" stroke-linecap="round" stroke-linejoin="round" d="&#xD;&#xA;&#x9;M35.003,8.608l4.722,4.209"/>
    <path id="ID0.48413723474368453_16_" fill="none" stroke="#8E5322" stroke-width="1.4" stroke-linecap="round" stroke-linejoin="round" d="&#xD;&#xA;&#x9;M52.396,10.548c-1.477-0.281-4.528-0.859-6.228-0.967c-4.591-0.365-9.066,0.797-9.066,0.797L25.6,0.7l-0.053,18.432&#xD;&#xA;&#x9;c0.693-0.721-11.639,11.061-6.232,22.811c5.491,11.859,19.383,18.506,37.887,17.156s24.055-11.244,23.535-16.85&#xD;&#xA;&#x9;s-7.111-8.533-7.111-8.533s0.426-4.281-2.002-9.918c-1.494-3.41-7.086-8.732-7.086-8.732L63.125,3.606l-8,6.068L52.396,10.548z"/>
    <path id="ID0.9024141579866409_16_" fill="none" stroke="#8E5322" stroke-width="1.4" stroke-linecap="round" stroke-linejoin="round" d="&#xD;&#xA;&#x9;M8.293,35.778c0,0,3.859,1.12,5.648,1.344c1.791,0.229,5.321,0.371,5.321,0.371"/>
    <path id="ID0.16030752705410123_16_" fill="none" stroke="#8E5322" stroke-width="1.4" stroke-linecap="round" stroke-linejoin="round" d="&#xD;&#xA;&#x9;M19.93,33.655c0,0-1.874-2.161-5.04-4.508c-3.513-2.624-5.573-3.492-5.573-3.492"/>
    <path id="ID0.40023312577977777_16_" fill="#FFFFFF" stroke="#8E5322" stroke-width="1.4" stroke-linecap="round" stroke-linejoin="round" d="&#xD;&#xA;&#x9;M69.428,23.628c2.252,4.609,1.74,9.584-1.145,10.941c-2.9,1.457-7.109-1.178-9.352-5.887c-2.254-4.609-1.742-9.586,1.145-10.943&#xD;&#xA;&#x9;C62.967,16.384,67.174,19.017,69.428,23.628z"/>
    <path id="ID0.43813491938635707_16_" fill="#414142" d="M68.887,27.188c0.178,1.029-0.441,1.961-1.471,2.135&#xD;&#xA;&#x9;c-0.93,0.189-1.85-0.529-2.012-1.658c-0.176-1.027,0.441-1.959,1.471-2.135C67.893,25.454,68.711,26.159,68.887,27.188"/>
    <path id="ID0.4253597157076001_16_" fill="#FFFFFF" stroke="#8E5322" stroke-width="1.4" stroke-linecap="round" stroke-linejoin="round" d="&#xD;&#xA;&#x9;M46.022,23.868c2.254,4.611,1.319,9.734-2.112,11.43c-3.434,1.691-8.077-0.693-10.319-5.402c-2.252-4.609-1.32-9.734,2.111-11.426&#xD;&#xA;&#x9;C39.124,16.874,43.768,19.259,46.022,23.868z"/>
    <path id="ID0.814307457767427_16_" fill="#414142" d="M45.247,27.704c-0.121,0.992-1.026,1.787-1.919,1.678&#xD;&#xA;&#x9;c-0.992-0.123-1.59-1.002-1.455-2.094c0.121-0.992,1.026-1.789,1.919-1.678C44.686,25.72,45.382,26.612,45.247,27.704"/>
    <path id="ID0.5240494590252638_16_" fill="#5F4B43" stroke="#8E5322" stroke-width="1.4" stroke-linecap="round" stroke-linejoin="round" d="&#xD;&#xA;&#x9;M55.73,35.04c1.713,0.008,4.154-1,4.219,0.922c-0.098,0.793-2.09,3.875-3.887,3.752c-1.998-0.145-5.166-3.053-4.885-4.529&#xD;&#xA;&#x9;C51.46,33.708,54.217,35.056,55.73,35.04z"/>
    <path id="ID0.046259244438260794_16_" fill="#FFFFFF" stroke="#8E5322" stroke-width="1.4" stroke-linecap="round" stroke-linejoin="round" d="&#xD;&#xA;&#x9;M44.815,49.212c0,0,2.2,2.588,7.694,2.156"/>
    <path id="ID0.15909873321652412_12_" fill="#FAA51F" stroke="#8E5322" stroke-width="1.4" stroke-linecap="round" stroke-linejoin="round" d="&#xD;&#xA;&#x9;M40.843,59.053c-0.162,0.214,10.138,10.98,9.884,11.032c-1.985,0.403-4.383,1.771-5.263,1.538c-4.019-1.071-8.79-4.724-11.489-9.251&#xD;&#xA;&#x9;l-0.454-1.34"/>
    <path id="ID0.1790580078959465_16_" fill="#FAA51F" stroke="#8E5322" stroke-width="1.4" stroke-linecap="round" stroke-linejoin="round" d="&#xD;&#xA;&#x9;M42.847,61.746c0.673,0.8,2.337,2.81,3.255,2.697c0.829-0.104,1.825-0.59,2.489-1.172c3.965-3.478,7.795-1.795,8.38-0.28&#xD;&#xA;&#x9;c1.474,3.723-2.674,6.841-11.106,8.614"/>
  </g>
</svg>