<svg version="1.1" x="0px" y="0px" width="128px" height="128px" viewBox="-27.875 -20.604 128 128" enable-background="new -27.875 -20.604 128 128" xml:space="preserve" xmlns="http://www.w3.org/2000/svg" xmlns:xlink="http://www.w3.org/1999/xlink" xmlns:a="http://ns.adobe.com/AdobeSVGViewerExtensions/3.0/">
  <defs/>
  <g>
    <path id="ID0.007584026083350182_16_" fill="#FAA51F" stroke="#8E5322" stroke-width="1.4" stroke-linecap="round" stroke-linejoin="round" d="&#xD;&#xA;&#x9;M33.96,76.47c0,0-6.594,2.605-13.396,8.246c-2.963,2.398,4.602,5.818-1.781,9.596c-1.844,1.023-6.887-6.674-7.418-8.857&#xD;&#xA;&#x9;c-0.498-1.965-0.203-2.771,1.615-3.658c6.641-3.225,13.771-13.805,13.771-13.805"/>
    <path id="ID0.31672530295327306_16_" fill="#FAA51F" stroke="#8E5322" stroke-width="1.4" stroke-linecap="round" stroke-linejoin="round" d="&#xD;&#xA;&#x9;M20.212,87.384c0,0-0.57-1.186-1.668-2.25"/>
    <path id="ID0.8535828334279358_16_" fill="#FAA51F" d="M23.595,74.337c-2.508,0.049-5.496-0.234-8.389-1.988&#xD;&#xA;&#x9;C8.806,68.46,5.448,60.649,2.04,63.53c-3.412,2.881-0.643,16.133,12.191,17.734c4.451,0.602,8.283-0.164,11.26-0.867&#xD;&#xA;&#x9;c0.811-0.152,7.549-2.248,9.16-6.176c1.611-3.926-0.16-4.436-1.088-4.779C32.675,69.188,27.13,74.366,23.595,74.337z"/>
    <path id="ID0.914295740891248_16_" fill="#FFFFFF" d="M2.179,63.356c-1.826,1.057-2.043,6.105-0.412,9.428&#xD;&#xA;&#x9;c1.723,3.279,4.076,5.063,5.563,6.141c1.766,0.732-1.289-2.816,0.439-5.039c1.732-2.227,5.945-2.395,5.945-2.395&#xD;&#xA;&#x9;s-3.99-3.67-6.156-5.758C5.655,63.743,4.179,62.44,2.179,63.356z"/>
    <path id="ID0.40227043256163597_16_" fill="none" stroke="#8E5322" stroke-width="1.4" stroke-linecap="round" stroke-linejoin="round" d="&#xD;&#xA;&#x9;M23.595,74.337c-2.508,0.049-5.496-0.234-8.389-1.988C8.806,68.46,5.448,60.649,2.04,63.53c-3.412,2.881-0.643,16.133,12.191,17.734&#xD;&#xA;&#x9;c4.451,0.602,8.283-0.164,11.26-0.867c0.811-0.152,7.549-2.248,9.16-6.176c1.611-3.926-0.16-4.436-1.088-4.779&#xD;&#xA;&#x9;C32.675,69.188,27.13,74.366,23.595,74.337z"/>
    <path id="ID0.46792364912107587_16_" fill="#FAA51F" stroke="#8E5322" stroke-width="1.4" stroke-linecap="round" stroke-linejoin="round" d="&#xD;&#xA;&#x9;M47.761,63.321c-1.887,6.43-3.016,16.313-14.436,12.961c-11.418-3.352-7.826-11.678-5.939-18.107s6.326-7.002,12.756-5.115&#xD;&#xA;&#x9;C46.569,54.948,49.647,56.894,47.761,63.321z"/>
    <path id="ID0.38032895559445024_22_" fill="#FFFFFF" d="M46.708,65.833c-0.896,4.188-2.102,5.031-8.207,3.115&#xD;&#xA;&#x9;c-1.684-0.529-1.344-1.18-0.16-5.211s3.618-4.52,7.182-3.52C47.938,60.896,47.551,61.891,46.708,65.833z"/>
    <path id="ID0.2591130444779992_16_" fill="#FAA51F" d="M53.692,10.548c-1.477-0.283-4.529-0.861-6.229-0.969&#xD;&#xA;&#x9;c-4.59-0.363-9.064,0.799-9.064,0.799L26.896,0.7l-0.053,18.432c0.693-0.721-11.639,11.061-6.232,22.809&#xD;&#xA;&#x9;c5.49,11.859,19.383,18.508,37.885,17.158c18.504-1.35,24.055-11.244,23.535-16.85s-7.111-8.533-7.111-8.533s0.426-4.281-2.002-9.92&#xD;&#xA;&#x9;c-1.494-3.408-7.086-8.732-7.086-8.732l-1.41-11.457l-8.002,6.068L53.692,10.548z"/>
    <path id="ID0.3588979784399271_16_" fill="#FFFFFF" d="M74.04,33.507l-2.139-2.279l-9.051,1.506c0,0-0.402,3.275-4.682,3.656&#xD;&#xA;&#x9;c-4.279,0.379-11.131-2.076-11.131-2.076l-7.266,0.918c0,0-7.979-1.486-9.158,4.818c-2.051,10.93,6.533,17.328,14.98,18.266&#xD;&#xA;&#x9;c5.459,0.674,9.02,0.406,12.975,0.188c17.449-0.975,23.582-10.697,22.766-16.342c-0.52-5.604-6.873-7.998-6.873-7.998L74.04,33.507z&#xD;&#xA;&#x9;"/>
    <path id="ID0.2727069961838424_16_" fill="none" stroke="#8E5322" stroke-width="1.4" stroke-linecap="round" stroke-linejoin="round" d="&#xD;&#xA;&#x9;M78.341,39.476c0,0,4.406,0.656,6.746,0.557c2.75-0.074,4.949-1.059,4.949-1.059"/>
    <path id="ID0.5861211125738919_16_" fill="none" stroke="#8E5322" stroke-width="1.4" stroke-linecap="round" stroke-linejoin="round" d="&#xD;&#xA;&#x9;M78.13,45.294c0,0,2.164,1.811,4.785,2.822c2.494,1.072,4.273,1.408,4.273,1.408"/>
    <path id="ID0.4793355236761272_16_" fill="none" stroke="#8E5322" stroke-width="1.4" stroke-linecap="round" stroke-linejoin="round" d="&#xD;&#xA;&#x9;M36.3,8.608l4.721,4.209"/>
    <path id="ID0.48413723474368453_16_" fill="none" stroke="#8E5322" stroke-width="1.4" stroke-linecap="round" stroke-linejoin="round" d="&#xD;&#xA;&#x9;M53.692,10.548c-1.477-0.283-4.529-0.861-6.229-0.969c-4.59-0.363-9.064,0.799-9.064,0.799L26.896,0.7l-0.053,18.432&#xD;&#xA;&#x9;c0.693-0.721-11.639,11.061-6.232,22.809c5.49,11.859,19.383,18.508,37.885,17.158c18.504-1.35,24.055-11.244,23.535-16.85&#xD;&#xA;&#x9;s-7.111-8.533-7.111-8.533s0.426-4.281-2.002-9.92c-1.494-3.408-7.086-8.732-7.086-8.732l-1.41-11.457l-8.002,6.068L53.692,10.548z"/>
    <path id="ID0.9024141579866409_16_" fill="none" stroke="#8E5322" stroke-width="1.4" stroke-linecap="round" stroke-linejoin="round" d="&#xD;&#xA;&#x9;M9.548,38.796c0,0,4.02,0.004,5.801-0.275c1.783-0.277,5.215-1.119,5.215-1.119"/>
    <path id="ID0.16030752705410123_16_" fill="none" stroke="#8E5322" stroke-width="1.4" stroke-linecap="round" stroke-linejoin="round" d="&#xD;&#xA;&#x9;M21.226,33.655c-2.338-1.5-2.318-1.512-6.107-2.9c-4.109-1.529-6.332-1.783-6.332-1.783"/>
    <path id="ID0.40023312577977777_16_" fill="#FFFFFF" stroke="#8E5322" stroke-width="1.4" stroke-linecap="round" stroke-linejoin="round" d="&#xD;&#xA;&#x9;M70.722,23.626c2.252,4.609,1.74,9.586-1.145,10.943c-2.9,1.455-7.109-1.178-9.352-5.887c-2.254-4.609-1.74-9.586,1.146-10.943&#xD;&#xA;&#x9;C64.261,16.382,68.468,19.017,70.722,23.626z"/>
    <path id="ID0.43813491938635707_16_" fill="#414142" d="M70.181,27.188c0.178,1.027-0.441,1.959-1.471,2.135&#xD;&#xA;&#x9;c-0.93,0.188-1.848-0.531-2.01-1.658c-0.178-1.029,0.439-1.961,1.469-2.137C69.187,25.452,70.005,26.159,70.181,27.188"/>
    <path id="ID0.4253597157076001_16_" fill="#FFFFFF" stroke="#8E5322" stroke-width="1.4" stroke-linecap="round" stroke-linejoin="round" d="&#xD;&#xA;&#x9;M47.317,23.868c2.254,4.611,1.32,9.734-2.111,11.428c-3.434,1.693-8.076-0.691-10.318-5.4c-2.254-4.609-1.32-9.734,2.111-11.428&#xD;&#xA;&#x9;C40.419,16.872,45.063,19.259,47.317,23.868z"/>
    <path id="ID0.814307457767427_16_" fill="#414142" d="M46.542,27.704c-0.121,0.992-1.025,1.787-1.918,1.676&#xD;&#xA;&#x9;c-0.992-0.121-1.59-1.002-1.455-2.092c0.121-0.992,1.025-1.789,1.918-1.678C45.981,25.72,46.677,26.612,46.542,27.704"/>
    <path id="ID0.5240494590252638_16_" fill="#5F4B43" stroke="#8E5322" stroke-width="1.4" stroke-linecap="round" stroke-linejoin="round" d="&#xD;&#xA;&#x9;M57.024,35.038c1.713,0.01,4.156-1,4.219,0.924c-0.098,0.793-2.088,3.873-3.887,3.752c-1.998-0.145-5.164-3.055-4.883-4.531&#xD;&#xA;&#x9;S55.511,35.054,57.024,35.038z"/>
    <path id="ID0.046259244438260794_16_" fill="#FFFFFF" stroke="#8E5322" stroke-width="1.4" stroke-linecap="round" stroke-linejoin="round" d="&#xD;&#xA;&#x9;M46.11,49.212c0,0,2.201,2.586,7.695,2.156"/>
    <path id="ID0.527006761636585_19_" fill="#FAA51F" stroke="#8E5322" stroke-width="1.4" stroke-linecap="round" stroke-linejoin="round" d="&#xD;&#xA;&#x9;M34.831,76.401c0,0,5.311,0.967,6.424,1.828c-3.123,2.396-4.74-0.268-3.148,4.129c0.73,2.02,2.381,6.572,4.83,6.066&#xD;&#xA;&#x9;c7.791-2.211-1.305-4.455,7.17-10.184c2.23-1.715,5.219-5.666-2.65-7.992c-0.398-0.119-7.191-1.191-7.648-1.301"/>
    <path id="ID0.8937406223267317_35_" fill="#FAA51F" stroke="#8E5322" stroke-width="1.4" stroke-linecap="round" stroke-linejoin="round" d="&#xD;&#xA;&#x9;M48.487,79.696c-0.996,0.535-2.426,1.855-3.559,2.699"/>
    <path id="ID0.8937406223267317_26_" fill="#FAA51F" stroke="#8E5322" stroke-width="1.4" stroke-linecap="round" stroke-linejoin="round" d="&#xD;&#xA;&#x9;M44.03,77.835c-0.547,0.205-2.867-0.203-4.223-0.23"/>
    <path id="ID0.15909873321652412_12_" fill="#FAA51F" stroke="#8E5322" stroke-width="1.4" stroke-linecap="round" stroke-linejoin="round" d="&#xD;&#xA;&#x9;M35.15,58.744c-0.269-0.003-3.588,12.346-3.848,12.346c-2.011,0.001-3.677-0.931-4.011-1.777c-1.52-3.871-0.933-10.297,1.114-15.155&#xD;&#xA;&#x9;l0.81-1.159"/>
    <path id="ID0.1790580078959465_16_" fill="#FAA51F" stroke="#8E5322" stroke-width="1.4" stroke-linecap="round" stroke-linejoin="round" d="&#xD;&#xA;&#x9;M31.831,64.739c5.71-1.414,11.507,1.403,11.292,3.092c-0.472,3.977-5.186,5.461-13.536,2.984"/>
  </g>
</svg>