<svg version="1.1" x="0px" y="0px" width="128px" height="128px" viewBox="-29.024 -19.23 128 128" enable-background="new -29.024 -19.23 128 128" xml:space="preserve" xmlns="http://www.w3.org/2000/svg" xmlns:xlink="http://www.w3.org/1999/xlink" xmlns:a="http://ns.adobe.com/AdobeSVGViewerExtensions/3.0/">
  <defs/>
  <g>
    <path id="ID0.15909873321652412_37_" fill="#FAA51F" stroke="#8E5322" stroke-width="1.4" stroke-linecap="round" stroke-linejoin="round" d="&#xD;&#xA;&#x9;M39.973,58.239c-0.119,0.241,12.062,8.502,11.809,8.567c-1.936,0.507-4.025,2.993-4.934,2.927&#xD;&#xA;&#x9;c-4.146-0.306-9.513-3.009-13.008-6.956l-0.694-1.233"/>
    <path id="ID0.1790580078959465_41_" fill="#FAA51F" stroke="#8E5322" stroke-width="1.4" stroke-linecap="round" stroke-linejoin="round" d="&#xD;&#xA;&#x9;M44.181,61.529c1.135,0.663,1.849,1.131,2.768,1.049c0.834-0.073,2.515-0.619,3.199-1.177c4.087-3.336,7.855-1.517,8.386,0.02&#xD;&#xA;&#x9;c1.34,3.771-2.918,6.739-11.409,8.211"/>
    <path id="ID0.527006761636585_19_" fill="#FAA51F" stroke="#8E5322" stroke-width="1.4" stroke-linecap="round" stroke-linejoin="round" d="&#xD;&#xA;&#x9;M26.112,70.289c0,0-6.518,5.418-7.813,6.055c-1.25-1.699-2.58-1.986-4.415-0.887c-1.904,1.168-7.706,6.082-6.115,8.009&#xD;&#xA;&#x9;c4.764,5.938,6.968-2.108,9.947,0.326c2.066,0.904,9.621-6.284,18.222-6.957"/>
    <path id="ID0.8937406223267317_26_" fill="#FAA51F" stroke="#8E5322" stroke-width="1.4" stroke-linecap="round" stroke-linejoin="round" d="&#xD;&#xA;&#x9;M17.532,83.713c-1.15-0.897-1.933-2.306-1.933-2.306"/>
    <path id="ID0.8535828334279358_16_" fill="#FAA51F" d="M22.999,71.429c-2.503-0.153-5.46-0.672-8.203-2.653&#xD;&#xA;&#x9;c-6.068-4.387-8.79-12.441-12.419-9.843c-3.63,2.599-1.929,16.03,10.734,18.654c4.392,0.955,8.27,0.497,11.294,0.036&#xD;&#xA;&#x9;c0.819-0.088,7.705-1.639,9.625-5.424c1.92-3.786,0.193-4.435-0.704-4.853C32.463,67.024,26.52,71.741,22.999,71.429z"/>
    <path id="ID0.914295740891248_16_" fill="#FFFFFF" d="M2.53,58.771c-1.905,0.907-2.524,5.921-1.166,9.363&#xD;&#xA;&#x9;c1.456,3.408,3.659,5.372,5.054,6.568c1.701,0.868-1.061-2.912,0.842-4.989c1.903-2.08,6.115-1.91,6.115-1.91&#xD;&#xA;&#x9;s-3.683-3.978-5.674-6.234C5.964,59.436,4.597,58.018,2.53,58.771z"/>
    <path id="ID0.40227043256163597_16_" fill="none" stroke="#8E5322" stroke-width="1.4" stroke-linecap="round" stroke-linejoin="round" d="&#xD;&#xA;&#x9;M22.999,71.429c-2.503-0.153-5.46-0.672-8.203-2.653c-6.068-4.387-8.79-12.441-12.419-9.843c-3.63,2.599-1.929,16.03,10.734,18.654&#xD;&#xA;&#x9;c4.392,0.955,8.27,0.497,11.294,0.036c0.819-0.088,7.705-1.639,9.625-5.424c1.92-3.786,0.193-4.435-0.704-4.853&#xD;&#xA;&#x9;C32.463,67.024,26.52,71.741,22.999,71.429z"/>
    <path id="ID0.46792364912107587_16_" fill="#FAA51F" stroke="#8E5322" stroke-width="1.4" stroke-linecap="round" stroke-linejoin="round" d="&#xD;&#xA;&#x9;M47.087,64.321c-1.887,6.43-3.016,16.313-14.435,12.961s-7.827-11.678-5.94-18.107s6.326-7.002,12.756-5.115&#xD;&#xA;&#x9;C45.896,55.948,48.974,57.894,47.087,64.321z"/>
    <path id="ID0.38032895559445024_22_" fill="#FFFFFF" d="M45.743,67.457c-1.184,4.031-1.265,5.018-2.662,4.397&#xD;&#xA;&#x9;c-5.441-2.415-6.635-2.847-5.452-6.878c1.184-4.031,3.632-4.563,7.182-3.52C48.362,62.498,46.924,63.43,45.743,67.457z"/>
    <path id="ID0.007584026083350182_16_" fill="#FAA51F" stroke="#8E5322" stroke-width="1.4" stroke-linecap="round" stroke-linejoin="round" d="&#xD;&#xA;&#x9;M44.264,71.611c0,0,1.507,6.93,5.977,14.551c1.891,3.313,6.484-3.604,9.183,3.305c0.716,1.985-7.695,5.722-9.937,5.895&#xD;&#xA;&#x9;c-2.018,0.174-2.768-0.245-3.348-2.184C44.025,86.104,34.733,77.36,34.733,77.36"/>
    <path id="ID0.31672530295327306_16_" fill="#FAA51F" stroke="#8E5322" stroke-width="1.4" stroke-linecap="round" stroke-linejoin="round" d="&#xD;&#xA;&#x9;M52.818,86.94c0,0-1.262,0.372-2.49,1.282"/>
    <path id="ID0.15909873321652412_36_" fill="#FAA51F" stroke="#8E5322" stroke-width="1.4" stroke-linecap="round" stroke-linejoin="round" d="&#xD;&#xA;&#x9;M33.091,61.641c0.037-0.266-14.748-5.422-14.529-5.563c1.678-1.09,3.502-2.96,4.386-3.183c4.032-1.016,9.977-0.139,14.536,2.51&#xD;&#xA;&#x9;l2.091,1.901"/>
    <path id="ID0.1790580078959465_40_" fill="#FAA51F" stroke="#8E5322" stroke-width="1.4" stroke-linecap="round" stroke-linejoin="round" d="&#xD;&#xA;&#x9;M27.547,59.468c1.451-0.017-3.167-0.451-4.405,2.646c-1.958,4.897-5.977,5.317-7.217,4.27c-3.08-2.559-0.937-7.284,5.608-12.89"/>
    <path id="ID0.2591130444779992_16_" fill="#FAA51F" d="M53.019,10.548c-1.477-0.283-4.528-0.861-6.228-0.969&#xD;&#xA;&#x9;c-4.591-0.363-9.065,0.799-9.065,0.799L26.222,0.7l-0.053,18.432c0.693-0.723-11.639,11.061-6.232,22.809&#xD;&#xA;&#x9;C25.428,53.8,39.319,60.448,57.822,59.099c18.504-1.35,24.055-11.244,23.536-16.85c-0.52-5.605-7.111-8.535-7.111-8.535&#xD;&#xA;&#x9;s0.426-4.279-2.003-9.918c-1.494-3.408-7.086-8.732-7.086-8.732L63.747,3.606l-8.001,6.068L53.019,10.548z"/>
    <path id="ID0.3588979784399271_16_" fill="#FFFFFF" d="M73.367,33.505l-2.138-2.277l-9.053,1.506c0,0-0.402,3.275-4.681,3.656&#xD;&#xA;&#x9;c-4.279,0.379-11.131-2.076-11.131-2.076l-7.267,0.918c0,0-7.979-1.486-9.158,4.818c-2.05,10.93,6.533,17.328,14.981,18.266&#xD;&#xA;&#x9;c5.459,0.674,9.019,0.406,12.975,0.188c17.45-0.975,23.583-10.697,22.767-16.342c-0.521-5.604-6.873-8-6.873-8L73.367,33.505z"/>
    <path id="ID0.2727069961838424_16_" fill="none" stroke="#8E5322" stroke-width="1.4" stroke-linecap="round" stroke-linejoin="round" d="&#xD;&#xA;&#x9;M77.669,39.476c0,0,4.452-0.156,6.733-0.682c2.691-0.574,4.675-1.943,4.675-1.943"/>
    <path id="ID0.5861211125738919_16_" fill="none" stroke="#8E5322" stroke-width="1.4" stroke-linecap="round" stroke-linejoin="round" d="&#xD;&#xA;&#x9;M77.457,45.294c0,0,2.445,1.41,5.201,1.951c2.643,0.627,4.452,0.648,4.452,0.648"/>
    <path id="ID0.4793355236761272_16_" fill="none" stroke="#8E5322" stroke-width="1.4" stroke-linecap="round" stroke-linejoin="round" d="&#xD;&#xA;&#x9;M35.626,8.608l4.721,4.209"/>
    <path id="ID0.48413723474368453_16_" fill="none" stroke="#8E5322" stroke-width="1.4" stroke-linecap="round" stroke-linejoin="round" d="&#xD;&#xA;&#x9;M53.019,10.548c-1.477-0.283-4.528-0.861-6.228-0.969c-4.591-0.363-9.065,0.799-9.065,0.799L26.222,0.7l-0.053,18.432&#xD;&#xA;&#x9;c0.693-0.723-11.639,11.061-6.232,22.809C25.428,53.8,39.319,60.448,57.822,59.099c18.504-1.35,24.055-11.244,23.536-16.85&#xD;&#xA;&#x9;c-0.52-5.605-7.111-8.535-7.111-8.535s0.426-4.279-2.003-9.918c-1.494-3.408-7.086-8.732-7.086-8.732L63.747,3.606l-8.001,6.068&#xD;&#xA;&#x9;L53.019,10.548z"/>
    <path id="ID0.9024141579866409_16_" fill="none" stroke="#8E5322" stroke-width="1.4" stroke-linecap="round" stroke-linejoin="round" d="&#xD;&#xA;&#x9;M8.837,36.343c0,0,3.92,0.887,5.719,1.006c1.801,0.121,5.334,0.053,5.334,0.053"/>
    <path id="ID0.16030752705410123_16_" fill="none" stroke="#8E5322" stroke-width="1.4" stroke-linecap="round" stroke-linejoin="round" d="&#xD;&#xA;&#x9;M20.552,33.655c0,0-2.074-1.969-5.452-3.998c-3.749-2.275-5.884-2.941-5.884-2.941"/>
    <path id="ID0.40023312577977777_16_" fill="#FFFFFF" stroke="#8E5322" stroke-width="1.4" stroke-linecap="round" stroke-linejoin="round" d="&#xD;&#xA;&#x9;M70.05,23.626c2.252,4.609,1.74,9.584-1.146,10.943c-2.9,1.455-7.109-1.18-9.352-5.887c-2.254-4.609-1.741-9.586,1.146-10.943&#xD;&#xA;&#x9;C63.588,16.382,67.796,19.017,70.05,23.626z"/>
    <path id="ID0.43813491938635707_16_" fill="#414142" d="M69.509,27.187c0.177,1.029-0.441,1.961-1.471,2.137&#xD;&#xA;&#x9;c-0.931,0.188-1.85-0.531-2.012-1.658c-0.177-1.029,0.441-1.961,1.47-2.137C68.515,25.452,69.333,26.157,69.509,27.187"/>
    <path id="ID0.4253597157076001_16_" fill="#FFFFFF" stroke="#8E5322" stroke-width="1.4" stroke-linecap="round" stroke-linejoin="round" d="&#xD;&#xA;&#x9;M46.645,23.868c2.254,4.611,1.319,9.734-2.112,11.428c-3.434,1.693-8.076-0.691-10.318-5.4c-2.253-4.611-1.32-9.734,2.111-11.428&#xD;&#xA;&#x9;C39.746,16.872,44.39,19.259,46.645,23.868z"/>
    <path id="ID0.814307457767427_16_" fill="#414142" d="M45.869,27.702c-0.121,0.994-1.026,1.789-1.919,1.678&#xD;&#xA;&#x9;c-0.992-0.121-1.59-1.002-1.455-2.092c0.121-0.994,1.026-1.789,1.919-1.68C45.308,25.718,46.004,26.612,45.869,27.702"/>
    <path id="ID0.5240494590252638_16_" fill="#5F4B43" stroke="#8E5322" stroke-width="1.4" stroke-linecap="round" stroke-linejoin="round" d="&#xD;&#xA;&#x9;M56.352,35.038c1.713,0.01,4.155-1,4.219,0.924c-0.098,0.793-2.089,3.873-3.887,3.752c-1.998-0.145-5.165-3.055-4.884-4.531&#xD;&#xA;&#x9;C52.082,33.706,54.838,35.054,56.352,35.038z"/>
    <path id="ID0.046259244438260794_16_" fill="#FFFFFF" stroke="#8E5322" stroke-width="1.4" stroke-linecap="round" stroke-linejoin="round" d="&#xD;&#xA;&#x9;M45.438,49.212c0,0,2.2,2.586,7.694,2.156"/>
  </g>
</svg>