<svg version="1.1" x="0px" y="0px" width="128px" height="128px" viewBox="-27.818 -22.149 128 128" enable-background="new -27.818 -22.149 128 128" xml:space="preserve" xmlns="http://www.w3.org/2000/svg" xmlns:xlink="http://www.w3.org/1999/xlink" xmlns:a="http://ns.adobe.com/AdobeSVGViewerExtensions/3.0/">
  <defs/>
  <g>
    <path id="ID0.15909873321652412_37_" fill="#FAA51F" stroke="#8E5322" stroke-width="1.4" stroke-linecap="round" stroke-linejoin="round" d="&#xD;&#xA;&#x9;M39.719,58.97c-0.177,0.202,8.937,12.045,8.683,12.102c-2.065,0.458-4.135,1.071-4.995,0.773c-3.929-1.362-8.42-5.354-10.78-10.068&#xD;&#xA;&#x9;l-0.354-1.369"/>
    <path id="ID0.1790580078959465_41_" fill="#FAA51F" stroke="#8E5322" stroke-width="1.4" stroke-linecap="round" stroke-linejoin="round" d="&#xD;&#xA;&#x9;M42.363,62.651c0.724,0.877,1.834,2.163,2.756,2.113c0.834-0.049,1.699-0.492,2.401-1.029c4.189-3.201,7.897-1.263,8.379,0.287&#xD;&#xA;&#x9;c1.219,3.813-3.131,6.645-11.663,7.845"/>
    <path id="ID0.527006761636585_19_" fill="#FAA51F" stroke="#8E5322" stroke-width="1.4" stroke-linecap="round" stroke-linejoin="round" d="&#xD;&#xA;&#x9;M24.754,72.427c0,0,3.275,4.289,3.52,5.676c-3.922-0.328-3.324-3.387-5.107,0.936c-0.818,1.984-2.662,6.463-0.512,7.736&#xD;&#xA;&#x9;c7.248,3.609,2.035-4.172,12.156-2.705c2.947,0.248,8.176-0.77,2.703-8.809"/>
    <path id="ID0.8937406223267317_35_" fill="#FAA51F" stroke="#8E5322" stroke-width="1.4" stroke-linecap="round" stroke-linejoin="round" d="&#xD;&#xA;&#x9;M32.635,84.058c-1.098-0.275-3.043-0.262-4.449-0.4"/>
    <path id="ID0.8937406223267317_26_" fill="#FAA51F" stroke="#8E5322" stroke-width="1.4" stroke-linecap="round" stroke-linejoin="round" d="&#xD;&#xA;&#x9;M30.592,79.681c-0.543-0.217-1.984-2.08-2.969-3.014"/>
    <path id="ID0.8535828334279358_16_" fill="#FAA51F" d="M21.258,74.331c-2.426-0.637-5.225-1.721-7.531-4.197&#xD;&#xA;&#x9;c-5.1-5.48-6.205-13.912-10.27-12.068c-4.066,1.846-5.008,15.35,6.904,20.383c4.121,1.791,8.016,2.098,11.072,2.232&#xD;&#xA;&#x9;c0.82,0.074,7.875-0.109,10.494-3.449c2.619-3.342,1.053-4.313,0.254-4.896C31.396,71.849,24.65,75.323,21.258,74.331z"/>
    <path id="ID0.914295740891248_16_" fill="#FFFFFF" d="M3.639,57.937c-2.045,0.52-3.627,5.32-2.963,8.961&#xD;&#xA;&#x9;c0.766,3.625,2.545,5.979,3.682,7.424c1.5,1.184-0.475-3.064,1.795-4.73c2.271-1.67,6.371-0.686,6.371-0.686&#xD;&#xA;&#x9;s-2.84-4.619-4.355-7.217C6.879,59.255,5.813,57.599,3.639,57.937z"/>
    <path id="ID0.40227043256163597_16_" fill="none" stroke="#8E5322" stroke-width="1.4" stroke-linecap="round" stroke-linejoin="round" d="&#xD;&#xA;&#x9;M21.258,74.331c-2.426-0.637-5.225-1.721-7.531-4.197c-5.1-5.48-6.205-13.912-10.27-12.068c-4.066,1.846-5.008,15.35,6.904,20.383&#xD;&#xA;&#x9;c4.121,1.791,8.016,2.098,11.072,2.232c0.82,0.074,7.875-0.109,10.494-3.449c2.619-3.342,1.053-4.313,0.254-4.896&#xD;&#xA;&#x9;C31.396,71.849,24.65,75.323,21.258,74.331z"/>
    <path id="ID0.46792364912107587_16_" fill="#FAA51F" stroke="#8E5322" stroke-width="1.4" stroke-linecap="round" stroke-linejoin="round" d="&#xD;&#xA;&#x9;M46.512,65.323c-1.887,6.428-3.016,16.311-14.436,12.959c-11.418-3.35-7.826-11.678-5.939-18.105&#xD;&#xA;&#x9;c1.887-6.43,6.326-7.002,12.756-5.115C45.32,56.948,48.398,58.894,46.512,65.323z"/>
    <path id="ID0.007584026083350182_16_" fill="#FAA51F" stroke="#8E5322" stroke-width="1.4" stroke-linecap="round" stroke-linejoin="round" d="&#xD;&#xA;&#x9;M40.568,75.472c0,0,1.982,4.813,1.244,7.459c-3.697,2.539-7.375,4.127-7.375,4.127c0.754,0.289,3.984,0.707,3.627,5.164&#xD;&#xA;&#x9;c-0.199,2.1-9.4,1.9-11.5,1.1c-1.9-0.699-2.4-1.398-2.1-3.4c0.387-2.564,8.971-5.971,9.477-8.449&#xD;&#xA;&#x9;c-1.125-2.182-4.359-6.547-4.359-6.547"/>
    <path id="ID0.31672530295327306_16_" fill="#FAA51F" stroke="#8E5322" stroke-width="1.4" stroke-linecap="round" stroke-linejoin="round" d="&#xD;&#xA;&#x9;M34.67,87.222c0,0-0.654-0.299-2.152,0"/>
    <path id="ID0.38032895559445024_22_" fill="#FFFFFF" d="M45.472,66.938c-1.184,4.031-3.026,10.663-6.065,8.84&#xD;&#xA;&#x9;c-4.592-2.754-5.111-7.058-3.928-11.089c1.184-4.029,3.631-4.561,7.182-3.52S46.653,62.908,45.472,66.938z"/>
    <path id="ID0.15909873321652412_36_" fill="#FAA51F" stroke="#8E5322" stroke-width="1.4" stroke-linecap="round" stroke-linejoin="round" d="&#xD;&#xA;&#x9;M22.186,63.498c-3.188-6.356-3.7-3.774-2.969-6.54c3.309-3.938,12.122-4.56,18.035-2.847l0,0"/>
    <path id="ID0.8143284288235009_3_" fill="#FAA51F" stroke="#8E5322" stroke-width="1.4" stroke-linecap="round" stroke-linejoin="round" d="&#xD;&#xA;&#x9;M26.689,61.197l5.593-0.614"/>
    <path id="ID0.6682511982508004_3_" fill="none" stroke="#8E5322" stroke-width="1.4" stroke-linecap="round" stroke-linejoin="round" d="&#xD;&#xA;&#x9;M25.914,61.554l-0.56-1.798"/>
    <path id="ID0.1790580078959465_40_" fill="#FAA51F" stroke="#8E5322" stroke-width="1.4" stroke-linecap="round" stroke-linejoin="round" d="&#xD;&#xA;&#x9;M26.152,61.528c2.32,5.406-0.485,8.685-2.186,8.746c-4.002,0.178-6.227-4.235-5.137-12.875"/>
    <path id="ID0.2591130444779992_16_" fill="#FAA51F" d="M52.443,10.548c-1.477-0.281-4.529-0.859-6.229-0.969&#xD;&#xA;&#x9;c-4.59-0.363-9.064,0.799-9.064,0.799L25.646,0.7l-0.053,18.432c0.693-0.721-11.639,11.061-6.232,22.811&#xD;&#xA;&#x9;c5.49,11.859,19.383,18.506,37.885,17.156c18.504-1.35,24.055-11.244,23.537-16.85c-0.52-5.605-7.111-8.533-7.111-8.533&#xD;&#xA;&#x9;s0.426-4.281-2.004-9.92c-1.494-3.408-7.086-8.73-7.086-8.73l-1.41-11.459L55.17,9.675L52.443,10.548z"/>
    <path id="ID0.3588979784399271_16_" fill="#FFFFFF" d="M72.791,33.507l-2.137-2.279l-9.053,1.506c0,0-0.402,3.275-4.682,3.656&#xD;&#xA;&#x9;c-4.279,0.379-11.131-2.076-11.131-2.076l-7.266,0.92c0,0-7.979-1.486-9.158,4.816c-2.051,10.932,6.533,17.328,14.98,18.268&#xD;&#xA;&#x9;c5.459,0.672,9.02,0.404,12.975,0.188c17.451-0.977,23.584-10.699,22.768-16.342c-0.521-5.605-6.873-8-6.873-8L72.791,33.507z"/>
    <path id="ID0.2727069961838424_16_" fill="none" stroke="#8E5322" stroke-width="1.4" stroke-linecap="round" stroke-linejoin="round" d="&#xD;&#xA;&#x9;M77.094,39.478c0,0,4.439-0.357,6.695-0.982c2.662-0.696,4.582-2.15,4.582-2.15"/>
    <path id="ID0.5861211125738919_16_" fill="none" stroke="#8E5322" stroke-width="1.4" stroke-linecap="round" stroke-linejoin="round" d="&#xD;&#xA;&#x9;M76.881,45.294c0,0,2.469,1.369,5.234,1.86c2.652,0.58,4.463,0.569,4.463,0.569"/>
    <path id="ID0.4793355236761272_16_" fill="none" stroke="#8E5322" stroke-width="1.4" stroke-linecap="round" stroke-linejoin="round" d="&#xD;&#xA;&#x9;M35.051,8.608l4.721,4.209"/>
    <path id="ID0.48413723474368453_16_" fill="none" stroke="#8E5322" stroke-width="1.4" stroke-linecap="round" stroke-linejoin="round" d="&#xD;&#xA;&#x9;M52.443,10.548c-1.477-0.281-4.529-0.859-6.229-0.969c-4.59-0.363-9.064,0.799-9.064,0.799L25.646,0.7l-0.053,18.432&#xD;&#xA;&#x9;c0.693-0.721-11.639,11.061-6.232,22.811c5.49,11.859,19.383,18.506,37.885,17.156c18.504-1.35,24.055-11.244,23.537-16.85&#xD;&#xA;&#x9;c-0.52-5.605-7.111-8.533-7.111-8.533s0.426-4.281-2.004-9.92c-1.494-3.408-7.086-8.73-7.086-8.73l-1.41-11.459L55.17,9.675&#xD;&#xA;&#x9;L52.443,10.548z"/>
    <path id="ID0.9024141579866409_16_" fill="none" stroke="#8E5322" stroke-width="1.4" stroke-linecap="round" stroke-linejoin="round" d="&#xD;&#xA;&#x9;M8.342,35.703c0,0,3.861,1.112,5.65,1.336c1.791,0.226,5.322,0.362,5.322,0.362"/>
    <path id="ID0.16030752705410123_16_" fill="none" stroke="#8E5322" stroke-width="1.4" stroke-linecap="round" stroke-linejoin="round" d="&#xD;&#xA;&#x9;M19.977,33.655c0,0-1.936-2.106-5.166-4.362c-3.584-2.526-5.668-3.338-5.668-3.338"/>
    <path id="ID0.40023312577977777_16_" fill="#FFFFFF" stroke="#8E5322" stroke-width="1.4" stroke-linecap="round" stroke-linejoin="round" d="&#xD;&#xA;&#x9;M69.475,23.626c2.252,4.609,1.74,9.586-1.146,10.943c-2.9,1.457-7.109-1.178-9.352-5.887c-2.254-4.609-1.74-9.586,1.146-10.943&#xD;&#xA;&#x9;C63.012,16.382,67.221,19.017,69.475,23.626z"/>
    <path id="ID0.43813491938635707_16_" fill="#414142" d="M68.934,27.188c0.176,1.027-0.441,1.959-1.471,2.135&#xD;&#xA;&#x9;c-0.932,0.188-1.85-0.531-2.012-1.658c-0.178-1.029,0.441-1.961,1.469-2.137C67.939,25.452,68.758,26.159,68.934,27.188"/>
    <path id="ID0.4253597157076001_16_" fill="#FFFFFF" stroke="#8E5322" stroke-width="1.4" stroke-linecap="round" stroke-linejoin="round" d="&#xD;&#xA;&#x9;M46.068,23.868c2.254,4.611,1.32,9.734-2.111,11.43c-3.434,1.691-8.076-0.693-10.318-5.402c-2.254-4.609-1.32-9.734,2.111-11.428&#xD;&#xA;&#x9;C39.17,16.872,43.814,19.259,46.068,23.868z"/>
    <path id="ID0.814307457767427_16_" fill="#414142" d="M45.293,27.704c-0.121,0.992-1.025,1.787-1.918,1.676&#xD;&#xA;&#x9;c-0.992-0.121-1.59-1.002-1.455-2.092c0.121-0.992,1.025-1.789,1.918-1.678C44.732,25.72,45.428,26.612,45.293,27.704"/>
    <path id="ID0.5240494590252638_16_" fill="#5F4B43" stroke="#8E5322" stroke-width="1.4" stroke-linecap="round" stroke-linejoin="round" d="&#xD;&#xA;&#x9;M55.775,35.04c1.713,0.008,4.156-1,4.219,0.922c-0.098,0.793-2.088,3.875-3.887,3.752c-1.998-0.145-5.164-3.053-4.883-4.529&#xD;&#xA;&#x9;S54.262,35.056,55.775,35.04z"/>
    <path id="ID0.046259244438260794_16_" fill="#FFFFFF" stroke="#8E5322" stroke-width="1.4" stroke-linecap="round" stroke-linejoin="round" d="&#xD;&#xA;&#x9;M44.861,49.212c0,0,2.201,2.588,7.695,2.156"/>
  </g>
</svg>