<svg version="1.1" x="0px" y="0px" width="128px" height="128px" viewBox="-29.371 -20.524 128 128" enable-background="new -29.371 -20.524 128 128" xml:space="preserve" xmlns="http://www.w3.org/2000/svg" xmlns:xlink="http://www.w3.org/1999/xlink" xmlns:a="http://ns.adobe.com/AdobeSVGViewerExtensions/3.0/">
  <defs/>
  <g>
    <path id="ID0.15909873321652412_37_" fill="#FAA51F" stroke="#8E5322" stroke-width="1.4" stroke-linecap="round" stroke-linejoin="round" d="&#xD;&#xA;&#x9;M39.573,59.108c-0.13,0.235,11.881,10.05,11.627,10.104c-1.957,0.421-4.36,1.788-5.265,1.682c-4.13-0.488-9.372-3.425-12.688-7.522&#xD;&#xA;&#x9;l-0.64-1.262"/>
    <path id="ID0.8143284288235009_17_" fill="#FAA51F" stroke="#8E5322" stroke-width="1.4" stroke-linecap="round" stroke-linejoin="round" d="&#xD;&#xA;&#x9;M45.151,63.56l-4.128-2.661"/>
    <path id="ID0.1790580078959465_41_" fill="#FAA51F" stroke="#8E5322" stroke-width="1.4" stroke-linecap="round" stroke-linejoin="round" d="&#xD;&#xA;&#x9;M42.377,61.642c-1.045-0.5,2.129,2.354,3.04,2.203c0.824-0.14,2.458-0.815,3.097-1.426c3.814-3.642,7.712-2.122,8.36-0.634&#xD;&#xA;&#x9;c1.63,3.657-2.383,6.947-10.732,9.076"/>
    <path id="ID0.527006761636585_19_" fill="#FAA51F" stroke="#8E5322" stroke-width="1.4" stroke-linecap="round" stroke-linejoin="round" d="&#xD;&#xA;&#x9;M26.123,72.091c0,0-3.863,4.252-5.123,4.949c-6.803-3.09-6.188-4.342-9.156-0.73c-1.363,1.658-4.436,5.402-2.75,7.25&#xD;&#xA;&#x9;c5.877,5.57,3.625-5.781,11.813,0.832c2.186,0.855,4.645-4.693,14.189-5.77"/>
    <path id="ID0.8937406223267317_26_" fill="#FAA51F" stroke="#8E5322" stroke-width="1.4" stroke-linecap="round" stroke-linejoin="round" d="&#xD;&#xA;&#x9;M17.512,82.21c-0.453-0.365-2.021-0.941-2.5-1.357"/>
    <path id="ID0.8535828334279358_16_" fill="#FAA51F" d="M19.975,74.044c-2.326-0.939-4.965-2.369-6.939-5.117&#xD;&#xA;&#x9;c-4.367-6.08-4.396-14.584-8.662-13.27c-4.268,1.316-6.908,14.594,4.271,21.092c3.863,2.299,7.686,3.096,10.701,3.615&#xD;&#xA;&#x9;c0.805,0.178,7.826,0.887,10.848-2.094c3.02-2.984,1.588-4.146,0.869-4.826C30.348,72.862,23.215,75.456,19.975,74.044z"/>
    <path id="ID0.914295740891248_16_" fill="#FFFFFF" d="M4.57,55.552c-2.094,0.258-4.271,4.82-4.072,8.516&#xD;&#xA;&#x9;c0.301,3.691,1.77,6.252,2.713,7.828c1.338,1.365-0.084-3.1,2.379-4.465c2.465-1.369,6.406,0.125,6.406,0.125&#xD;&#xA;&#x9;s-2.232-4.941-3.408-7.709C7.617,57.271,6.77,55.491,4.57,55.552z"/>
    <path id="ID0.40227043256163597_16_" fill="none" stroke="#8E5322" stroke-width="1.4" stroke-linecap="round" stroke-linejoin="round" d="&#xD;&#xA;&#x9;M19.975,74.044c-2.326-0.939-4.965-2.369-6.939-5.117c-4.367-6.08-4.396-14.584-8.662-13.27c-4.268,1.316-6.908,14.594,4.271,21.092&#xD;&#xA;&#x9;c3.863,2.299,7.686,3.096,10.701,3.615c0.805,0.178,7.826,0.887,10.848-2.094c3.02-2.984,1.588-4.146,0.869-4.826&#xD;&#xA;&#x9;C30.348,72.862,23.215,75.456,19.975,74.044z"/>
    <path id="ID0.46792364912107587_16_" fill="#FAA51F" stroke="#8E5322" stroke-width="1.4" stroke-linecap="round" stroke-linejoin="round" d="&#xD;&#xA;&#x9;M46.037,65.323c-1.887,6.428-3.016,16.311-14.434,12.959c-11.42-3.35-7.828-11.678-5.941-18.105&#xD;&#xA;&#x9;c1.887-6.43,6.326-7.002,12.756-5.115S47.924,58.894,46.037,65.323z"/>
    <path id="ID0.007584026083350182_16_" fill="#FAA51F" stroke="#8E5322" stroke-width="1.4" stroke-linecap="round" stroke-linejoin="round" d="&#xD;&#xA;&#x9;M41.836,73.276c0,0-0.732,5.084,2.328,13.373c1.279,3.592,7.016-2.408,8.459,4.867c0.355,2.08-8.58,4.281-10.816,4.055&#xD;&#xA;&#x9;c-2.018-0.182-2.682-0.727-2.914-2.736c-0.838-7.334-9.545-17.145-9.545-17.145"/>
    <path id="ID0.31672530295327306_16_" fill="#FAA51F" stroke="#8E5322" stroke-width="1.4" stroke-linecap="round" stroke-linejoin="round" d="&#xD;&#xA;&#x9;M46.566,87.868c0,0-1.309,0.146-2.678,0.824"/>
    <path id="ID0.38032895559445024_22_" fill="#FFFFFF" d="M44.837,67.31c-1.184,4.031-2.669,8.476-4.806,6.669&#xD;&#xA;&#x9;c-4.012-3.393-4.127-4.838-2.945-8.869c1.184-4.029,3.563-4.284,7.182-3.52C47.296,62.229,46.019,63.28,44.837,67.31z"/>
    <path id="ID0.15909873321652412_36_" fill="#FAA51F" stroke="#8E5322" stroke-width="1.4" stroke-linecap="round" stroke-linejoin="round" d="&#xD;&#xA;&#x9;M27.962,60.547c-13.416,1.929-11.193-2.934-10.023-5.544c3.902-3.349,12.7-2.536,18.258,0.111l0,0"/>
    <path id="ID0.8143284288235009_3_" fill="#FAA51F" stroke="#8E5322" stroke-width="1.4" stroke-linecap="round" stroke-linejoin="round" d="&#xD;&#xA;&#x9;M24.626,60.397l5.619,0.299"/>
    <path id="ID0.6682511982508004_3_" fill="none" stroke="#8E5322" stroke-width="1.4" stroke-linecap="round" stroke-linejoin="round" d="&#xD;&#xA;&#x9;M23.803,60.623l-0.26-1.864"/>
    <path id="ID0.1790580078959465_40_" fill="#FAA51F" stroke="#8E5322" stroke-width="1.4" stroke-linecap="round" stroke-linejoin="round" d="&#xD;&#xA;&#x9;M23.657,61.071c0.805,5.827-2.77,8.245-4.425,7.854c-3.906-0.89-4.882-5.733-1.541-13.775"/>
    <path id="ID0.2591130444779992_16_" fill="#FAA51F" d="M51.969,10.548c-1.477-0.281-4.527-0.859-6.227-0.967&#xD;&#xA;&#x9;c-4.592-0.365-9.066,0.797-9.066,0.797L25.172,0.7l-0.053,18.432c0.693-0.721-11.639,11.061-6.232,22.811&#xD;&#xA;&#x9;c5.492,11.859,19.383,18.506,37.887,17.156s24.055-11.244,23.535-16.85s-7.111-8.533-7.111-8.533s0.426-4.281-2.002-9.918&#xD;&#xA;&#x9;c-1.494-3.41-7.086-8.732-7.086-8.732L62.697,3.606l-8,6.068L51.969,10.548z"/>
    <path id="ID0.3588979784399271_16_" fill="#FFFFFF" d="M72.318,33.507l-2.139-2.279l-9.053,1.506c0,0-0.402,3.275-4.68,3.656&#xD;&#xA;&#x9;c-4.279,0.379-11.131-2.076-11.131-2.076l-7.268,0.92c0,0-7.979-1.486-9.158,4.816c-2.049,10.932,6.533,17.328,14.982,18.268&#xD;&#xA;&#x9;c5.459,0.672,9.018,0.404,12.975,0.188c17.449-0.977,23.582-10.699,22.766-16.342c-0.52-5.605-6.873-8-6.873-8L72.318,33.507z"/>
    <path id="ID0.2727069961838424_16_" fill="none" stroke="#8E5322" stroke-width="1.4" stroke-linecap="round" stroke-linejoin="round" d="&#xD;&#xA;&#x9;M76.619,39.478c0,0,4.432-0.457,6.674-1.133c2.645-0.756,4.533-2.251,4.533-2.251"/>
    <path id="ID0.5861211125738919_16_" fill="none" stroke="#8E5322" stroke-width="1.4" stroke-linecap="round" stroke-linejoin="round" d="&#xD;&#xA;&#x9;M76.408,45.294c0,0,2.576,1.155,5.373,1.412c2.693,0.353,4.496,0.191,4.496,0.191"/>
    <path id="ID0.4793355236761272_16_" fill="none" stroke="#8E5322" stroke-width="1.4" stroke-linecap="round" stroke-linejoin="round" d="&#xD;&#xA;&#x9;M34.576,8.608l4.721,4.209"/>
    <path id="ID0.48413723474368453_16_" fill="none" stroke="#8E5322" stroke-width="1.4" stroke-linecap="round" stroke-linejoin="round" d="&#xD;&#xA;&#x9;M51.969,10.548c-1.477-0.281-4.527-0.859-6.227-0.967c-4.592-0.365-9.066,0.797-9.066,0.797L25.172,0.7l-0.053,18.432&#xD;&#xA;&#x9;c0.693-0.721-11.639,11.061-6.232,22.811c5.492,11.859,19.383,18.506,37.887,17.156s24.055-11.244,23.535-16.85&#xD;&#xA;&#x9;s-7.111-8.533-7.111-8.533s0.426-4.281-2.002-9.918c-1.494-3.41-7.086-8.732-7.086-8.732L62.697,3.606l-8,6.068L51.969,10.548z"/>
    <path id="ID0.9024141579866409_16_" fill="none" stroke="#8E5322" stroke-width="1.4" stroke-linecap="round" stroke-linejoin="round" d="&#xD;&#xA;&#x9;M7.865,35.778c0,0,3.859,1.12,5.648,1.344c1.791,0.229,5.322,0.371,5.322,0.371"/>
    <path id="ID0.16030752705410123_16_" fill="none" stroke="#8E5322" stroke-width="1.4" stroke-linecap="round" stroke-linejoin="round" d="&#xD;&#xA;&#x9;M19.502,33.655c0,0-1.873-2.161-5.039-4.508c-3.514-2.624-5.574-3.492-5.574-3.492"/>
    <path id="ID0.40023312577977777_16_" fill="#FFFFFF" stroke="#8E5322" stroke-width="1.4" stroke-linecap="round" stroke-linejoin="round" d="&#xD;&#xA;&#x9;M69,23.628c2.252,4.609,1.74,9.584-1.145,10.941c-2.9,1.457-7.109-1.178-9.352-5.887c-2.254-4.609-1.742-9.586,1.145-10.943&#xD;&#xA;&#x9;C62.539,16.384,66.746,19.017,69,23.628z"/>
    <path id="ID0.43813491938635707_16_" fill="#414142" d="M68.459,27.188c0.178,1.029-0.441,1.961-1.471,2.135&#xD;&#xA;&#x9;c-0.93,0.189-1.85-0.529-2.012-1.658c-0.176-1.027,0.441-1.959,1.471-2.135C67.465,25.454,68.283,26.159,68.459,27.188"/>
    <path id="ID0.4253597157076001_16_" fill="#FFFFFF" stroke="#8E5322" stroke-width="1.4" stroke-linecap="round" stroke-linejoin="round" d="&#xD;&#xA;&#x9;M45.596,23.868c2.254,4.611,1.318,9.734-2.113,11.43c-3.434,1.691-8.076-0.693-10.318-5.402c-2.252-4.609-1.32-9.734,2.111-11.426&#xD;&#xA;&#x9;C38.697,16.874,43.34,19.259,45.596,23.868z"/>
    <path id="ID0.814307457767427_16_" fill="#414142" d="M44.82,27.704c-0.121,0.992-1.027,1.787-1.92,1.678&#xD;&#xA;&#x9;c-0.992-0.123-1.59-1.002-1.455-2.094c0.121-0.992,1.027-1.789,1.92-1.678C44.258,25.72,44.955,26.612,44.82,27.704"/>
    <path id="ID0.5240494590252638_16_" fill="#5F4B43" stroke="#8E5322" stroke-width="1.4" stroke-linecap="round" stroke-linejoin="round" d="&#xD;&#xA;&#x9;M55.303,35.04c1.713,0.008,4.154-1,4.219,0.922c-0.098,0.793-2.09,3.875-3.887,3.752c-1.998-0.145-5.166-3.053-4.885-4.529&#xD;&#xA;&#x9;C51.033,33.708,53.789,35.056,55.303,35.04z"/>
    <path id="ID0.046259244438260794_16_" fill="#FFFFFF" stroke="#8E5322" stroke-width="1.4" stroke-linecap="round" stroke-linejoin="round" d="&#xD;&#xA;&#x9;M44.389,49.212c0,0,2.199,2.588,7.693,2.156"/>
  </g>
</svg>