<svg version="1.1" width="385" height="365" viewBox="-1 -1 385 365" xmlns="http://www.w3.org/2000/svg" xmlns:xlink="http://www.w3.org/1999/xlink">
  <!-- Exported by Scratch - http://scratch.mit.edu/ -->
  <path id="ID0.06072556460276246" fill="#FF00BF" stroke="#FF00BF" stroke-width="2" d="M 76 0 L 167 0 L 167 91 L 76 91 L 76 0 Z " transform="matrix(3.903225898742676, 0, 0, 3.903225898742676, -271.7, 3.9)"/>
  <path id="ID0.6824956852942705" fill="none" stroke="#666666" stroke-width="2" stroke-linecap="round" d="M 123 0 L 123 346 " transform="matrix(1, 0, 0, 1, -102.25, 2.75)"/>
  <path id="ID0.7734831650741398" fill="#99B2FF" stroke="#99B2FF" stroke-width="2" d="M 104 347 L 123 347 L 123 360 L 104 360 L 104 347 Z " transform="matrix(1, 0, 0, 1, -102.5, 0)"/>
  <path id="ID0.1194931915961206" fill="#666666" stroke="#666666" stroke-width="2" d="M 125 0 L 480 0 L 480 41 L 125 41 L 125 0 Z " transform="matrix(1, 0, 0, 1, -102, 3)"/>
  <text id="ID0.04250471852719784" fill="#99B2FF" x="165" y="45.7" text-anchor="start" font-family="Scratch" font-size="22" transform="matrix(1.1927223205566406, 0, 0, 1.1927223205566406, 22, 9.55)">baby boy blue makes you shrink</text>
</svg>