<svg version="1.1" x="0px" y="0px" width="128px" height="128px" viewBox="-27.612 -21.649 128 128" enable-background="new -27.612 -21.649 128 128" xml:space="preserve" xmlns="http://www.w3.org/2000/svg" xmlns:xlink="http://www.w3.org/1999/xlink" xmlns:a="http://ns.adobe.com/AdobeSVGViewerExtensions/3.0/">
  <defs/>
  <g>
    <path id="ID0.15909873321652412_37_" fill="#FAA51F" stroke="#8E5322" stroke-width="1.4" stroke-linecap="round" stroke-linejoin="round" d="&#xD;&#xA;&#x9;M38.205,59.266c-0.249,0.101,1.763,13.73,1.522,13.828c-1.859,0.766-3.754,0.537-4.385-0.119c-2.878-3.002-4.776-9.17-4.73-14.441&#xD;&#xA;&#x9;l0.309-1.38"/>
    <path id="ID0.1790580078959465_41_" fill="#FAA51F" stroke="#8E5322" stroke-width="1.4" stroke-linecap="round" stroke-linejoin="round" d="&#xD;&#xA;&#x9;M37.803,67.02c4.743-3.478,11.176-3.075,11.619-1.432c1.076,3.856-2.721,7.022-11.386,7.905"/>
    <path id="ID0.527006761636585_19_" fill="#FAA51F" stroke="#8E5322" stroke-width="1.4" stroke-linecap="round" stroke-linejoin="round" d="&#xD;&#xA;&#x9;M28.872,76.608c0,0,4.094,2.931,5.966,3.162c-2.673-0.262-4.825-1.168-4.619,3.502c0.095,2.146,0.311,6.983,2.798,7.231&#xD;&#xA;&#x9;c8.094,0.217,0.086-4.641,9.883-7.577c2.775-1.018,7.089-4.145-1.263-9.128"/>
    <path id="ID0.8937406223267317_35_" fill="#FAA51F" stroke="#8E5322" stroke-width="1.4" stroke-linecap="round" stroke-linejoin="round" d="&#xD;&#xA;&#x9;M42.064,83.051c-1.07,0.359-2.701,1.423-3.96,2.065"/>
    <path id="ID0.8937406223267317_26_" fill="#FAA51F" stroke="#8E5322" stroke-width="1.4" stroke-linecap="round" stroke-linejoin="round" d="&#xD;&#xA;&#x9;M37.98,80.47c-0.574,0.111-2.793-0.678-4.126-0.931"/>
    <path id="ID0.8535828334279358_16_" fill="#FAA51F" d="M22.011,75.043c-2.469-0.441-5.346-1.299-7.842-3.583&#xD;&#xA;&#x9;c-5.521-5.057-7.296-13.373-11.2-11.211c-3.906,2.165-3.767,15.701,8.509,19.768c4.251,1.455,8.157,1.451,11.215,1.342&#xD;&#xA;&#x9;c0.824,0.008,7.842-0.738,10.186-4.276c2.345-3.54,0.705-4.383-0.138-4.901C31.919,71.759,25.472,75.761,22.011,75.043z"/>
    <path id="ID0.914295740891248_16_" fill="#FFFFFF" d="M3.14,60.106c-1.997,0.681-3.191,5.593-2.239,9.169&#xD;&#xA;&#x9;c1.054,3.552,3.015,5.756,4.263,7.106c1.59,1.061-0.717-3.018,1.411-4.859c2.132-1.846,6.297-1.191,6.297-1.191&#xD;&#xA;&#x9;s-3.199-4.379-4.917-6.846C6.475,61.162,5.279,59.596,3.14,60.106z"/>
    <path id="ID0.40227043256163597_16_" fill="none" stroke="#8E5322" stroke-width="1.4" stroke-linecap="round" stroke-linejoin="round" d="&#xD;&#xA;&#x9;M22.011,75.043c-2.469-0.441-5.346-1.299-7.842-3.583c-5.521-5.057-7.296-13.373-11.2-11.211&#xD;&#xA;&#x9;c-3.906,2.165-3.767,15.701,8.509,19.768c4.251,1.455,8.157,1.451,11.215,1.342c0.824,0.008,7.842-0.738,10.186-4.276&#xD;&#xA;&#x9;c2.345-3.54,0.705-4.383-0.138-4.901C31.919,71.759,25.472,75.761,22.011,75.043z"/>
    <path id="ID0.46792364912107587_16_" fill="#FAA51F" stroke="#8E5322" stroke-width="1.4" stroke-linecap="round" stroke-linejoin="round" d="&#xD;&#xA;&#x9;M47.218,65.323c-1.887,6.428-3.016,16.311-14.436,12.959c-11.418-3.35-7.826-11.678-5.939-18.105&#xD;&#xA;&#x9;c1.887-6.43,6.326-7.002,12.756-5.115C46.026,56.948,49.104,58.894,47.218,65.323z"/>
    <path id="ID0.38032895559445024_22_" fill="#FFFFFF" d="M45.905,67.372c-1.184,4.031-0.68,7.309-6.82,5.506&#xD;&#xA;&#x9;c-6.141-1.801-5.471-4.109-4.287-8.141c1.184-4.029,3.631-4.561,7.182-3.52S47.087,63.343,45.905,67.372z"/>
    <path id="ID0.007584026083350182_16_" fill="#FAA51F" stroke="#8E5322" stroke-width="1.4" stroke-linecap="round" stroke-linejoin="round" d="&#xD;&#xA;&#x9;M36.275,76.215c0,0-1.7,4.478-3.214,6.716c-3.697,2.539-7.375,4.127-7.375,4.127c0.754,0.289,3.984,0.707,3.627,5.164&#xD;&#xA;&#x9;c-0.199,2.1-9.4,1.9-11.5,1.1c-1.9-0.699-2.4-1.398-2.1-3.4c0.387-2.564,6.763-6.59,9.477-8.449&#xD;&#xA;&#x9;c0.729-2.514,1.195-7.786,1.195-7.786"/>
    <path id="ID0.31672530295327306_16_" fill="#FAA51F" stroke="#8E5322" stroke-width="1.4" stroke-linecap="round" stroke-linejoin="round" d="&#xD;&#xA;&#x9;M25.919,87.222c0,0-0.654-0.299-2.152,0"/>
    <path id="ID0.15909873321652412_36_" fill="#FAA51F" stroke="#8E5322" stroke-width="1.4" stroke-linecap="round" stroke-linejoin="round" d="&#xD;&#xA;&#x9;M26.001,69.767c-5.783-4.14-5.032-1.616-5.674-4.404c1.093-5.025,8.602-9.682,14.632-10.921l0,0"/>
    <path id="ID0.8143284288235009_3_" fill="#FAA51F" stroke="#8E5322" stroke-width="1.4" stroke-linecap="round" stroke-linejoin="round" d="&#xD;&#xA;&#x9;M28.914,65.632l4.663-3.148"/>
    <path id="ID0.6682511982508004_3_" fill="none" stroke="#8E5322" stroke-width="1.4" stroke-linecap="round" stroke-linejoin="round" d="&#xD;&#xA;&#x9;M28.395,66.309l-1.333-1.33"/>
    <path id="ID0.1790580078959465_40_" fill="#FAA51F" stroke="#8E5322" stroke-width="1.4" stroke-linecap="round" stroke-linejoin="round" d="&#xD;&#xA;&#x9;M28.594,66.176c4.571,3.702,3.616,7.91,2.141,8.757c-3.459,2.021-7.483-0.847-10.544-8.999"/>
    <path id="ID0.2591130444779992_16_" fill="#FAA51F" d="M53.149,10.548c-1.477-0.281-4.529-0.859-6.229-0.969&#xD;&#xA;&#x9;c-4.59-0.363-9.064,0.799-9.064,0.799L26.353,0.7L26.3,19.132c0.693-0.721-11.639,11.061-6.232,22.811&#xD;&#xA;&#x9;c5.49,11.859,19.383,18.506,37.885,17.156c18.504-1.35,24.055-11.244,23.537-16.85c-0.52-5.605-7.111-8.533-7.111-8.533&#xD;&#xA;&#x9;s0.426-4.281-2.004-9.92c-1.494-3.408-7.086-8.73-7.086-8.73l-1.41-11.459l-8.002,6.068L53.149,10.548z"/>
    <path id="ID0.3588979784399271_16_" fill="#FFFFFF" d="M73.497,33.507l-2.137-2.279l-9.053,1.506c0,0-0.402,3.275-4.682,3.656&#xD;&#xA;&#x9;c-4.279,0.379-11.131-2.076-11.131-2.076l-7.266,0.92c0,0-7.979-1.486-9.158,4.816c-2.051,10.932,6.533,17.328,14.98,18.268&#xD;&#xA;&#x9;c5.459,0.672,9.02,0.404,12.975,0.188c17.451-0.977,23.584-10.699,22.768-16.342c-0.521-5.605-6.873-8-6.873-8L73.497,33.507z"/>
    <path id="ID0.2727069961838424_16_" fill="none" stroke="#8E5322" stroke-width="1.4" stroke-linecap="round" stroke-linejoin="round" d="&#xD;&#xA;&#x9;M77.8,39.478c0,0,4.439-0.357,6.695-0.982c2.662-0.697,4.583-2.15,4.583-2.15"/>
    <path id="ID0.5861211125738919_16_" fill="none" stroke="#8E5322" stroke-width="1.4" stroke-linecap="round" stroke-linejoin="round" d="&#xD;&#xA;&#x9;M77.587,45.294c0,0,2.47,1.369,5.234,1.859c2.653,0.58,4.463,0.57,4.463,0.57"/>
    <path id="ID0.4793355236761272_16_" fill="none" stroke="#8E5322" stroke-width="1.4" stroke-linecap="round" stroke-linejoin="round" d="&#xD;&#xA;&#x9;M35.757,8.608l4.721,4.209"/>
    <path id="ID0.48413723474368453_16_" fill="none" stroke="#8E5322" stroke-width="1.4" stroke-linecap="round" stroke-linejoin="round" d="&#xD;&#xA;&#x9;M53.149,10.548c-1.477-0.281-4.529-0.859-6.229-0.969c-4.59-0.363-9.064,0.799-9.064,0.799L26.353,0.7L26.3,19.132&#xD;&#xA;&#x9;c0.693-0.721-11.639,11.061-6.232,22.811c5.49,11.859,19.383,18.506,37.885,17.156c18.504-1.35,24.055-11.244,23.537-16.85&#xD;&#xA;&#x9;c-0.52-5.605-7.111-8.533-7.111-8.533s0.426-4.281-2.004-9.92c-1.494-3.408-7.086-8.73-7.086-8.73l-1.41-11.459l-8.002,6.068&#xD;&#xA;&#x9;L53.149,10.548z"/>
    <path id="ID0.9024141579866409_16_" fill="none" stroke="#8E5322" stroke-width="1.4" stroke-linecap="round" stroke-linejoin="round" d="&#xD;&#xA;&#x9;M9.048,35.702c0,0,3.861,1.113,5.65,1.336c1.791,0.227,5.322,0.363,5.322,0.363"/>
    <path id="ID0.16030752705410123_16_" fill="none" stroke="#8E5322" stroke-width="1.4" stroke-linecap="round" stroke-linejoin="round" d="&#xD;&#xA;&#x9;M20.683,33.655c0,0-1.935-2.107-5.166-4.363c-3.584-2.525-5.668-3.338-5.668-3.338"/>
    <path id="ID0.40023312577977777_16_" fill="#FFFFFF" stroke="#8E5322" stroke-width="1.4" stroke-linecap="round" stroke-linejoin="round" d="&#xD;&#xA;&#x9;M70.181,23.626c2.252,4.609,1.74,9.586-1.146,10.943c-2.9,1.457-7.109-1.178-9.352-5.887c-2.254-4.609-1.74-9.586,1.146-10.943&#xD;&#xA;&#x9;C63.718,16.382,67.927,19.017,70.181,23.626z"/>
    <path id="ID0.43813491938635707_16_" fill="#414142" d="M69.64,27.188c0.176,1.027-0.441,1.959-1.471,2.135&#xD;&#xA;&#x9;c-0.932,0.188-1.85-0.531-2.012-1.658c-0.178-1.029,0.441-1.961,1.469-2.137C68.646,25.452,69.464,26.159,69.64,27.188"/>
    <path id="ID0.4253597157076001_16_" fill="#FFFFFF" stroke="#8E5322" stroke-width="1.4" stroke-linecap="round" stroke-linejoin="round" d="&#xD;&#xA;&#x9;M46.774,23.868c2.254,4.611,1.32,9.734-2.111,11.43c-3.434,1.691-8.076-0.693-10.318-5.402c-2.254-4.609-1.32-9.734,2.111-11.428&#xD;&#xA;&#x9;C39.876,16.872,44.521,19.259,46.774,23.868z"/>
    <path id="ID0.814307457767427_16_" fill="#414142" d="M45.999,27.704c-0.121,0.992-1.025,1.787-1.918,1.676&#xD;&#xA;&#x9;c-0.992-0.121-1.59-1.002-1.455-2.092c0.121-0.992,1.025-1.789,1.918-1.678C45.438,25.72,46.134,26.612,45.999,27.704"/>
    <path id="ID0.5240494590252638_16_" fill="#5F4B43" stroke="#8E5322" stroke-width="1.4" stroke-linecap="round" stroke-linejoin="round" d="&#xD;&#xA;&#x9;M56.481,35.04c1.713,0.008,4.156-1,4.219,0.922c-0.098,0.793-2.088,3.875-3.887,3.752c-1.998-0.145-5.164-3.053-4.883-4.529&#xD;&#xA;&#x9;S54.968,35.056,56.481,35.04z"/>
    <path id="ID0.046259244438260794_16_" fill="#FFFFFF" stroke="#8E5322" stroke-width="1.4" stroke-linecap="round" stroke-linejoin="round" d="&#xD;&#xA;&#x9;M45.567,49.212c0,0,2.201,2.588,7.695,2.156"/>
  </g>
</svg>