<svg version="1.1" x="0px" y="0px" width="128px" height="128px" viewBox="-28.754 -19.604 128 128" enable-background="new -28.754 -19.604 128 128" xml:space="preserve" xmlns="http://www.w3.org/2000/svg" xmlns:xlink="http://www.w3.org/1999/xlink" xmlns:a="http://ns.adobe.com/AdobeSVGViewerExtensions/3.0/">
  <defs/>
  <g>
    <path id="ID0.15909873321652412_37_" fill="#FAA51F" stroke="#8E5322" stroke-width="1.4" stroke-linecap="round" stroke-linejoin="round" d="&#xD;&#xA;&#x9;M33.653,59.796c-0.238-0.123-8.752,9.418-8.983,9.301c-1.797-0.902-2.867-2.482-2.785-3.39c0.382-4.141,3.793-9.618,7.804-13.039&#xD;&#xA;&#x9;l1.244-0.672"/>
    <path id="ID0.1790580078959465_41_" fill="#FAA51F" stroke="#8E5322" stroke-width="1.4" stroke-linecap="round" stroke-linejoin="round" d="&#xD;&#xA;&#x9;M28.037,64.273c5.259,2.638,7.832,8.547,6.571,9.69c-2.943,2.715-7.491,0.777-12.226-6.533"/>
    <path id="ID0.007584026083350182_27_" fill="#FAA51F" stroke="#8E5322" stroke-width="1.4" stroke-linecap="round" stroke-linejoin="round" d="&#xD;&#xA;&#x9;M43.069,69.517c0,0,2.563,1.942,10.576,5.663c3.439,1.645,3.278-6.656,9.431-2.512c1.719,1.225-3.069,9.084-4.813,10.502&#xD;&#xA;&#x9;c-1.559,1.292-2.414,1.375-3.995,0.111c-5.765-4.611-18.382-6.509-18.382-6.509"/>
    <path id="ID0.31672530295327306_16_" fill="#FAA51F" stroke="#8E5322" stroke-width="1.4" stroke-linecap="round" stroke-linejoin="round" d="&#xD;&#xA;&#x9;M56.208,74.352c0,0-0.825,1.023-1.317,2.471"/>
    <path id="ID0.8535828334279358_16_" fill="#FAA51F" d="M23.124,73.788c-2.505-0.111-5.469-0.586-8.244-2.521&#xD;&#xA;&#x9;c-6.139-4.29-8.99-12.298-12.575-9.641c-3.589,2.656-1.672,16.059,11.033,18.476c4.404,0.886,8.277,0.366,11.292-0.146&#xD;&#xA;&#x9;c0.819-0.1,7.678-1.761,9.536-5.578c1.859-3.814,0.124-4.437-0.78-4.839C32.515,69.23,26.65,74.043,23.124,73.788z"/>
    <path id="ID0.914295740891248_16_" fill="#FFFFFF" d="M2.454,61.462c-1.891,0.938-2.429,5.962-1.014,9.382&#xD;&#xA;&#x9;c1.51,3.383,3.745,5.313,5.158,6.483c1.716,0.844-1.106-2.894,0.762-5.001c1.87-2.11,6.085-2.01,6.085-2.01&#xD;&#xA;&#x9;s-3.747-3.917-5.775-6.139C5.898,62.069,4.509,60.676,2.454,61.462z"/>
    <path id="ID0.40227043256163597_16_" fill="none" stroke="#8E5322" stroke-width="1.4" stroke-linecap="round" stroke-linejoin="round" d="&#xD;&#xA;&#x9;M23.124,73.788c-2.505-0.111-5.469-0.586-8.244-2.521c-6.139-4.29-8.99-12.298-12.575-9.641&#xD;&#xA;&#x9;c-3.589,2.656-1.672,16.059,11.033,18.476c4.404,0.886,8.277,0.366,11.292-0.146c0.819-0.1,7.678-1.761,9.536-5.578&#xD;&#xA;&#x9;c1.859-3.814,0.124-4.437-0.78-4.839C32.515,69.23,26.65,74.043,23.124,73.788z"/>
    <path id="ID0.46792364912107587_16_" fill="#FAA51F" stroke="#8E5322" stroke-width="1.4" stroke-linecap="round" stroke-linejoin="round" d="&#xD;&#xA;&#x9;M47.382,63.321c-1.887,6.43-3.016,16.313-14.436,12.961c-11.418-3.352-7.826-11.678-5.939-18.107s6.326-7.002,12.756-5.115&#xD;&#xA;&#x9;C46.19,54.948,49.269,56.894,47.382,63.321z"/>
    <path id="ID0.38032895559445024_22_" fill="#FFFFFF" d="M44.299,65.513c-1.184,4.031-2.094,10.33-8.234,8.527&#xD;&#xA;&#x9;c-6.141-1.801-4.057-7.129-2.873-11.16s3.631-4.563,7.182-3.52C43.924,60.401,45.48,61.485,44.299,65.513z"/>
    <path id="ID0.007584026083350182_16_" fill="#FAA51F" stroke="#8E5322" stroke-width="1.4" stroke-linecap="round" stroke-linejoin="round" d="&#xD;&#xA;&#x9;M34.097,75.587c0,0-8.164,2.708-15.873,7.027c-3.348,1.824-1.362,7.782-6.395,8.282c-3.501,0-2.868-3.12-2.787-9.217&#xD;&#xA;&#x9;c0.301-2.763,0.301-2.763,2.249-3.307c7.114-1.973,17.093-11.091,17.093-11.091"/>
    <path id="ID0.15909873321652412_36_" fill="#FAA51F" stroke="#8E5322" stroke-width="1.4" stroke-linecap="round" stroke-linejoin="round" d="&#xD;&#xA;&#x9;M39.35,57.625c-0.225,0.146,3.862,12.263,3.646,12.406c-1.673,1.116-3.576,1.266-4.324,0.745c-3.41-2.378-6.485-8.051-7.478-13.229&#xD;&#xA;&#x9;l0.031-1.413"/>
    <path id="ID0.1790580078959465_40_" fill="#FAA51F" stroke="#8E5322" stroke-width="1.4" stroke-linecap="round" stroke-linejoin="round" d="&#xD;&#xA;&#x9;M40.467,64.72c4.893-3.268,11.302-2.585,11.672-0.923c0.906,3.9-3.026,6.896-11.722,7.398"/>
    <path id="ID0.2591130444779992_16_" fill="#FAA51F" d="M53.313,10.548c-1.477-0.283-4.529-0.861-6.229-0.969&#xD;&#xA;&#x9;c-4.59-0.363-9.064,0.799-9.064,0.799L26.517,0.7l-0.053,18.432c0.693-0.721-11.639,11.061-6.232,22.809&#xD;&#xA;&#x9;c5.49,11.859,19.383,18.508,37.885,17.158c18.504-1.35,24.055-11.244,23.535-16.85s-7.111-8.533-7.111-8.533s0.426-4.281-2.002-9.92&#xD;&#xA;&#x9;c-1.494-3.408-7.086-8.732-7.086-8.732l-1.41-11.457L56.04,9.675L53.313,10.548z"/>
    <path id="ID0.3588979784399271_16_" fill="#FFFFFF" d="M73.661,33.507l-2.139-2.279l-9.051,1.506c0,0-0.402,3.275-4.682,3.656&#xD;&#xA;&#x9;c-4.279,0.379-11.131-2.076-11.131-2.076l-7.266,0.918c0,0-7.979-1.486-9.158,4.818c-2.051,10.93,6.533,17.328,14.98,18.266&#xD;&#xA;&#x9;c5.459,0.674,9.02,0.406,12.975,0.188c17.449-0.975,23.582-10.697,22.766-16.342c-0.52-5.604-6.873-7.998-6.873-7.998L73.661,33.507&#xD;&#xA;&#x9;z"/>
    <path id="ID0.2727069961838424_16_" fill="none" stroke="#8E5322" stroke-width="1.4" stroke-linecap="round" stroke-linejoin="round" d="&#xD;&#xA;&#x9;M77.962,39.476c0,0,4.406,0.656,6.746,0.557c2.75-0.074,4.949-1.059,4.949-1.059"/>
    <path id="ID0.5861211125738919_16_" fill="none" stroke="#8E5322" stroke-width="1.4" stroke-linecap="round" stroke-linejoin="round" d="&#xD;&#xA;&#x9;M77.751,45.294c0,0,2.164,1.811,4.785,2.822c2.494,1.072,4.273,1.408,4.273,1.408"/>
    <path id="ID0.4793355236761272_16_" fill="none" stroke="#8E5322" stroke-width="1.4" stroke-linecap="round" stroke-linejoin="round" d="&#xD;&#xA;&#x9;M35.921,8.608l4.721,4.209"/>
    <path id="ID0.48413723474368453_16_" fill="none" stroke="#8E5322" stroke-width="1.4" stroke-linecap="round" stroke-linejoin="round" d="&#xD;&#xA;&#x9;M53.313,10.548c-1.477-0.283-4.529-0.861-6.229-0.969c-4.59-0.363-9.064,0.799-9.064,0.799L26.517,0.7l-0.053,18.432&#xD;&#xA;&#x9;c0.693-0.721-11.639,11.061-6.232,22.809c5.49,11.859,19.383,18.508,37.885,17.158c18.504-1.35,24.055-11.244,23.535-16.85&#xD;&#xA;&#x9;s-7.111-8.533-7.111-8.533s0.426-4.281-2.002-9.92c-1.494-3.408-7.086-8.732-7.086-8.732l-1.41-11.457L56.04,9.675L53.313,10.548z"/>
    <path id="ID0.9024141579866409_16_" fill="none" stroke="#8E5322" stroke-width="1.4" stroke-linecap="round" stroke-linejoin="round" d="&#xD;&#xA;&#x9;M9.169,38.796c0,0,4.02,0.004,5.801-0.275c1.783-0.277,5.215-1.119,5.215-1.119"/>
    <path id="ID0.16030752705410123_16_" fill="none" stroke="#8E5322" stroke-width="1.4" stroke-linecap="round" stroke-linejoin="round" d="&#xD;&#xA;&#x9;M20.847,33.655c-2.338-1.5-2.318-1.512-6.107-2.9c-4.109-1.529-6.332-1.783-6.332-1.783"/>
    <path id="ID0.40023312577977777_16_" fill="#FFFFFF" stroke="#8E5322" stroke-width="1.4" stroke-linecap="round" stroke-linejoin="round" d="&#xD;&#xA;&#x9;M70.343,23.626c2.252,4.609,1.74,9.586-1.145,10.943c-2.9,1.455-7.109-1.178-9.352-5.887c-2.254-4.609-1.74-9.586,1.146-10.943&#xD;&#xA;&#x9;C63.882,16.382,68.089,19.017,70.343,23.626z"/>
    <path id="ID0.43813491938635707_16_" fill="#414142" d="M69.802,27.188c0.178,1.027-0.441,1.959-1.471,2.135&#xD;&#xA;&#x9;c-0.93,0.188-1.848-0.531-2.01-1.658c-0.178-1.029,0.439-1.961,1.469-2.137C68.808,25.452,69.626,26.159,69.802,27.188"/>
    <path id="ID0.4253597157076001_16_" fill="#FFFFFF" stroke="#8E5322" stroke-width="1.4" stroke-linecap="round" stroke-linejoin="round" d="&#xD;&#xA;&#x9;M46.938,23.868c2.254,4.611,1.32,9.734-2.111,11.428c-3.434,1.693-8.076-0.691-10.318-5.4c-2.254-4.609-1.32-9.734,2.111-11.428&#xD;&#xA;&#x9;C40.04,16.872,44.685,19.259,46.938,23.868z"/>
    <path id="ID0.814307457767427_16_" fill="#414142" d="M46.163,27.704c-0.121,0.992-1.025,1.787-1.918,1.676&#xD;&#xA;&#x9;c-0.992-0.121-1.59-1.002-1.455-2.092c0.121-0.992,1.025-1.789,1.918-1.678C45.603,25.72,46.298,26.612,46.163,27.704"/>
    <path id="ID0.5240494590252638_16_" fill="#5F4B43" stroke="#8E5322" stroke-width="1.4" stroke-linecap="round" stroke-linejoin="round" d="&#xD;&#xA;&#x9;M56.646,35.038c1.713,0.01,4.156-1,4.219,0.924c-0.098,0.793-2.088,3.873-3.887,3.752c-1.998-0.145-5.164-3.055-4.883-4.531&#xD;&#xA;&#x9;S55.132,35.054,56.646,35.038z"/>
    <path id="ID0.046259244438260794_16_" fill="#FFFFFF" stroke="#8E5322" stroke-width="1.4" stroke-linecap="round" stroke-linejoin="round" d="&#xD;&#xA;&#x9;M45.731,49.212c0,0,2.201,2.586,7.695,2.156"/>
  </g>
</svg>