<svg version="1.1" x="0px" y="0px" width="128px" height="128px" viewBox="-27.875 -20.604 128 128" enable-background="new -27.875 -20.604 128 128" xml:space="preserve" xmlns="http://www.w3.org/2000/svg" xmlns:xlink="http://www.w3.org/1999/xlink" xmlns:a="http://ns.adobe.com/AdobeSVGViewerExtensions/3.0/">
  <defs/>
  <g>
    <path id="ID0.527006761636585_19_" fill="#FAA51F" stroke="#8E5322" stroke-width="1.4" stroke-linecap="round" stroke-linejoin="round" d="&#xD;&#xA;&#x9;M34.83,76.401c0,0,5.311,0.967,6.424,1.828c-3.123,2.396-4.74-0.268-3.148,4.129c0.73,2.02,2.381,6.572,4.83,6.066&#xD;&#xA;&#x9;c7.791-2.211-1.305-4.455,7.17-10.184c2.344-1.801,5.525-6.074-3.934-8.334"/>
    <path id="ID0.8937406223267317_35_" fill="#FAA51F" stroke="#8E5322" stroke-width="1.4" stroke-linecap="round" stroke-linejoin="round" d="&#xD;&#xA;&#x9;M48.486,79.696c-0.996,0.535-2.426,1.855-3.559,2.699"/>
    <path id="ID0.8937406223267317_26_" fill="#FAA51F" stroke="#8E5322" stroke-width="1.4" stroke-linecap="round" stroke-linejoin="round" d="&#xD;&#xA;&#x9;M44.029,77.835c-0.547,0.205-2.867-0.203-4.223-0.23"/>
    <path id="ID0.8535828334279358_16_" fill="#FAA51F" d="M23.595,74.338c-2.508,0.048-5.496-0.234-8.39-1.989&#xD;&#xA;&#x9;C8.806,68.461,5.448,60.65,2.039,63.531c-3.411,2.881-0.642,16.133,12.191,17.733c4.452,0.603,8.283-0.164,11.261-0.867&#xD;&#xA;&#x9;c0.81-0.151,7.548-2.248,9.159-6.175s-0.16-4.437-1.088-4.78C32.675,69.189,27.129,74.367,23.595,74.338z"/>
    <path id="ID0.914295740891248_16_" fill="#FFFFFF" d="M2.179,63.357c-1.826,1.057-2.043,6.104-0.413,9.427&#xD;&#xA;&#x9;c1.724,3.28,4.077,5.063,5.563,6.142c1.766,0.731-1.29-2.817,0.439-5.04c1.731-2.226,5.944-2.394,5.944-2.394&#xD;&#xA;&#x9;s-3.989-3.67-6.155-5.759C5.655,63.744,4.178,62.44,2.179,63.357z"/>
    <path id="ID0.40227043256163597_16_" fill="none" stroke="#8E5322" stroke-width="1.4" stroke-linecap="round" stroke-linejoin="round" d="&#xD;&#xA;&#x9;M23.595,74.338c-2.508,0.048-5.496-0.234-8.39-1.989C8.806,68.461,5.448,60.65,2.039,63.531&#xD;&#xA;&#x9;c-3.411,2.881-0.642,16.133,12.191,17.733c4.452,0.603,8.283-0.164,11.261-0.867c0.81-0.151,7.548-2.248,9.159-6.175&#xD;&#xA;&#x9;s-0.16-4.437-1.088-4.78C32.675,69.189,27.129,74.367,23.595,74.338z"/>
    <path id="ID0.46792364912107587_16_" fill="#FAA51F" stroke="#8E5322" stroke-width="1.4" stroke-linecap="round" stroke-linejoin="round" d="&#xD;&#xA;&#x9;M47.76,63.321c-1.887,6.43-3.016,16.313-14.436,12.961c-11.418-3.352-7.826-11.678-5.939-18.107s6.326-7.002,12.756-5.115&#xD;&#xA;&#x9;C46.568,54.948,49.646,56.894,47.76,63.321z"/>
    <path id="ID0.007584026083350182_16_" fill="#FAA51F" stroke="#8E5322" stroke-width="1.4" stroke-linecap="round" stroke-linejoin="round" d="&#xD;&#xA;&#x9;M33.959,76.47c0,0-6.594,2.605-13.396,8.246c-2.963,2.398,4.602,5.818-1.781,9.596c-1.844,1.023-6.887-6.674-7.418-8.857&#xD;&#xA;&#x9;c-0.498-1.965-0.203-2.771,1.615-3.658c6.641-3.225,13.771-13.805,13.771-13.805"/>
    <path id="ID0.31672530295327306_16_" fill="#FAA51F" stroke="#8E5322" stroke-width="1.4" stroke-linecap="round" stroke-linejoin="round" d="&#xD;&#xA;&#x9;M20.211,87.384c0,0-0.57-1.186-1.668-2.25"/>
    <path id="ID0.38032895559445024_22_" fill="#FFFFFF" d="M45.824,65.863c-1.184,4.031-2.094,10.33-8.234,8.527&#xD;&#xA;&#x9;c-6.141-1.801-4.057-7.129-2.873-11.16s3.631-4.563,7.182-3.52C45.449,60.752,47.006,61.836,45.824,65.863z"/>
    <path id="ID0.2591130444779992_16_" fill="#FAA51F" d="M53.691,10.548c-1.477-0.283-4.529-0.861-6.229-0.969&#xD;&#xA;&#x9;c-4.59-0.363-9.064,0.799-9.064,0.799L26.895,0.7l-0.053,18.432c0.693-0.721-11.639,11.061-6.232,22.809&#xD;&#xA;&#x9;C26.1,53.8,39.992,60.448,58.494,59.099c18.504-1.35,24.055-11.244,23.536-16.85c-0.52-5.605-7.111-8.533-7.111-8.533&#xD;&#xA;&#x9;s0.426-4.281-2.003-9.92c-1.494-3.408-7.086-8.732-7.086-8.732L64.42,3.606l-8.002,6.068L53.691,10.548z"/>
    <path id="ID0.3588979784399271_16_" fill="#FFFFFF" d="M74.039,33.507l-2.138-2.279l-9.052,1.506c0,0-0.402,3.275-4.682,3.656&#xD;&#xA;&#x9;c-4.279,0.379-11.131-2.076-11.131-2.076l-7.266,0.918c0,0-7.979-1.486-9.158,4.818c-2.051,10.93,6.533,17.328,14.98,18.266&#xD;&#xA;&#x9;c5.459,0.674,9.02,0.406,12.975,0.188c17.45-0.975,23.583-10.697,22.767-16.342c-0.521-5.604-6.873-7.998-6.873-7.998L74.039,33.507&#xD;&#xA;&#x9;z"/>
    <path id="ID0.2727069961838424_16_" fill="none" stroke="#8E5322" stroke-width="1.4" stroke-linecap="round" stroke-linejoin="round" d="&#xD;&#xA;&#x9;M78.341,39.476c0,0,4.405,0.657,6.745,0.558c2.751-0.074,4.95-1.06,4.95-1.06"/>
    <path id="ID0.5861211125738919_16_" fill="none" stroke="#8E5322" stroke-width="1.4" stroke-linecap="round" stroke-linejoin="round" d="&#xD;&#xA;&#x9;M78.129,45.294c0,0,2.164,1.812,4.786,2.822c2.494,1.073,4.272,1.408,4.272,1.408"/>
    <path id="ID0.4793355236761272_16_" fill="none" stroke="#8E5322" stroke-width="1.4" stroke-linecap="round" stroke-linejoin="round" d="&#xD;&#xA;&#x9;M36.299,8.608l4.721,4.209"/>
    <path id="ID0.48413723474368453_16_" fill="none" stroke="#8E5322" stroke-width="1.4" stroke-linecap="round" stroke-linejoin="round" d="&#xD;&#xA;&#x9;M53.691,10.548c-1.477-0.283-4.529-0.861-6.229-0.969c-4.59-0.363-9.064,0.799-9.064,0.799L26.895,0.7l-0.053,18.432&#xD;&#xA;&#x9;c0.693-0.721-11.639,11.061-6.232,22.809C26.1,53.8,39.992,60.448,58.494,59.099c18.504-1.35,24.055-11.244,23.536-16.85&#xD;&#xA;&#x9;c-0.52-5.605-7.111-8.533-7.111-8.533s0.426-4.281-2.003-9.92c-1.494-3.408-7.086-8.732-7.086-8.732L64.42,3.606l-8.002,6.068&#xD;&#xA;&#x9;L53.691,10.548z"/>
    <path id="ID0.9024141579866409_16_" fill="none" stroke="#8E5322" stroke-width="1.4" stroke-linecap="round" stroke-linejoin="round" d="&#xD;&#xA;&#x9;M9.548,38.797c0,0,4.019,0.004,5.8-0.275c1.783-0.278,5.215-1.12,5.215-1.12"/>
    <path id="ID0.16030752705410123_16_" fill="none" stroke="#8E5322" stroke-width="1.4" stroke-linecap="round" stroke-linejoin="round" d="&#xD;&#xA;&#x9;M21.225,33.655c-2.338-1.499-2.318-1.511-6.107-2.899c-4.109-1.529-6.331-1.783-6.331-1.783"/>
    <path id="ID0.40023312577977777_16_" fill="#FFFFFF" stroke="#8E5322" stroke-width="1.4" stroke-linecap="round" stroke-linejoin="round" d="&#xD;&#xA;&#x9;M70.722,23.626c2.252,4.609,1.74,9.586-1.146,10.943c-2.9,1.455-7.109-1.178-9.352-5.887c-2.254-4.609-1.74-9.586,1.146-10.943&#xD;&#xA;&#x9;C64.26,16.382,68.468,19.017,70.722,23.626z"/>
    <path id="ID0.43813491938635707_16_" fill="#414142" d="M70.181,27.188c0.177,1.027-0.441,1.959-1.471,2.135&#xD;&#xA;&#x9;c-0.931,0.188-1.849-0.531-2.011-1.658c-0.178-1.029,0.44-1.961,1.469-2.137C69.187,25.452,70.005,26.159,70.181,27.188"/>
    <path id="ID0.4253597157076001_16_" fill="#FFFFFF" stroke="#8E5322" stroke-width="1.4" stroke-linecap="round" stroke-linejoin="round" d="&#xD;&#xA;&#x9;M47.316,23.868c2.254,4.611,1.32,9.734-2.111,11.428c-3.434,1.693-8.076-0.691-10.318-5.4c-2.254-4.609-1.32-9.734,2.111-11.428&#xD;&#xA;&#x9;C40.418,16.872,45.063,19.259,47.316,23.868z"/>
    <path id="ID0.814307457767427_16_" fill="#414142" d="M46.541,27.704c-0.121,0.992-1.025,1.787-1.918,1.676&#xD;&#xA;&#x9;c-0.992-0.121-1.59-1.002-1.455-2.092c0.121-0.992,1.025-1.789,1.918-1.678C45.98,25.72,46.676,26.612,46.541,27.704"/>
    <path id="ID0.5240494590252638_16_" fill="#5F4B43" stroke="#8E5322" stroke-width="1.4" stroke-linecap="round" stroke-linejoin="round" d="&#xD;&#xA;&#x9;M57.023,35.038c1.713,0.01,4.156-1,4.219,0.924c-0.098,0.793-2.088,3.873-3.887,3.752c-1.998-0.145-5.164-3.055-4.883-4.531&#xD;&#xA;&#x9;S55.51,35.054,57.023,35.038z"/>
    <path id="ID0.046259244438260794_16_" fill="#FFFFFF" stroke="#8E5322" stroke-width="1.4" stroke-linecap="round" stroke-linejoin="round" d="&#xD;&#xA;&#x9;M46.109,49.212c0,0,2.201,2.586,7.695,2.156"/>
    <path id="ID0.15909873321652412_36_" fill="#FAA51F" stroke="#8E5322" stroke-width="1.4" stroke-linecap="round" stroke-linejoin="round" d="&#xD;&#xA;&#x9;M34.15,59.744c-0.269-0.003-3.588,12.346-3.848,12.346c-2.011,0.001-3.677-0.931-4.011-1.777c-1.52-3.871-0.933-10.297,1.114-15.155&#xD;&#xA;&#x9;l1.181-2.012"/>
    <path id="ID0.1790580078959465_40_" fill="#FAA51F" stroke="#8E5322" stroke-width="1.4" stroke-linecap="round" stroke-linejoin="round" d="&#xD;&#xA;&#x9;M30.831,65.739c5.71-1.414,11.507,1.403,11.292,3.092c-0.472,3.977-5.186,5.461-13.536,2.984"/>
  </g>
</svg>