<svg version="1.1" width="90" height="99" viewBox="-1 -1 90 99" xmlns="http://www.w3.org/2000/svg" xmlns:xlink="http://www.w3.org/1999/xlink">
  <!-- Exported by Scratch - http://scratch.mit.edu/ -->
  <g id="ID0.8003282914869487" transform="matrix(1, 0, 0, 1, 0, 1)">
    <path id="ID0.1790580078959465_42_" fill="#FAA51F" stroke="#8E5322" stroke-width="1.4" stroke-linecap="round" stroke-linejoin="round" d="M 43.692 60.675 C 43.599 59.722 47.409 55.292 47.380 54.452 C 47.086 45.749 49.917 42.016 51.460 42.169 C 55.049 42.487 56.733 46.296 55.400 53.185 C 54.405 58.330 47.520 67.554 47.296 68.402 "/>
    <path id="ID0.527006761636585_19_" fill="#FAA51F" stroke="#8E5322" stroke-width="1.4" stroke-linecap="round" stroke-linejoin="round" d="M 27.473 73.257 C 27.473 73.257 23.610 77.509 22.350 78.206 C 15.547 75.116 16.162 73.864 13.194 77.476 C 11.831 79.134 8.758 82.878 10.444 84.726 C 16.321 90.296 14.069 78.945 22.257 85.558 C 24.443 86.413 26.902 80.865 36.446 79.788 "/>
    <path id="ID0.8937406223267317_26_" fill="#FAA51F" stroke="#8E5322" stroke-width="1.4" stroke-linecap="round" stroke-linejoin="round" d="M 18.861 83.376 C 18.408 83.011 16.840 82.435 16.361 82.019 "/>
    <path id="ID0.8535828334279358_16_" fill="#FAA51F" d="M 16.991 66.935 C 15.003 65.406 12.845 63.320 11.681 60.142 C 9.109 53.113 11.366 44.913 6.903 45.033 C 2.439 45.155 -3.672 57.233 5.352 66.497 C 8.456 69.749 11.924 71.544 14.688 72.854 C 15.416 73.241 21.990 75.809 25.700 73.750 C 29.411 71.687 28.344 70.184 27.835 69.336 C 27.301 68.583 19.733 69.165 16.991 66.935 Z "/>
    <path id="ID0.914295740891248_16_" fill="#FFFFFF" d="M 7.121 44.983 C 5.035 44.669 1.713 48.479 0.911 52.092 C 0.209 55.729 0.936 58.590 1.421 60.362 C 2.345 62.036 2.174 57.354 4.913 56.700 C 7.654 56.044 11.050 58.542 11.050 58.542 C 11.050 58.542 10.227 53.183 9.839 50.200 C 9.595 47.458 9.256 45.517 7.121 44.983 Z "/>
    <path id="ID0.40227043256163597_16_" fill="none" stroke="#8E5322" stroke-width="1.4" stroke-linecap="round" stroke-linejoin="round" d="M 16.991 66.935 C 15.003 65.406 12.845 63.320 11.681 60.142 C 9.109 53.113 11.366 44.913 6.903 45.033 C 2.439 45.155 -3.672 57.233 5.352 66.497 C 8.456 69.749 11.924 71.544 14.688 72.854 C 15.416 73.241 21.990 75.809 25.700 73.750 C 29.411 71.687 28.344 70.184 27.835 69.336 C 27.301 68.583 19.733 69.165 16.991 66.935 Z "/>
    <path id="ID0.46792364912107587_16_" fill="#FAA51F" stroke="#8E5322" stroke-width="1.4" stroke-linecap="round" stroke-linejoin="round" d="M 47.387 66.489 C 45.500 72.917 44.371 82.800 32.953 79.448 C 21.533 76.098 25.125 67.770 27.012 61.343 C 28.899 54.913 33.338 54.341 39.768 56.228 C 46.198 58.115 49.273 60.060 47.387 66.489 Z "/>
    <path id="ID0.38032895559445024_22_" fill="#FFFFFF" d="M 46.205 68.898 C 45.021 72.929 43.322 76.704 41.381 75.143 C 37.286 71.852 37.254 70.305 38.437 66.274 C 39.621 62.245 42.217 61.300 45.619 62.754 C 47.916 63.737 47.387 64.869 46.205 68.898 Z "/>
    <path id="ID0.007584026083350182_16_" fill="#FAA51F" stroke="#8E5322" stroke-width="1.4" stroke-linecap="round" stroke-linejoin="round" d="M 45.238 74.442 C 45.238 74.442 43.439 75.083 43.145 77.557 C 42.873 79.852 44.041 83.827 45.513 87.815 C 46.792 91.407 52.529 85.407 53.972 92.682 C 54.327 94.762 45.392 96.963 43.156 96.737 C 41.138 96.555 40.474 96.010 40.242 94.001 C 39.404 86.667 30.697 76.856 30.697 76.856 "/>
    <path id="ID0.31672530295327306_16_" fill="#FAA51F" stroke="#8E5322" stroke-width="1.4" stroke-linecap="round" stroke-linejoin="round" d="M 47.916 89.034 C 47.916 89.034 46.607 89.180 45.238 89.858 "/>
    <path id="ID0.2591130444779992_16_" fill="#FAA51F" d="M 54.348 11.960 C 52.888 11.601 49.872 10.860 48.182 10.663 C 43.616 10.054 39.085 10.977 39.085 10.977 L 28.113 0.700 L 27.079 19.102 C 27.809 18.420 14.868 29.528 19.641 41.549 C 24.495 53.684 38.011 61.061 56.561 60.697 C 75.110 60.334 81.180 50.750 80.959 45.125 C 80.739 39.500 74.313 36.225 74.313 36.225 C 74.313 36.225 74.966 31.973 72.841 26.215 C 71.531 22.731 66.231 17.117 66.231 17.117 L 65.431 5.599 L 57.118 11.232 L 54.348 11.960 Z "/>
    <path id="ID0.3588979784399271_16_" fill="#FFFFFF" d="M 73.445 35.970 L 71.431 33.581 L 62.311 34.602 C 62.311 34.602 61.735 37.850 57.443 38.004 C 53.150 38.154 46.439 35.338 46.439 35.338 L 39.132 35.869 C 39.132 35.869 31.244 33.959 29.731 40.191 C 27.103 50.998 35.333 57.841 43.719 59.230 C 49.135 60.191 52.702 60.113 56.665 60.107 C 74.142 60.062 80.783 50.679 80.269 45.002 C 80.048 39.377 73.831 36.647 73.831 36.647 L 73.445 35.970 Z "/>
    <path id="ID0.2727069961838424_16_" fill="none" stroke="#8E5322" stroke-width="1.4" stroke-linecap="round" stroke-linejoin="round" d="M 77.423 42.161 C 77.423 42.161 81.872 41.940 84.147 41.386 C 86.829 40.773 88.793 39.380 88.793 39.380 "/>
    <path id="ID0.5861211125738919_16_" fill="none" stroke="#8E5322" stroke-width="1.4" stroke-linecap="round" stroke-linejoin="round" d="M 76.902 47.958 C 76.902 47.958 79.413 49.249 82.192 49.655 C 84.863 50.149 86.671 50.085 86.671 50.085 "/>
    <path id="ID0.4793355236761272_16_" fill="none" stroke="#8E5322" stroke-width="1.4" stroke-linecap="round" stroke-linejoin="round" d="M 37.083 9.099 L 41.572 13.552 "/>
    <path id="ID0.48413723474368453_16_" fill="none" stroke="#8E5322" stroke-width="1.4" stroke-linecap="round" stroke-linejoin="round" d="M 54.348 11.960 C 52.888 11.601 49.872 10.860 48.182 10.663 C 43.616 10.054 39.085 10.977 39.085 10.977 L 28.113 0.700 L 27.079 19.102 C 27.809 18.420 14.868 29.528 19.641 41.549 C 24.495 53.684 38.011 61.061 56.561 60.697 C 75.110 60.334 81.180 50.750 80.959 45.125 C 80.739 39.500 74.313 36.225 74.313 36.225 C 74.313 36.225 74.966 31.973 72.841 26.215 C 71.531 22.731 66.231 17.117 66.231 17.117 L 65.431 5.599 L 57.118 11.232 L 54.348 11.960 Z "/>
    <path id="ID0.9024141579866409_16_" fill="none" stroke="#8E5322" stroke-width="1.4" stroke-linecap="round" stroke-linejoin="round" d="M 8.963 34.808 C 8.963 34.808 12.759 36.132 14.532 36.451 C 16.308 36.773 19.827 37.105 19.827 37.105 "/>
    <path id="ID0.16030752705410123_16_" fill="none" stroke="#8E5322" stroke-width="1.4" stroke-linecap="round" stroke-linejoin="round" d="M 20.696 33.306 C 20.696 33.306 18.941 31.048 15.904 28.536 C 12.535 25.729 10.524 24.753 10.524 24.753 "/>
    <path id="ID0.40023312577977777_16_" fill="#FFFFFF" stroke="#8E5322" stroke-width="1.4" stroke-linecap="round" stroke-linejoin="round" d="M 70.658 25.929 C 72.661 30.652 71.886 35.593 68.932 36.794 C 65.958 38.095 61.896 35.239 59.908 30.417 C 57.902 25.694 58.679 20.753 61.633 19.550 C 64.592 18.351 68.653 21.204 70.658 25.929 Z "/>
    <path id="ID0.43813491938635707_16_" fill="#414142" d="M 68.929 31.456 C 69.051 32.493 68.383 33.390 67.346 33.509 C 66.408 33.650 65.528 32.882 65.426 31.745 C 65.305 30.710 65.971 29.813 67.008 29.692 C 68.028 29.671 68.808 30.419 68.929 31.456 "/>
    <path id="ID0.4253597157076001_16_" fill="#FFFFFF" stroke="#8E5322" stroke-width="1.4" stroke-linecap="round" stroke-linejoin="round" d="M 47.274 24.923 C 49.279 29.648 48.072 34.714 44.555 36.224 C 41.035 37.730 36.527 35.101 34.538 30.281 C 32.535 25.558 33.738 20.490 37.255 18.982 C 40.758 17.571 45.267 20.200 47.274 24.923 Z "/>
    <path id="ID0.814307457767427_16_" fill="#414142" d="M 45.296 30.712 C 45.122 31.696 44.175 32.442 43.289 32.284 C 42.305 32.108 41.755 31.200 41.947 30.116 C 42.121 29.132 43.068 28.386 43.954 28.544 C 44.840 28.700 45.488 29.628 45.296 30.712 "/>
    <path id="ID0.5240494590252638_16_" fill="#5F4B43" stroke="#8E5322" stroke-width="1.4" stroke-linecap="round" stroke-linejoin="round" d="M 56.373 36.595 C 58.083 36.695 60.574 35.818 60.536 37.741 C 60.396 38.526 58.243 41.499 56.455 41.280 C 54.468 41.030 51.459 37.956 51.818 36.497 C 52.180 35.038 54.860 36.530 56.373 36.595 Z "/>
    <path id="ID0.046259244438260794_16_" fill="#FFFFFF" stroke="#8E5322" stroke-width="1.4" stroke-linecap="round" stroke-linejoin="round" d="M 44.720 50.167 C 44.720 50.167 46.778 52.868 52.287 52.730 "/>
    <path id="ID0.1790580078959465_41_" fill="#FAA51F" stroke="#8E5322" stroke-width="1.4" stroke-linecap="round" stroke-linejoin="round" d="M 31.278 55.087 C 31.371 54.134 27.561 49.704 27.590 48.864 C 27.884 40.161 25.053 36.428 23.510 36.581 C 19.921 36.899 18.237 40.708 19.570 47.597 C 20.565 52.742 27.450 61.966 27.674 62.814 "/>
  </g>
</svg>