<svg version="1.1" width="484" height="361" viewBox="-1 2 484 361" xmlns="http://www.w3.org/2000/svg" xmlns:xlink="http://www.w3.org/1999/xlink">
  <!-- Exported by Scratch - http://scratch.mit.edu/ -->
  <path id="ID0.9949736562557518" fill="#666666" stroke="#666666" stroke-width="2" stroke-linecap="round" d="M 0 182 L 480 318 L 480 360 L 0 360 L 0 182 Z " transform="matrix(1, 0, 0, 1, 1, 0)"/>
  <path id="ID0.24535179883241653" fill="none" stroke="#FF00BF" stroke-width="2" stroke-linecap="round" d="M 480 0 L 480 360 " transform="matrix(0.1270718276500702, 0, 0, 0.1270718276500702, 419.6, 317.6)"/>
  <path id="ID0.999339368660003" fill="none" stroke="#99B2FF" stroke-width="15" stroke-linecap="round" d="M 92 213 C 92 213 88.922 223.759 87 229 C 85.254 233.762 82.604 238.188 81 243 C 79.263 248.210 78.044 253.608 77 259 C 76.042 263.947 74.843 268.963 75 274 C 75.180 279.746 75.529 285.810 78 291 C 82.328 300.089 86.444 310.695 95 316 C 104.493 321.885 116.863 322.846 128 322 C 143.785 320.801 158.486 313.151 174 310 C 179.883 308.805 185.998 308.880 192 309 C 202.675 309.213 213.531 308.906 224 311 C 235.358 313.272 246.503 317.102 257 322 C 266.628 326.493 273.743 336.228 284 339 C 299.140 343.092 315.322 341.613 331 342 C 342.323 342.280 353.683 341.462 365 341 C 370.002 340.796 374.996 340.152 380 340 C 385.991 339.818 392.007 340.122 398 340 C 408.326 339.789 418.754 337.699 429 339 C 439.981 340.394 450.154 345.787 461 348 C 466.556 349.134 478 349 478 349 " transform="matrix(1, 0, 0, 1, -5, -2)"/>
  <text id="ID0.704382530413568" fill="#99B2FF" x="144" y="19.7" text-anchor="start" font-family="Scratch" font-size="22" transform="matrix(1, 0, 0, 1, 244, 0.5)">hmm... that is suspicious.</text>
</svg>